<svg width="1174" height="194" viewBox="0 0 1174 194" fill="none" xmlns="http://www.w3.org/2000/svg">
<path d="M259.333 97C258.867 95.9333 258.2 94.8667 257.4 93.8667C254.2 90 249.333 88 244.133 88C239 88 234.133 89.8667 230.867 93.8667C227.867 97.6667 226.667 102.267 226.667 107C226.667 111.667 227.867 116.333 230.867 120.067C234.067 124 238.933 126.067 244.133 125.933C249.267 126.067 254.2 124 257.4 120.067C258.2 119.133 258.8 118.133 259.333 117.067L253.267 114.467C252.933 115.067 252.667 115.6 252.267 116.133C250.4 118.6 247.333 119.867 244.133 119.867C240.867 119.867 237.867 118.6 236 116.133C234.133 113.667 233.533 110.333 233.467 107C233.533 103.667 234.133 100.333 236 97.8667C237.867 95.3333 240.867 94.0667 244.133 94.1333C247.333 94.0667 250.4 95.3333 252.267 97.8667C252.667 98.4 253 99 253.333 99.6L259.333 97ZM297.021 97C296.554 95.9333 295.888 94.8667 295.088 93.8667C291.888 90 287.021 88 281.821 88C276.688 88 271.821 89.8667 268.554 93.8667C265.554 97.6667 264.354 102.267 264.354 107C264.354 111.667 265.554 116.333 268.554 120.067C271.754 124 276.621 126.067 281.821 125.933C286.954 126.067 291.888 124 295.088 120.067C295.888 119.133 296.488 118.133 297.021 117.067L290.954 114.467C290.621 115.067 290.354 115.6 289.954 116.133C288.088 118.6 285.021 119.867 281.821 119.867C278.554 119.867 275.554 118.6 273.688 116.133C271.821 113.667 271.221 110.333 271.154 107C271.221 103.667 271.821 100.333 273.688 97.8667C275.554 95.3333 278.554 94.0667 281.821 94.1333C285.021 94.0667 288.088 95.3333 289.954 97.8667C290.354 98.4 290.688 99 291.021 99.6L297.021 97ZM307.975 108.8H335.908C335.908 108.2 335.975 107.6 335.975 107C335.975 102.333 334.775 97.6 331.842 93.8667C328.575 89.9333 323.775 88 318.508 88C313.308 88 308.442 90 305.242 93.8667C302.242 97.6 301.175 102.2 301.042 107C300.975 111.6 302.175 116.267 305.242 120.067C308.375 124 313.308 125.867 318.508 126C323.708 126.133 328.708 124.133 332.042 120.2C332.775 119.267 333.442 118.267 334.042 117.2L327.642 114.467C327.308 115 327.042 115.533 326.642 116.133C324.775 118.6 321.775 119.867 318.508 119.867C315.308 119.867 312.242 118.6 310.375 116.133C308.842 114.133 308.175 111.533 307.975 108.8ZM318.508 94.1333C321.775 94.0667 324.775 95.3333 326.642 97.8667C327.842 99.4667 328.508 101.467 328.842 103.533H308.175C308.508 101.467 309.175 99.4667 310.375 97.8667C312.242 95.3333 315.308 94.0667 318.508 94.1333ZM370.496 98.4667C369.363 94.8667 366.496 91.5333 362.963 89.8C360.563 88.5333 357.896 88 355.363 88C352.896 87.9333 350.296 88.2 347.629 89.4C344.163 90.9333 341.496 94.3333 341.496 98.3333C341.496 100.733 342.563 103.467 344.829 105.267C346.829 106.867 349.029 107.6 351.896 108.4C354.229 109.067 356.229 109.533 358.029 110.067C360.296 110.733 361.763 111.267 362.829 112.267C363.763 113.133 364.163 114.133 364.096 115.333C363.963 116.533 363.429 117.467 362.363 118.267C360.896 119.4 358.096 119.8 355.829 119.8C353.096 119.8 350.296 119.2 348.363 117.067C347.096 115.733 346.296 113.467 346.096 111.733L339.896 113.267C340.229 115.533 341.763 119.133 343.696 121.267C346.829 124.667 351.096 126 355.896 126C359.496 126 363.096 125.4 365.896 123.6C368.629 121.867 370.429 119.067 370.696 115.867C370.963 112.533 369.629 109.733 366.829 107.533C364.629 105.667 362.563 105.067 359.829 104.267C357.296 103.6 355.029 103 353.296 102.467C351.029 101.8 349.763 101.2 348.896 100.4C348.363 99.8 348.096 99.0667 348.096 98.2C348.096 97.0667 348.896 95.9333 350.363 95.1333C351.696 94.4667 353.429 94.1333 355.296 94.1333C357.029 94.1333 358.763 94.5333 360.163 95.2667C362.029 96.2 363.496 98.0667 364.163 100L370.496 98.4667ZM405.933 98.4667C404.8 94.8667 401.933 91.5333 398.4 89.8C396 88.5333 393.333 88 390.8 88C388.333 87.9333 385.733 88.2 383.067 89.4C379.6 90.9333 376.933 94.3333 376.933 98.3333C376.933 100.733 378 103.467 380.267 105.267C382.267 106.867 384.467 107.6 387.333 108.4C389.667 109.067 391.667 109.533 393.467 110.067C395.733 110.733 397.2 111.267 398.267 112.267C399.2 113.133 399.6 114.133 399.533 115.333C399.4 116.533 398.867 117.467 397.8 118.267C396.333 119.4 393.533 119.8 391.267 119.8C388.533 119.8 385.733 119.2 383.8 117.067C382.533 115.733 381.733 113.467 381.533 111.733L375.333 113.267C375.667 115.533 377.2 119.133 379.133 121.267C382.267 124.667 386.533 126 391.333 126C394.933 126 398.533 125.4 401.333 123.6C404.067 121.867 405.867 119.067 406.133 115.867C406.4 112.533 405.067 109.733 402.267 107.533C400.067 105.667 398 105.067 395.267 104.267C392.733 103.6 390.467 103 388.733 102.467C386.467 101.8 385.2 101.2 384.333 100.4C383.8 99.8 383.533 99.0667 383.533 98.2C383.533 97.0667 384.333 95.9333 385.8 95.1333C387.133 94.4667 388.867 94.1333 390.733 94.1333C392.467 94.1333 394.2 94.5333 395.6 95.2667C397.467 96.2 398.933 98.0667 399.6 100L405.933 98.4667ZM413.771 76.6667V83.1333H420.238V76.6667H413.771ZM413.771 89V125H420.238V89H413.771ZM460.096 93.7333C457.163 90 452.496 88 447.629 88C443.496 88 439.563 89.4667 436.696 92V77H430.229V125H435.963V121.2C438.829 124.4 442.963 126 447.629 126C452.563 126 457.096 123.933 460.096 120.2C463.096 116.4 464.163 111.733 464.163 107C464.163 102.2 462.963 97.4 460.096 93.7333ZM454.963 116.2C453.096 118.867 449.963 120.133 446.829 120.133C443.562 120.133 440.696 118.933 438.763 116.667C436.763 114.267 435.963 110.6 435.963 107C435.963 103.333 436.763 99.7333 438.763 97.3333C440.563 95 443.496 93.8667 446.629 93.8667C450.029 93.8667 453.029 95.0667 454.896 97.7333C456.629 100.067 457.296 103.467 457.296 107C457.296 110.467 456.696 113.867 454.963 116.2ZM471.479 125V76H477.946V125H471.479ZM492.225 108.8H520.158C520.158 108.2 520.225 107.6 520.225 107C520.225 102.333 519.025 97.6 516.092 93.8667C512.825 89.9333 508.025 88 502.758 88C497.558 88 492.692 90 489.492 93.8667C486.492 97.6 485.425 102.2 485.292 107C485.225 111.6 486.425 116.267 489.492 120.067C492.625 124 497.558 125.867 502.758 126C507.958 126.133 512.958 124.133 516.292 120.2C517.025 119.267 517.692 118.267 518.292 117.2L511.892 114.467C511.558 115 511.292 115.533 510.892 116.133C509.025 118.6 506.025 119.867 502.758 119.867C499.558 119.867 496.492 118.6 494.625 116.133C493.092 114.133 492.425 111.533 492.225 108.8ZM502.758 94.1333C506.025 94.0667 509.025 95.3333 510.892 97.8667C512.092 99.4667 512.758 101.467 513.092 103.533H492.425C492.758 101.467 493.425 99.4667 494.625 97.8667C496.492 95.3333 499.558 94.0667 502.758 94.1333ZM541.979 125V76H548.446V125H541.979ZM562.725 108.8H590.658C590.658 108.2 590.725 107.6 590.725 107C590.725 102.333 589.525 97.6 586.592 93.8667C583.325 89.9333 578.525 88 573.258 88C568.058 88 563.192 90 559.992 93.8667C556.992 97.6 555.925 102.2 555.792 107C555.725 111.6 556.925 116.267 559.992 120.067C563.125 124 568.058 125.867 573.258 126C578.458 126.133 583.458 124.133 586.792 120.2C587.525 119.267 588.192 118.267 588.792 117.2L582.392 114.467C582.058 115 581.792 115.533 581.392 116.133C579.525 118.6 576.525 119.867 573.258 119.867C570.058 119.867 566.992 118.6 565.125 116.133C563.592 114.133 562.925 111.533 562.725 108.8ZM573.258 94.1333C576.525 94.0667 579.525 95.3333 581.392 97.8667C582.592 99.4667 583.258 101.467 583.592 103.533H562.925C563.258 101.467 563.925 99.4667 565.125 97.8667C566.992 95.3333 570.058 94.0667 573.258 94.1333ZM602.688 98.5333C602.888 98.1333 603.221 97.7333 603.488 97.4C605.288 95.1333 608.021 94.1333 611.088 94.1333C613.554 94.0667 616.021 94.6667 617.888 96.0667C619.488 97.2 620.488 99 620.754 100.933L613.821 101.933C608.354 102.733 604.688 103 600.821 105.2C597.421 107.2 595.354 110.6 595.354 114.467C595.354 117.133 596.154 119.067 597.688 121.333C599.621 123.933 603.288 125.8 606.954 125.933C610.021 126.067 613.088 125.333 615.888 123.8C618.154 122.667 620.554 120.533 621.688 118.133V125H627.421V102.4C627.421 100.333 626.954 98 625.888 95.8C623.221 90.4 617.821 88.0667 611.221 88.0667C605.621 88.0667 600.888 90 597.688 94.2667L596.754 95.6667L602.688 98.5333ZM621.021 106.333C621.021 108.6 621.021 110.667 619.821 113.133C618.021 117.733 612.421 120.2 607.888 120C604.354 119.8 601.754 117.067 601.821 114.067C601.888 109.467 607.554 108.533 612.888 107.667C616.621 107 618.954 106.667 621.021 106.333ZM652.838 88.0667C650.104 88.1333 647.371 88.8667 645.171 90.6C643.704 91.6667 642.638 92.8667 641.838 94.2667V89H636.104V125H642.571V107.133C642.571 102.8 642.904 99.3333 645.638 96.7333C647.171 95.1333 649.504 94.2 652.304 94.0667C654.438 94 656.438 94.2667 658.104 94.9333V88.8667C656.371 88.2 654.571 87.9333 652.838 88.0667ZM690.883 91.4C688.083 89.0667 684.217 87.9333 680.55 88.1333C677.217 88.2667 673.617 89.4 670.883 91.8667L670.217 92.5333V89H664.417V125H670.95V106.667C670.95 104.933 671.017 103.333 671.35 101.933C671.817 99.6667 672.817 97.6667 674.417 96.3333C675.883 95.1333 677.817 94.4667 679.883 94.3333C682.483 94.2667 684.683 94.9333 686.35 96.2667C689.35 98.6667 689.883 102.6 689.883 107.2V125H696.417V107.2C696.483 100.733 695.683 95.2667 690.883 91.4ZM705.083 76.6667V83.1333H711.55V76.6667H705.083ZM705.083 89V125H711.55V89H705.083ZM748.008 91.4C745.208 89.0667 741.342 87.9333 737.675 88.1333C734.342 88.2667 730.742 89.4 728.008 91.8667L727.342 92.5333V89H721.542V125H728.075V106.667C728.075 104.933 728.142 103.333 728.475 101.933C728.942 99.6667 729.942 97.6667 731.542 96.3333C733.008 95.1333 734.942 94.4667 737.008 94.3333C739.608 94.2667 741.808 94.9333 743.475 96.2667C746.475 98.6667 747.008 102.6 747.008 107.2V125H753.542V107.2C753.608 100.733 752.808 95.2667 748.008 91.4ZM787.742 89V92.7333C784.875 89.7333 780.608 88 776.075 88C771.142 88 766.542 90 763.608 93.7333C760.742 97.4 759.542 102.2 759.542 107C759.542 111.733 760.542 116.4 763.608 120.2C766.542 123.933 771.142 126 776.008 126C780.275 126 784.142 124.667 786.942 122V125.533C787.008 129.533 786.408 131.6 784.075 133.467C782.208 135.067 779.408 135.8 776.675 135.8C774.275 135.8 771.608 134.933 769.942 133.133C769.275 132.6 768.742 131.933 768.342 131.2L762.408 134.133C763.475 136 765.208 137.533 766.942 138.533C769.408 140.8 773.142 141.933 776.608 141.933C780.208 141.933 783.942 141.267 787.542 138.8C791.742 135.933 793.408 131.867 793.408 125.6V89H787.742ZM776.875 120.133C773.742 120.133 770.608 118.867 768.742 116.2C767.008 113.867 766.408 110.467 766.408 107C766.408 103.467 767.075 100.067 768.808 97.7333C770.675 95.0667 773.675 93.8667 777.075 93.8667C780.208 93.8667 783.075 95 784.942 97.3333C786.942 99.7333 787.742 103.333 787.742 107C787.742 110.6 786.942 114.267 784.942 116.667C783.008 118.933 780.075 120.133 776.875 120.133ZM817.167 125V76H823.633V125H817.167ZM838.313 98.5333C838.513 98.1333 838.846 97.7333 839.113 97.4C840.913 95.1333 843.646 94.1333 846.713 94.1333C849.179 94.0667 851.646 94.6667 853.513 96.0667C855.113 97.2 856.113 99 856.379 100.933L849.446 101.933C843.979 102.733 840.313 103 836.446 105.2C833.046 107.2 830.979 110.6 830.979 114.467C830.979 117.133 831.779 119.067 833.313 121.333C835.246 123.933 838.913 125.8 842.579 125.933C845.646 126.067 848.713 125.333 851.513 123.8C853.779 122.667 856.179 120.533 857.313 118.133V125H863.046V102.4C863.046 100.333 862.579 98 861.513 95.8C858.846 90.4 853.446 88.0667 846.846 88.0667C841.246 88.0667 836.513 90 833.313 94.2667L832.379 95.6667L838.313 98.5333ZM856.646 106.333C856.646 108.6 856.646 110.667 855.446 113.133C853.646 117.733 848.046 120.2 843.513 120C839.979 119.8 837.379 117.067 837.446 114.067C837.513 109.467 843.179 108.533 848.513 107.667C852.246 107 854.579 106.667 856.646 106.333ZM901.596 93.7333C898.663 90 893.996 88 889.129 88C884.996 88 881.063 89.4667 878.196 92V77H871.729V125H877.463V121.2C880.329 124.4 884.463 126 889.129 126C894.063 126 898.596 123.933 901.596 120.2C904.596 116.4 905.663 111.733 905.663 107C905.663 102.2 904.463 97.4 901.596 93.7333ZM896.463 116.2C894.596 118.867 891.463 120.133 888.329 120.133C885.062 120.133 882.196 118.933 880.263 116.667C878.263 114.267 877.463 110.6 877.463 107C877.463 103.333 878.263 99.7333 880.263 97.3333C882.063 95 884.996 93.8667 888.129 93.8667C891.529 93.8667 894.529 95.0667 896.396 97.7333C898.129 100.067 898.796 103.467 898.796 107C898.796 110.467 898.196 113.867 896.463 116.2ZM941.246 98.4667C940.113 94.8667 937.246 91.5333 933.713 89.8C931.313 88.5333 928.646 88 926.113 88C923.646 87.9333 921.046 88.2 918.379 89.4C914.913 90.9333 912.246 94.3333 912.246 98.3333C912.246 100.733 913.313 103.467 915.579 105.267C917.579 106.867 919.779 107.6 922.646 108.4C924.979 109.067 926.979 109.533 928.779 110.067C931.046 110.733 932.513 111.267 933.579 112.267C934.513 113.133 934.913 114.133 934.846 115.333C934.713 116.533 934.179 117.467 933.113 118.267C931.646 119.4 928.846 119.8 926.579 119.8C923.846 119.8 921.046 119.2 919.113 117.067C917.846 115.733 917.046 113.467 916.846 111.733L910.646 113.267C910.979 115.533 912.513 119.133 914.446 121.267C917.579 124.667 921.846 126 926.646 126C930.246 126 933.846 125.4 936.646 123.6C939.379 121.867 941.179 119.067 941.446 115.867C941.713 112.533 940.379 109.733 937.579 107.533C935.379 105.667 933.313 105.067 930.579 104.267C928.046 103.6 925.779 103 924.046 102.467C921.779 101.8 920.513 101.2 919.646 100.4C919.113 99.8 918.846 99.0667 918.846 98.2C918.846 97.0667 919.646 95.9333 921.113 95.1333C922.446 94.4667 924.179 94.1333 926.046 94.1333C927.779 94.1333 929.513 94.5333 930.913 95.2667C932.779 96.2 934.246 98.0667 934.913 100L941.246 98.4667ZM943.75 129.533V134.8H987.75V129.533H943.75Z" fill="#FED136"/>
<path d="M105 67C105 61.4772 109.477 57 115 57H205C210.523 57 215 61.4772 215 67V134C215 139.523 210.523 144 205 144H115C109.477 144 105 139.523 105 134V67Z" fill="#050505"/>
<path d="M129.35 120.8L145.15 105L129.35 89.2L126.083 92.4L138.683 105L126.083 117.6L129.35 120.8ZM164.5 96.5333C164.7 96.1333 165.033 95.7333 165.3 95.4C167.1 93.1333 169.833 92.1333 172.9 92.1333C175.367 92.0667 177.833 92.6667 179.7 94.0667C181.3 95.2 182.3 97 182.567 98.9333L175.633 99.9333C170.167 100.733 166.5 101 162.633 103.2C159.233 105.2 157.167 108.6 157.167 112.467C157.167 115.133 157.967 117.067 159.5 119.333C161.433 121.933 165.1 123.8 168.767 123.933C171.833 124.067 174.9 123.333 177.7 121.8C179.967 120.667 182.367 118.533 183.5 116.133V123H189.233V100.4C189.233 98.3333 188.767 96 187.7 93.8C185.033 88.4 179.633 86.0667 173.033 86.0667C167.433 86.0667 162.7 88 159.5 92.2667L158.567 93.6667L164.5 96.5333ZM182.833 104.333C182.833 106.6 182.833 108.667 181.633 111.133C179.833 115.733 174.233 118.2 169.7 118C166.167 117.8 163.567 115.067 163.633 112.067C163.7 107.467 169.367 106.533 174.7 105.667C178.433 105 180.767 104.667 182.833 104.333Z" fill="#FED136"/>
<path d="M105 60C105 54.4772 109.477 50 115 50H205C210.523 50 215 54.4772 215 60V68H105V60Z" fill="#C4C4C4"/>
<ellipse cx="142.5" cy="60" rx="4.5" ry="4" fill="#FED136"/>
<ellipse cx="130.5" cy="60" rx="4.5" ry="4" fill="#FED136"/>
<ellipse cx="118.5" cy="60" rx="4.5" ry="4" fill="#FED136"/>
</svg>
