<svg width="1174" height="194" viewBox="0 0 1174 194" fill="none" xmlns="http://www.w3.org/2000/svg">
<path d="M87.0081 62.395C87.0081 56.8721 91.4852 52.395 97.0081 52.395H243C248.523 52.395 253 56.8721 253 62.395V144C253 149.523 248.523 154 243 154H97.0081C91.4853 154 87.0081 149.523 87.0081 144V62.395Z" fill="#050505"/>
<path d="M103.02 127.976L99.4365 124.424L111.212 112.84L99.4365 101.256L103.02 97.704L118.156 112.84L103.02 127.976ZM128.401 133H134.321L137.937 122.216H157.617L161.265 133H167.185L151.761 86.92H143.825L128.401 133ZM139.729 116.872L147.729 92.904L155.825 116.872H139.729ZM173.553 133H200.625V127.592H179.249V86.92H173.553V133ZM206.678 133H233.75V127.592H212.374V86.92H206.678V133Z" fill="#FED136"/>
<path d="M87.0081 57C87.0081 51.4771 91.4852 47 97.0081 47H243C248.523 47 253 51.4772 253 57V69.479H87.0081V57Z" fill="#C4C4C4"/>
<ellipse cx="130.088" cy="57.7462" rx="5.68029" ry="5.35119" fill="#FED136"/>
<ellipse cx="114.941" cy="57.7462" rx="5.68029" ry="5.35119" fill="#FED136"/>
<ellipse cx="99.7931" cy="57.7462" rx="5.68029" ry="5.35119" fill="#FED136"/>
</svg>
