<svg width="1084" height="351" viewBox="0 0 1084 351" fill="none" xmlns="http://www.w3.org/2000/svg">
<path d="M15.0312 28C15.0312 22.4771 19.5084 18 25.0312 18H524.287C529.81 18 534.287 22.4771 534.287 28V340.353C534.287 345.876 529.81 350.353 524.287 350.353H25.0312C19.5084 350.353 15.0312 345.876 15.0312 340.353V28Z" fill="#050505"/>
<g filter="url(#filter0_d)">
<path d="M173.937 182L168.187 202H209.937L204.187 182C201.52 173.333 198.937 164.417 196.437 155.25C194.103 146.083 191.77 137 189.437 128H188.437C186.103 137.167 183.77 146.333 181.437 155.5C179.103 164.5 176.603 173.333 173.937 182ZM119.187 269L172.437 105.5H206.437L259.687 269H229.187L216.437 224.75H161.437L148.687 269H119.187ZM279.841 269V105.5H308.841V244.5H376.841V269H279.841ZM405.329 269V105.5H434.329V244.5H502.329V269H405.329Z" fill="#FED136"/>
</g>
<g filter="url(#filter1_d)">
<path d="M62.75 256.875L46.5 240.625L90.75 197.25L46.5 153.875L62.75 137.625L122.375 197.25L62.75 256.875Z" fill="#FED136"/>
</g>
<path d="M15.0312 10C15.0312 4.47715 19.5084 0 25.0312 0H524.287C529.81 0 534.287 4.47715 534.287 10V46H15.0312V10Z" fill="#0144D5"/>
<path d="M587.241 59.76L584.251 70.16H605.961L602.971 59.76C601.585 55.2533 600.241 50.6167 598.941 45.85C597.728 41.0833 596.515 36.36 595.301 31.68H594.781C593.568 36.4467 592.355 41.2133 591.141 45.98C589.928 50.66 588.628 55.2533 587.241 59.76ZM558.771 105L586.461 19.98H604.141L631.831 105H615.971L609.341 81.99H580.741L574.111 105H558.771ZM667.661 106.56C663.328 106.56 659.255 105.823 655.441 104.35C651.715 102.877 648.465 100.71 645.691 97.85C642.918 94.99 640.751 91.48 639.191 87.32C637.631 83.16 636.851 78.4367 636.851 73.15C636.851 67.8633 637.718 63.14 639.451 58.98C641.185 54.82 643.525 51.31 646.471 48.45C649.418 45.59 652.798 43.4233 656.611 41.95C660.511 40.39 664.585 39.61 668.831 39.61C672.991 39.61 676.545 40.3033 679.491 41.69C682.525 43.0767 685.211 44.7667 687.551 46.76L680.271 56.51C678.538 55.0367 676.805 53.91 675.071 53.13C673.425 52.2633 671.605 51.83 669.611 51.83C664.411 51.83 660.208 53.78 657.001 57.68C653.795 61.4933 652.191 66.65 652.191 73.15C652.191 79.5633 653.751 84.72 656.871 88.62C660.078 92.4333 664.195 94.34 669.221 94.34C671.735 94.34 674.075 93.82 676.241 92.78C678.495 91.6533 680.531 90.3533 682.351 88.88L688.461 98.76C685.428 101.36 682.091 103.31 678.451 104.61C674.898 105.91 671.301 106.56 667.661 106.56ZM724.536 106.56C720.203 106.56 716.13 105.823 712.316 104.35C708.59 102.877 705.34 100.71 702.566 97.85C699.793 94.99 697.626 91.48 696.066 87.32C694.506 83.16 693.726 78.4367 693.726 73.15C693.726 67.8633 694.593 63.14 696.326 58.98C698.06 54.82 700.4 51.31 703.346 48.45C706.293 45.59 709.673 43.4233 713.486 41.95C717.386 40.39 721.46 39.61 725.706 39.61C729.866 39.61 733.42 40.3033 736.366 41.69C739.4 43.0767 742.086 44.7667 744.426 46.76L737.146 56.51C735.413 55.0367 733.68 53.91 731.946 53.13C730.3 52.2633 728.48 51.83 726.486 51.83C721.286 51.83 717.083 53.78 713.876 57.68C710.67 61.4933 709.066 66.65 709.066 73.15C709.066 79.5633 710.626 84.72 713.746 88.62C716.953 92.4333 721.07 94.34 726.096 94.34C728.61 94.34 730.95 93.82 733.116 92.78C735.37 91.6533 737.406 90.3533 739.226 88.88L745.336 98.76C742.303 101.36 738.966 103.31 735.326 104.61C731.773 105.91 728.176 106.56 724.536 106.56ZM782.061 106.56C777.641 106.56 773.525 105.823 769.711 104.35C765.898 102.79 762.561 100.58 759.701 97.72C756.841 94.86 754.588 91.3933 752.941 87.32C751.381 83.16 750.601 78.4367 750.601 73.15C750.601 67.95 751.425 63.27 753.071 59.11C754.718 54.95 756.885 51.44 759.571 48.58C762.345 45.72 765.508 43.51 769.061 41.95C772.615 40.39 776.255 39.61 779.981 39.61C784.315 39.61 788.128 40.3467 791.421 41.82C794.715 43.2933 797.445 45.3733 799.611 48.06C801.865 50.7467 803.555 53.9533 804.681 57.68C805.808 61.4067 806.371 65.48 806.371 69.9C806.371 71.3733 806.285 72.76 806.111 74.06C806.025 75.36 805.895 76.4 805.721 77.18H765.161C765.855 82.9 767.848 87.32 771.141 90.44C774.521 93.4733 778.811 94.99 784.011 94.99C786.785 94.99 789.341 94.6 791.681 93.82C794.108 92.9533 796.491 91.7833 798.831 90.31L803.901 99.67C800.868 101.663 797.488 103.31 793.761 104.61C790.035 105.91 786.135 106.56 782.061 106.56ZM765.031 67.04H793.371C793.371 62.1 792.288 58.2433 790.121 55.47C788.041 52.61 784.791 51.18 780.371 51.18C776.558 51.18 773.221 52.5233 770.361 55.21C767.501 57.8967 765.725 61.84 765.031 67.04ZM838.46 106.56C834.04 106.56 829.663 105.737 825.33 104.09C821.083 102.357 817.4 100.233 814.28 97.72L821.3 88.1C824.16 90.3533 826.977 92.13 829.75 93.43C832.61 94.6433 835.687 95.25 838.98 95.25C842.447 95.25 845.003 94.5567 846.65 93.17C848.297 91.6967 849.12 89.8333 849.12 87.58C849.12 86.28 848.73 85.1533 847.95 84.2C847.17 83.16 846.13 82.25 844.83 81.47C843.53 80.69 842.057 79.9967 840.41 79.39C838.763 78.6967 837.117 78.0033 835.47 77.31C833.39 76.53 831.267 75.62 829.1 74.58C826.933 73.54 824.983 72.2833 823.25 70.81C821.603 69.3367 820.217 67.6467 819.09 65.74C818.05 63.7467 817.53 61.4067 817.53 58.72C817.53 53.0867 819.61 48.4933 823.77 44.94C827.93 41.3867 833.607 39.61 840.8 39.61C845.22 39.61 849.207 40.39 852.76 41.95C856.313 43.51 859.39 45.2867 861.99 47.28L855.1 56.38C852.847 54.7333 850.55 53.4333 848.21 52.48C845.957 51.44 843.573 50.92 841.06 50.92C837.853 50.92 835.47 51.6133 833.91 53C832.437 54.3 831.7 55.9467 831.7 57.94C831.7 59.24 832.047 60.3667 832.74 61.32C833.52 62.1867 834.517 62.9667 835.73 63.66C836.943 64.3533 838.33 65.0033 839.89 65.61C841.537 66.2167 843.227 66.8233 844.96 67.43C847.127 68.21 849.293 69.12 851.46 70.16C853.627 71.1133 855.577 72.3267 857.31 73.8C859.13 75.2733 860.56 77.0933 861.6 79.26C862.727 81.34 863.29 83.8533 863.29 86.8C863.29 89.5733 862.727 92.1733 861.6 94.6C860.56 96.94 859 99.02 856.92 100.84C854.84 102.573 852.24 103.96 849.12 105C846 106.04 842.447 106.56 838.46 106.56ZM876.636 105V41.17H891.586V105H876.636ZM884.176 29.99C881.49 29.99 879.28 29.21 877.546 27.65C875.813 26.09 874.946 24.0533 874.946 21.54C874.946 19.0267 875.813 16.99 877.546 15.43C879.28 13.7833 881.49 12.96 884.176 12.96C886.863 12.96 889.073 13.7833 890.806 15.43C892.54 16.99 893.406 19.0267 893.406 21.54C893.406 24.0533 892.54 26.09 890.806 27.65C889.073 29.21 886.863 29.99 884.176 29.99ZM941.6 106.56C938.653 106.56 935.663 105.867 932.63 104.48C929.683 103.007 926.867 100.927 924.18 98.24H923.79L922.49 105H910.66V13.22H925.61V36.88L925.22 47.54C927.907 45.2 930.81 43.2933 933.93 41.82C937.137 40.3467 940.387 39.61 943.68 39.61C947.667 39.61 951.22 40.39 954.34 41.95C957.46 43.4233 960.103 45.59 962.27 48.45C964.437 51.2233 966.083 54.6033 967.21 58.59C968.337 62.5767 968.9 67.04 968.9 71.98C968.9 77.44 968.12 82.3367 966.56 86.67C965.087 90.9167 963.093 94.5133 960.58 97.46C958.067 100.407 955.163 102.66 951.87 104.22C948.577 105.78 945.153 106.56 941.6 106.56ZM938.48 94.21C942.727 94.21 946.28 92.39 949.14 88.75C952 85.0233 953.43 79.52 953.43 72.24C953.43 65.8267 952.347 60.8433 950.18 57.29C948.013 53.7367 944.503 51.96 939.65 51.96C935.143 51.96 930.463 54.3433 925.61 59.11V88.88C927.863 90.8733 930.073 92.26 932.24 93.04C934.493 93.82 936.573 94.21 938.48 94.21ZM998.472 106.56C993.099 106.56 989.329 104.957 987.162 101.75C984.995 98.5433 983.912 94.1667 983.912 88.62V13.22H998.862V89.4C998.862 91.22 999.209 92.52 999.902 93.3C1000.6 93.9933 1001.33 94.34 1002.11 94.34C1002.46 94.34 1002.76 94.34 1003.02 94.34C1003.37 94.34 1003.85 94.2533 1004.45 94.08L1006.4 105.26C1004.41 106.127 1001.77 106.56 998.472 106.56ZM1046.5 106.56C1042.08 106.56 1037.97 105.823 1034.15 104.35C1030.34 102.79 1027 100.58 1024.14 97.72C1021.28 94.86 1019.03 91.3933 1017.38 87.32C1015.82 83.16 1015.04 78.4367 1015.04 73.15C1015.04 67.95 1015.87 63.27 1017.51 59.11C1019.16 54.95 1021.33 51.44 1024.01 48.58C1026.79 45.72 1029.95 43.51 1033.5 41.95C1037.06 40.39 1040.7 39.61 1044.42 39.61C1048.76 39.61 1052.57 40.3467 1055.86 41.82C1059.16 43.2933 1061.89 45.3733 1064.05 48.06C1066.31 50.7467 1068 53.9533 1069.12 57.68C1070.25 61.4067 1070.81 65.48 1070.81 69.9C1070.81 71.3733 1070.73 72.76 1070.55 74.06C1070.47 75.36 1070.34 76.4 1070.16 77.18H1029.6C1030.3 82.9 1032.29 87.32 1035.58 90.44C1038.96 93.4733 1043.25 94.99 1048.45 94.99C1051.23 94.99 1053.78 94.6 1056.12 93.82C1058.55 92.9533 1060.93 91.7833 1063.27 90.31L1068.34 99.67C1065.31 101.663 1061.93 103.31 1058.2 104.61C1054.48 105.91 1050.58 106.56 1046.5 106.56ZM1029.47 67.04H1057.81C1057.81 62.1 1056.73 58.2433 1054.56 55.47C1052.48 52.61 1049.23 51.18 1044.81 51.18C1041 51.18 1037.66 52.5233 1034.8 55.21C1031.94 57.8967 1030.17 61.84 1029.47 67.04Z" fill="#FED136"/>
<path d="M569.821 217V131.98H584.901V204.26H620.261V217H569.821ZM659.425 218.56C655.005 218.56 650.888 217.823 647.075 216.35C643.261 214.79 639.925 212.58 637.065 209.72C634.205 206.86 631.951 203.393 630.305 199.32C628.745 195.16 627.965 190.437 627.965 185.15C627.965 179.95 628.788 175.27 630.435 171.11C632.081 166.95 634.248 163.44 636.935 160.58C639.708 157.72 642.871 155.51 646.425 153.95C649.978 152.39 653.618 151.61 657.345 151.61C661.678 151.61 665.491 152.347 668.785 153.82C672.078 155.293 674.808 157.373 676.975 160.06C679.228 162.747 680.918 165.953 682.045 169.68C683.171 173.407 683.735 177.48 683.735 181.9C683.735 183.373 683.648 184.76 683.475 186.06C683.388 187.36 683.258 188.4 683.085 189.18H642.525C643.218 194.9 645.211 199.32 648.505 202.44C651.885 205.473 656.175 206.99 661.375 206.99C664.148 206.99 666.705 206.6 669.045 205.82C671.471 204.953 673.855 203.783 676.195 202.31L681.265 211.67C678.231 213.663 674.851 215.31 671.125 216.61C667.398 217.91 663.498 218.56 659.425 218.56ZM642.395 179.04H670.735C670.735 174.1 669.651 170.243 667.485 167.47C665.405 164.61 662.155 163.18 657.735 163.18C653.921 163.18 650.585 164.523 647.725 167.21C644.865 169.897 643.088 173.84 642.395 179.04ZM711.96 218.56C706.327 218.56 701.777 216.87 698.31 213.49C694.843 210.023 693.11 205.473 693.11 199.84C693.11 196.46 693.803 193.47 695.19 190.87C696.663 188.183 698.917 185.887 701.95 183.98C705.07 182.073 708.97 180.47 713.65 179.17C718.417 177.87 724.093 176.873 730.68 176.18C730.593 174.533 730.333 172.973 729.9 171.5C729.553 169.94 728.903 168.597 727.95 167.47C727.083 166.257 725.913 165.347 724.44 164.74C722.967 164.047 721.147 163.7 718.98 163.7C715.86 163.7 712.783 164.307 709.75 165.52C706.803 166.733 703.9 168.207 701.04 169.94L695.58 159.93C699.133 157.677 703.12 155.727 707.54 154.08C711.96 152.433 716.727 151.61 721.84 151.61C729.813 151.61 735.75 153.993 739.65 158.76C743.637 163.44 745.63 170.243 745.63 179.17V217H733.28L732.24 209.98H731.72C728.86 212.407 725.783 214.443 722.49 216.09C719.283 217.737 715.773 218.56 711.96 218.56ZM716.77 206.86C719.37 206.86 721.71 206.253 723.79 205.04C725.957 203.827 728.253 202.093 730.68 199.84V185.54C726.347 186.06 722.707 186.753 719.76 187.62C716.813 188.487 714.43 189.483 712.61 190.61C710.79 191.65 709.49 192.863 708.71 194.25C707.93 195.637 707.54 197.11 707.54 198.67C707.54 201.53 708.407 203.61 710.14 204.91C711.873 206.21 714.083 206.86 716.77 206.86ZM763.521 217V153.17H775.871L776.911 164.48H777.431C779.685 160.32 782.415 157.157 785.621 154.99C788.828 152.737 792.121 151.61 795.501 151.61C798.535 151.61 800.961 152.043 802.781 152.91L800.181 165.91C799.055 165.563 798.015 165.303 797.061 165.13C796.108 164.957 794.938 164.87 793.551 164.87C791.038 164.87 788.395 165.867 785.621 167.86C782.848 169.767 780.465 173.147 778.471 178V217H763.521ZM812.017 217V153.17H824.367L825.407 161.75H825.927C828.787 158.977 831.864 156.593 835.157 154.6C838.537 152.607 842.437 151.61 846.857 151.61C853.704 151.61 858.687 153.82 861.807 158.24C864.927 162.573 866.487 168.813 866.487 176.96V217H851.537V178.91C851.537 173.623 850.757 169.897 849.197 167.73C847.637 165.563 845.081 164.48 841.527 164.48C838.754 164.48 836.284 165.173 834.117 166.56C832.037 167.86 829.654 169.81 826.967 172.41V217H812.017ZM884.761 217V153.17H899.711V217H884.761ZM892.301 141.99C889.615 141.99 887.405 141.21 885.671 139.65C883.938 138.09 883.071 136.053 883.071 133.54C883.071 131.027 883.938 128.99 885.671 127.43C887.405 125.783 889.615 124.96 892.301 124.96C894.988 124.96 897.198 125.783 898.931 127.43C900.665 128.99 901.531 131.027 901.531 133.54C901.531 136.053 900.665 138.09 898.931 139.65C897.198 141.21 894.988 141.99 892.301 141.99ZM918.785 217V153.17H931.135L932.175 161.75H932.695C935.555 158.977 938.632 156.593 941.925 154.6C945.305 152.607 949.205 151.61 953.625 151.61C960.472 151.61 965.455 153.82 968.575 158.24C971.695 162.573 973.255 168.813 973.255 176.96V217H958.305V178.91C958.305 173.623 957.525 169.897 955.965 167.73C954.405 165.563 951.848 164.48 948.295 164.48C945.522 164.48 943.052 165.173 940.885 166.56C938.805 167.86 936.422 169.81 933.735 172.41V217H918.785ZM1013.76 245.21C1009.95 245.21 1006.39 244.863 1003.1 244.17C999.892 243.477 997.119 242.437 994.779 241.05C992.439 239.663 990.576 237.93 989.189 235.85C987.889 233.77 987.239 231.343 987.239 228.57C987.239 225.883 988.019 223.37 989.579 221.03C991.139 218.777 993.392 216.74 996.339 214.92V214.4C994.692 213.36 993.306 211.973 992.179 210.24C991.139 208.507 990.619 206.34 990.619 203.74C990.619 201.227 991.312 198.973 992.699 196.98C994.172 194.9 995.819 193.21 997.639 191.91V191.39C995.472 189.743 993.522 187.49 991.789 184.63C990.142 181.683 989.319 178.303 989.319 174.49C989.319 170.85 990.012 167.6 991.399 164.74C992.786 161.88 994.606 159.497 996.859 157.59C999.199 155.597 1001.89 154.123 1004.92 153.17C1007.95 152.13 1011.16 151.61 1014.54 151.61C1016.27 151.61 1017.92 151.783 1019.48 152.13C1021.13 152.39 1022.6 152.737 1023.9 153.17H1046.78V164.22H1035.08C1036.12 165.433 1036.99 166.993 1037.68 168.9C1038.37 170.72 1038.72 172.757 1038.72 175.01C1038.72 178.563 1038.07 181.683 1036.77 184.37C1035.56 187.057 1033.87 189.31 1031.7 191.13C1029.53 192.95 1026.98 194.337 1024.03 195.29C1021.08 196.243 1017.92 196.72 1014.54 196.72C1013.15 196.72 1011.72 196.59 1010.25 196.33C1008.78 196.07 1007.3 195.637 1005.83 195.03C1004.88 195.897 1004.1 196.763 1003.49 197.63C1002.97 198.497 1002.71 199.667 1002.71 201.14C1002.71 202.96 1003.45 204.39 1004.92 205.43C1006.48 206.47 1009.21 206.99 1013.11 206.99H1024.42C1032.13 206.99 1037.94 208.247 1041.84 210.76C1045.83 213.187 1047.82 217.173 1047.82 222.72C1047.82 225.84 1047 228.787 1045.35 231.56C1043.79 234.333 1041.54 236.717 1038.59 238.71C1035.64 240.703 1032.05 242.263 1027.8 243.39C1023.64 244.603 1018.96 245.21 1013.76 245.21ZM1014.54 187.36C1017.57 187.36 1020.17 186.277 1022.34 184.11C1024.51 181.857 1025.59 178.65 1025.59 174.49C1025.59 170.503 1024.51 167.427 1022.34 165.26C1020.26 163.007 1017.66 161.88 1014.54 161.88C1011.42 161.88 1008.78 162.963 1006.61 165.13C1004.44 167.297 1003.36 170.417 1003.36 174.49C1003.36 178.65 1004.44 181.857 1006.61 184.11C1008.78 186.277 1011.42 187.36 1014.54 187.36ZM1016.1 235.46C1021.3 235.46 1025.46 234.42 1028.58 232.34C1031.79 230.347 1033.39 227.963 1033.39 225.19C1033.39 222.677 1032.39 220.987 1030.4 220.12C1028.49 219.253 1025.72 218.82 1022.08 218.82H1013.37C1009.9 218.82 1007 218.517 1004.66 217.91C1001.37 220.423 999.719 223.24 999.719 226.36C999.719 229.22 1001.15 231.43 1004.01 232.99C1006.96 234.637 1010.99 235.46 1016.1 235.46Z" fill="#FED136"/>
<path d="M569.821 329V243.98H584.901V316.26H620.261V329H569.821ZM649.245 330.56C643.612 330.56 639.062 328.87 635.595 325.49C632.128 322.023 630.395 317.473 630.395 311.84C630.395 308.46 631.088 305.47 632.475 302.87C633.948 300.183 636.202 297.887 639.235 295.98C642.355 294.073 646.255 292.47 650.935 291.17C655.702 289.87 661.378 288.873 667.965 288.18C667.878 286.533 667.618 284.973 667.185 283.5C666.838 281.94 666.188 280.597 665.235 279.47C664.368 278.257 663.198 277.347 661.725 276.74C660.252 276.047 658.432 275.7 656.265 275.7C653.145 275.7 650.068 276.307 647.035 277.52C644.088 278.733 641.185 280.207 638.325 281.94L632.865 271.93C636.418 269.677 640.405 267.727 644.825 266.08C649.245 264.433 654.012 263.61 659.125 263.61C667.098 263.61 673.035 265.993 676.935 270.76C680.922 275.44 682.915 282.243 682.915 291.17V329H670.565L669.525 321.98H669.005C666.145 324.407 663.068 326.443 659.775 328.09C656.568 329.737 653.058 330.56 649.245 330.56ZM654.055 318.86C656.655 318.86 658.995 318.253 661.075 317.04C663.242 315.827 665.538 314.093 667.965 311.84V297.54C663.632 298.06 659.992 298.753 657.045 299.62C654.098 300.487 651.715 301.483 649.895 302.61C648.075 303.65 646.775 304.863 645.995 306.25C645.215 307.637 644.825 309.11 644.825 310.67C644.825 313.53 645.692 315.61 647.425 316.91C649.158 318.21 651.368 318.86 654.055 318.86ZM731.746 330.56C728.8 330.56 725.81 329.867 722.776 328.48C719.83 327.007 717.013 324.927 714.326 322.24H713.936L712.636 329H700.806V237.22H715.756V260.88L715.366 271.54C718.053 269.2 720.956 267.293 724.076 265.82C727.283 264.347 730.533 263.61 733.826 263.61C737.813 263.61 741.366 264.39 744.486 265.95C747.606 267.423 750.25 269.59 752.416 272.45C754.583 275.223 756.23 278.603 757.356 282.59C758.483 286.577 759.046 291.04 759.046 295.98C759.046 301.44 758.266 306.337 756.706 310.67C755.233 314.917 753.24 318.513 750.726 321.46C748.213 324.407 745.31 326.66 742.016 328.22C738.723 329.78 735.3 330.56 731.746 330.56ZM728.626 318.21C732.873 318.21 736.426 316.39 739.286 312.75C742.146 309.023 743.576 303.52 743.576 296.24C743.576 289.827 742.493 284.843 740.326 281.29C738.16 277.737 734.65 275.96 729.796 275.96C725.29 275.96 720.61 278.343 715.756 283.11V312.88C718.01 314.873 720.22 316.26 722.386 317.04C724.64 317.82 726.72 318.21 728.626 318.21ZM791.361 330.56C786.941 330.56 782.564 329.737 778.231 328.09C773.984 326.357 770.301 324.233 767.181 321.72L774.201 312.1C777.061 314.353 779.877 316.13 782.651 317.43C785.511 318.643 788.587 319.25 791.881 319.25C795.347 319.25 797.904 318.557 799.551 317.17C801.197 315.697 802.021 313.833 802.021 311.58C802.021 310.28 801.631 309.153 800.851 308.2C800.071 307.16 799.031 306.25 797.731 305.47C796.431 304.69 794.957 303.997 793.311 303.39C791.664 302.697 790.017 302.003 788.371 301.31C786.291 300.53 784.167 299.62 782.001 298.58C779.834 297.54 777.884 296.283 776.151 294.81C774.504 293.337 773.117 291.647 771.991 289.74C770.951 287.747 770.431 285.407 770.431 282.72C770.431 277.087 772.511 272.493 776.671 268.94C780.831 265.387 786.507 263.61 793.701 263.61C798.121 263.61 802.107 264.39 805.661 265.95C809.214 267.51 812.291 269.287 814.891 271.28L808.001 280.38C805.747 278.733 803.451 277.433 801.111 276.48C798.857 275.44 796.474 274.92 793.961 274.92C790.754 274.92 788.371 275.613 786.811 277C785.337 278.3 784.601 279.947 784.601 281.94C784.601 283.24 784.947 284.367 785.641 285.32C786.421 286.187 787.417 286.967 788.631 287.66C789.844 288.353 791.231 289.003 792.791 289.61C794.437 290.217 796.127 290.823 797.861 291.43C800.027 292.21 802.194 293.12 804.361 294.16C806.527 295.113 808.477 296.327 810.211 297.8C812.031 299.273 813.461 301.093 814.501 303.26C815.627 305.34 816.191 307.853 816.191 310.8C816.191 313.573 815.627 316.173 814.501 318.6C813.461 320.94 811.901 323.02 809.821 324.84C807.741 326.573 805.141 327.96 802.021 329C798.901 330.04 795.347 330.56 791.361 330.56ZM821.607 346.29V337.32H883.487V346.29H821.607Z" fill="#FED136"/>
<rect x="438.031" y="17" width="30" height="15" fill="#050505"/>
<rect x="481.031" y="17" width="30" height="15" fill="#050505"/>
<defs>
<filter id="filter0_d" x="115.187" y="105.5" width="391.143" height="171.5" filterUnits="userSpaceOnUse" color-interpolation-filters="sRGB">
<feFlood flood-opacity="0" result="BackgroundImageFix"/>
<feColorMatrix in="SourceAlpha" type="matrix" values="0 0 0 0 0 0 0 0 0 0 0 0 0 0 0 0 0 0 127 0"/>
<feOffset dy="4"/>
<feGaussianBlur stdDeviation="2"/>
<feColorMatrix type="matrix" values="0 0 0 0 0 0 0 0 0 0 0 0 0 0 0 0 0 0 0.25 0"/>
<feBlend mode="normal" in2="BackgroundImageFix" result="effect1_dropShadow"/>
<feBlend mode="normal" in="SourceGraphic" in2="effect1_dropShadow" result="shape"/>
</filter>
<filter id="filter1_d" x="42.5" y="137.625" width="83.875" height="127.25" filterUnits="userSpaceOnUse" color-interpolation-filters="sRGB">
<feFlood flood-opacity="0" result="BackgroundImageFix"/>
<feColorMatrix in="SourceAlpha" type="matrix" values="0 0 0 0 0 0 0 0 0 0 0 0 0 0 0 0 0 0 127 0"/>
<feOffset dy="4"/>
<feGaussianBlur stdDeviation="2"/>
<feColorMatrix type="matrix" values="0 0 0 0 0 0 0 0 0 0 0 0 0 0 0 0 0 0 0.25 0"/>
<feBlend mode="normal" in2="BackgroundImageFix" result="effect1_dropShadow"/>
<feBlend mode="normal" in="SourceGraphic" in2="effect1_dropShadow" result="shape"/>
</filter>
</defs>
</svg>
