<?xml version="1.0" encoding="utf-8"?>
<!-- Generator: Adobe Illustrator 15.1.0, SVG Export Plug-In . SVG Version: 6.00 Build 0)  -->
<!DOCTYPE svg PUBLIC "-//W3C//DTD SVG 1.1//EN" "http://www.w3.org/Graphics/SVG/1.1/DTD/svg11.dtd">
<svg version="1.1" id="Layer_1" xmlns="http://www.w3.org/2000/svg" x="0px"
     y="0px"
     width="128px" height="128px" viewBox="0 0 128 128" enable-background="new 0 0 128 128" xml:space="preserve">
<g>
	<circle fill="#E65A2E" cx="64" cy="64" r="64"/>
    <path fill="#CC5028" d="M120.471,94.125c-0.072-0.184-0.146-0.365-0.222-0.548c-0.078-0.193-0.153-0.386-0.233-0.579
		c-0.084-0.21-0.168-0.419-0.254-0.629c-0.08-0.199-0.16-0.398-0.242-0.6c-0.082-0.205-0.164-0.408-0.248-0.613
		c-0.082-0.205-0.164-0.409-0.248-0.614c-0.084-0.21-0.168-0.419-0.254-0.629c-0.08-0.199-0.16-0.399-0.242-0.599
		c-0.082-0.205-0.164-0.409-0.248-0.614c-0.082-0.205-0.163-0.409-0.248-0.614c-0.084-0.21-0.168-0.419-0.254-0.629
		c-0.08-0.199-0.159-0.398-0.242-0.6c-0.082-0.205-0.163-0.408-0.248-0.613c-0.082-0.205-0.163-0.409-0.248-0.614
		c-0.082-0.205-0.163-0.409-0.248-0.614c-0.084-0.209-0.167-0.418-0.254-0.629c-0.08-0.199-0.159-0.397-0.242-0.599
		c-0.082-0.205-0.163-0.409-0.248-0.614c-0.082-0.205-0.163-0.408-0.248-0.613c-0.084-0.211-0.167-0.42-0.254-0.629
		c-0.08-0.199-0.159-0.399-0.242-0.6c-0.082-0.205-0.162-0.409-0.248-0.614c-0.082-0.204-0.162-0.409-0.248-0.614
		c-0.084-0.209-0.166-0.418-0.254-0.629c-0.08-0.199-0.158-0.397-0.242-0.599c-0.086-0.217-0.172-0.433-0.263-0.649
		c-0.078-0.192-0.153-0.386-0.233-0.578c-0.082-0.205-0.164-0.409-0.248-0.614c-0.084-0.21-0.168-0.419-0.254-0.629
		c-0.08-0.199-0.16-0.398-0.242-0.599c-0.082-0.205-0.163-0.41-0.248-0.615c-0.082-0.204-0.163-0.408-0.248-0.613
		c-0.084-0.21-0.168-0.419-0.254-0.629c-0.08-0.199-0.159-0.399-0.242-0.6c-0.082-0.205-0.163-0.408-0.248-0.613
		c-0.082-0.205-0.163-0.409-0.248-0.614c-0.084-0.21-0.167-0.419-0.254-0.629c-0.08-0.199-0.159-0.397-0.242-0.599
		c-0.082-0.205-0.163-0.41-0.248-0.614c-0.082-0.205-0.163-0.409-0.248-0.614c-0.082-0.205-0.163-0.409-0.248-0.613
		c-0.084-0.211-0.167-0.42-0.254-0.63c-0.08-0.198-0.158-0.397-0.242-0.599c-0.082-0.205-0.162-0.409-0.248-0.614
		c-0.082-0.205-0.162-0.409-0.248-0.614c-0.084-0.209-0.166-0.418-0.254-0.629c-0.08-0.199-0.158-0.398-0.242-0.599
		c-0.082-0.205-0.162-0.409-0.248-0.614c-0.082-0.206-0.164-0.41-0.248-0.617s-0.166-0.412-0.252-0.619
		c-0.086-0.215-0.17-0.43-0.26-0.644c-0.078-0.192-0.152-0.384-0.232-0.576c-0.084-0.206-0.164-0.411-0.25-0.616
		c-0.082-0.205-0.161-0.408-0.246-0.611c-0.084-0.208-0.166-0.415-0.252-0.623c-0.081-0.203-0.161-0.405-0.245-0.607
		c-0.082-0.203-0.162-0.406-0.247-0.611c-0.083-0.205-0.164-0.41-0.249-0.616c-0.083-0.207-0.165-0.413-0.251-0.62
		c-0.081-0.203-0.161-0.405-0.245-0.607c-0.082-0.203-0.162-0.406-0.247-0.611c-0.083-0.205-0.164-0.41-0.249-0.616
		c-0.083-0.207-0.165-0.413-0.251-0.62c-0.081-0.203-0.161-0.405-0.245-0.607c-0.081-0.203-0.161-0.406-0.247-0.61
		c-0.082-0.206-0.164-0.411-0.248-0.617c-0.082-0.204-0.162-0.407-0.248-0.611c-0.084-0.208-0.166-0.415-0.252-0.622
		c-0.08-0.203-0.16-0.406-0.244-0.607c-0.082-0.204-0.162-0.407-0.248-0.611c-0.082-0.206-0.164-0.411-0.248-0.617
		c-0.084-0.207-0.166-0.412-0.252-0.619c-0.08-0.203-0.16-0.406-0.244-0.608c-0.082-0.203-0.162-0.406-0.248-0.611
		c-0.082-0.205-0.163-0.41-0.248-0.616c-0.088-0.218-0.174-0.435-0.264-0.651c-0.078-0.193-0.156-0.387-0.234-0.58
		c-0.082-0.203-0.162-0.404-0.246-0.607c-0.083-0.207-0.165-0.413-0.25-0.62c-0.082-0.204-0.163-0.407-0.247-0.611
		c-0.082-0.204-0.163-0.407-0.247-0.611c-0.083-0.207-0.165-0.413-0.25-0.62c-0.082-0.203-0.162-0.404-0.246-0.607
		c-0.083-0.207-0.165-0.413-0.25-0.62c-0.082-0.204-0.163-0.407-0.247-0.611c-0.083-0.206-0.164-0.411-0.249-0.617
		c-0.082-0.202-0.162-0.405-0.246-0.608c-2.115-5.252-4.945-10.619-8.729-15.808c-0.695-0.954-1.98-1.273-3.042-0.738
		C80.186,27.743,75.382,34.483,73,39c-0.746-0.604-1.549-1.105-2.395-1.525c-0.01-0.006-0.021-0.01-0.029-0.015
		c-0.344-0.17-0.693-0.325-1.053-0.466c-0.088-0.034-0.174-0.066-0.262-0.1c-0.25-0.092-0.505-0.176-0.764-0.254
		c-0.178-0.055-0.354-0.105-0.53-0.15c-0.163-0.043-0.329-0.082-0.497-0.119c-0.258-0.057-0.51-0.107-0.76-0.148
		c-0.115-0.02-0.23-0.037-0.348-0.055c-0.305-0.043-0.602-0.076-0.893-0.1c-0.097-0.009-0.191-0.019-0.289-0.025
		C64.775,36.016,64.377,36,64,36c-0.512,0-1.008,0.027-1.499,0.07H62.5c-2.863,0.25-5.389,1.221-7.5,2.93
		c-3-6-7.888-11.607-14.157-14.741c-0.191-0.097-0.391-0.155-0.592-0.198c-0.038-0.008-0.075-0.016-0.112-0.021
		c-0.204-0.033-0.408-0.043-0.61-0.023c-0.007,0.002-0.014,0.003-0.021,0.004c-0.664,0.07-1.292,0.407-1.707,0.978
		C24.74,42.909,23,62.953,23,73c0,3.123,0.625,6.064,1.73,8.811c0.077,0.207,0.166,0.408,0.248,0.613
		c0.078,0.208,0.167,0.411,0.25,0.617c0.077,0.206,0.165,0.406,0.247,0.609c0.078,0.209,0.167,0.412,0.25,0.617
		c0.077,0.207,0.166,0.409,0.248,0.613c0.077,0.206,0.165,0.408,0.247,0.612c0.078,0.208,0.167,0.411,0.25,0.616
		c0.077,0.207,0.165,0.406,0.247,0.61c0.077,0.207,0.166,0.409,0.248,0.614c0.077,0.207,0.166,0.409,0.248,0.614
		c0.078,0.208,0.167,0.411,0.25,0.616c0.077,0.207,0.165,0.408,0.247,0.61c0.077,0.207,0.166,0.409,0.248,0.614
		c0.077,0.207,0.166,0.408,0.248,0.613c0.078,0.209,0.167,0.412,0.25,0.617c0.077,0.207,0.165,0.406,0.247,0.61
		c0.078,0.208,0.167,0.411,0.25,0.617c0.077,0.206,0.165,0.407,0.247,0.61c0.078,0.209,0.167,0.414,0.25,0.619
		c0.077,0.205,0.165,0.405,0.246,0.608c0.077,0.207,0.166,0.409,0.248,0.614c0.077,0.207,0.166,0.408,0.248,0.613
		c0.077,0.207,0.166,0.41,0.248,0.614c0.078,0.208,0.167,0.411,0.25,0.617c0.077,0.206,0.165,0.407,0.247,0.61
		c0.077,0.207,0.166,0.408,0.248,0.613c0.077,0.207,0.166,0.409,0.248,0.614c0.078,0.208,0.167,0.411,0.25,0.617
		c0.077,0.206,0.165,0.405,0.247,0.61c0.078,0.207,0.167,0.41,0.25,0.617c0.077,0.205,0.165,0.406,0.247,0.61
		c0.078,0.209,0.167,0.413,0.25,0.619c0.077,0.205,0.165,0.405,0.246,0.608c0.077,0.207,0.166,0.408,0.248,0.613
		c0.077,0.207,0.166,0.409,0.248,0.614c0.077,0.207,0.166,0.409,0.248,0.614c0.078,0.207,0.167,0.41,0.25,0.617
		c0.077,0.205,0.165,0.406,0.247,0.609c0.077,0.207,0.166,0.409,0.248,0.614c0.077,0.207,0.166,0.409,0.248,0.614
		c0.078,0.207,0.167,0.41,0.25,0.617c0.077,0.207,0.166,0.408,0.248,0.612c0.077,0.206,0.165,0.407,0.247,0.611
		c0.077,0.207,0.166,0.409,0.248,0.614c0.078,0.207,0.167,0.41,0.25,0.617c0.077,0.207,0.165,0.407,0.248,0.611
		c0.077,0.206,0.165,0.408,0.247,0.611c0.077,0.207,0.166,0.41,0.248,0.615c0.077,0.207,0.166,0.408,0.248,0.613
		c0.078,0.208,0.167,0.411,0.25,0.617c0.077,0.206,0.165,0.407,0.247,0.609c0.077,0.207,0.166,0.41,0.248,0.615
		c0.077,0.207,0.166,0.408,0.248,0.613c0.078,0.208,0.167,0.411,0.25,0.617c0.077,0.207,0.166,0.408,0.248,0.613
		c0.077,0.205,0.165,0.406,0.247,0.611c0.077,0.206,0.166,0.408,0.248,0.613c0.077,0.208,0.167,0.411,0.25,0.617
		c0.077,0.206,0.165,0.406,0.247,0.609c0.077,0.209,0.166,0.412,0.249,0.616c0.077,0.206,0.165,0.408,0.247,0.612
		c0.077,0.207,0.166,0.409,0.248,0.613c0.078,0.209,0.167,0.412,0.25,0.617c0.077,0.207,0.165,0.407,0.247,0.61
		c0.077,0.207,0.166,0.409,0.248,0.614c0.077,0.207,0.166,0.408,0.248,0.613c0.078,0.209,0.167,0.414,0.251,0.621
		c0.076,0.205,0.164,0.404,0.246,0.606c0.06,0.159,0.126,0.315,0.191,0.474C48.71,126.598,56.189,128,64,128
		C88.453,128,109.695,114.281,120.471,94.125z"/>
    <path fill="#263740" d="M64,104c-19.492,0-41-12.428-41-31c0-10.047,1.74-30.091,14.801-48.003
		c0.693-0.954,1.981-1.273,3.042-0.738C47.814,27.743,52.618,34.483,55,39c2.475-2.002,5.512-3,9-3s6.525,0.998,9,3
		c2.382-4.517,7.186-11.257,14.157-14.741c1.061-0.535,2.347-0.216,3.042,0.738C103.26,42.909,105,62.953,105,73
		C105,91.572,83.493,104,64,104z"/>
    <path fill="#1F2C33" d="M90.199,24.997c-0.695-0.954-1.981-1.273-3.042-0.738c-0.154,0.077-0.302,0.164-0.453,0.244
		c0.183,0.14,0.354,0.3,0.495,0.494C100.26,42.909,102,62.953,102,73c0,18.098-20.42,30.354-39.5,30.971
		C63.001,103.986,63.501,104,64,104c19.493,0,41-12.428,41-31C105,62.953,103.26,42.909,90.199,24.997z"/>
    <path fill="#446373" d="M28.752,88.622C36.454,98.205,50.693,104,64,104s27.547-5.795,35.248-15.378C97.184,76.448,82.193,67,64,67
		C45.806,67,30.818,76.447,28.752,88.622z"/>
    <path fill="#3C5866" d="M66.893,103.9c0.578-0.034,1.156-0.08,1.736-0.137c0.194-0.021,0.391-0.035,0.584-0.058
		c0.754-0.083,1.508-0.181,2.26-0.297c0.102-0.017,0.201-0.036,0.303-0.052c0.658-0.107,1.316-0.229,1.973-0.36
		c0.204-0.041,0.408-0.085,0.611-0.129c0.627-0.136,1.254-0.28,1.875-0.438c0.129-0.031,0.258-0.062,0.385-0.095
		c0.756-0.199,1.508-0.414,2.253-0.646c0.116-0.037,0.233-0.078,0.351-0.114c0.635-0.202,1.264-0.417,1.889-0.644
		c0.16-0.06,0.322-0.117,0.481-0.178c1.474-0.552,2.914-1.168,4.312-1.85c0.103-0.049,0.201-0.102,0.303-0.15
		c0.617-0.306,1.225-0.624,1.822-0.955c0.102-0.057,0.205-0.111,0.307-0.169c1.364-0.769,2.676-1.601,3.923-2.491
		c0.082-0.059,0.163-0.119,0.244-0.178c0.574-0.417,1.136-0.846,1.679-1.288c0.045-0.037,0.092-0.073,0.137-0.108
		c1.183-0.971,2.287-2.002,3.31-3.086c0.067-0.072,0.136-0.146,0.203-0.22c0.491-0.53,0.966-1.073,1.414-1.631
		c0.002-0.002,0.004-0.005,0.006-0.007c-0.179-1.055-0.461-2.085-0.827-3.094c-6.658,10.99-21.572,17.934-35.777,18.436
		C63.096,103.977,63.549,104,64,104c0.746,0,1.497-0.023,2.248-0.061C66.462,103.93,66.677,103.915,66.893,103.9z"/>
    <path fill="#1F2C33" d="M72.104,40.125C72.346,39.67,72.563,39.416,73,39c-3.208-2.521-6.482-3-9-3c-0.512,0-1.009,0.028-1.5,0.07
		C65.363,36.32,69.993,38.416,72.104,40.125z"/>
    <path fill="#1F2C33" d="M53,40c0.689-0.558,1.227-0.598,2-1c-3-6-7.888-11.607-14.157-14.741c-0.845-0.427-1.829-0.303-2.547,0.244
		C45.02,28.049,50.671,35.583,53,40z"/>
    <circle fill="#FFD464" cx="52.152" cy="60" r="4.848"/>
    <circle fill="#242424" cx="52.152" cy="60" r="2.424"/>
    <circle fill="#FFD464" cx="74.848" cy="60" r="4.848"/>
    <circle fill="#242424" cx="74.848" cy="60" r="2.424"/>
    <g>
		<path fill="#242424" d="M52,76c-0.1,0-0.199-0.016-0.298-0.046l-16-5c-0.527-0.164-0.821-0.726-0.656-1.252
			c0.165-0.528,0.729-0.82,1.253-0.656l16,5c0.527,0.164,0.821,0.726,0.656,1.252C52.82,75.727,52.426,76,52,76z"/>
        <path fill="#242424" d="M52,83c-0.1,0-0.199-0.016-0.298-0.046l-16-5c-0.527-0.164-0.821-0.726-0.656-1.252
			c0.165-0.528,0.729-0.82,1.253-0.656l16,5c0.527,0.164,0.821,0.726,0.656,1.252C52.82,82.727,52.426,83,52,83z"/>
	</g>
    <g>
		<path fill="#242424" d="M78.999,76c0.099,0,0.199-0.016,0.298-0.046l16.001-5c0.526-0.164,0.82-0.726,0.656-1.252
			c-0.165-0.528-0.729-0.82-1.253-0.656l-16,5c-0.527,0.164-0.821,0.726-0.656,1.252C78.18,75.727,78.573,76,78.999,76z"/>
        <path fill="#242424" d="M78.999,83c0.099,0,0.199-0.016,0.298-0.046l16.001-5c0.526-0.164,0.82-0.726,0.656-1.252
			c-0.165-0.528-0.729-0.82-1.253-0.656l-16,5c-0.527,0.164-0.821,0.726-0.656,1.252C78.18,82.727,78.573,83,78.999,83z"/>
	</g>
    <path fill="#446373" d="M51.055,40.121c-1.467-2.6-5.157-8.322-10.823-11.645c-4.54,6.507-7.553,13.316-9.543,19.77
		C37.385,43.575,44.739,41.264,51.055,40.121z"/>
    <path fill="#446373" d="M76.635,40.121c1.467-2.6,5.155-8.322,10.821-11.645c4.54,6.507,7.554,13.316,9.544,19.77
		C90.305,43.575,82.95,41.264,76.635,40.121z"/>
    <path fill="#242424" d="M71.295,70.76c-0.206-0.462-0.664-0.76-1.17-0.76H64h-6.125c-0.506,0-0.964,0.298-1.17,0.76
		c-0.205,0.463-0.12,1.001,0.219,1.377l5.904,6.563l-4.537,4.564c-0.391,0.393-0.389,1.025,0.004,1.414
		c0.393,0.391,1.025,0.387,1.414-0.004L64,80.355l4.291,4.317c0.195,0.196,0.452,0.295,0.709,0.295c0.255,0,0.51-0.097,0.705-0.291
		c0.393-0.389,0.395-1.022,0.004-1.413l-4.537-4.565l5.904-6.563C71.415,71.761,71.5,71.223,71.295,70.76z"/>
</g>
</svg>
