<svg width="1101" height="350" viewBox="0 0 1101 350" fill="none" xmlns="http://www.w3.org/2000/svg">
<g clip-path="url(#clip0)">
<path d="M0.216492 27.6471C0.216492 22.1242 4.69364 17.6471 10.2165 17.6471H554.217C559.739 17.6471 564.216 22.1242 564.216 27.6471V340C564.216 345.523 559.739 350 554.216 350H10.2165C4.69363 350 0.216492 345.523 0.216492 340V27.6471Z" fill="#050505"/>
<g filter="url(#filter0_d)">
<path d="M52.74 266.875L36.49 250.625L80.74 207.25L36.49 163.875L52.74 147.625L112.365 207.25L52.74 266.875ZM201.711 199L195.961 219H237.711L231.961 199C229.294 190.333 226.711 181.417 224.211 172.25C221.877 163.083 219.544 154 217.211 145H216.211C213.877 154.167 211.544 163.333 209.211 172.5C206.877 181.5 204.377 190.333 201.711 199ZM146.961 286L200.211 122.5H234.211L287.461 286H256.961L244.211 241.75H189.211L176.461 286H146.961ZM307.615 286V122.5H336.615V261.5H404.615V286H307.615ZM433.103 286V122.5H462.103V261.5H530.103V286H433.103Z" fill="#FED136"/>
</g>
<path d="M0 10C0 4.47715 4.47715 0 10 0H555.01C560.533 0 565.01 4.47715 565.01 10V63H0V10Z" fill="#C4C4C4"/>
<ellipse cx="135.723" cy="33.5" rx="18.7317" ry="19.5" fill="#FED136"/>
<ellipse cx="85.7716" cy="33.5" rx="18.7317" ry="19.5" fill="#FED136"/>
<ellipse cx="35.82" cy="33.5" rx="18.7317" ry="19.5" fill="#FED136"/>
<path d="M602.109 95.56C596.475 95.56 591.925 93.87 588.459 90.49C584.992 87.0233 583.259 82.4733 583.259 76.84C583.259 73.46 583.952 70.47 585.339 67.87C586.812 65.1833 589.065 62.8867 592.099 60.98C595.219 59.0733 599.119 57.47 603.799 56.17C608.565 54.87 614.242 53.8733 620.829 53.18C620.742 51.5333 620.482 49.9733 620.049 48.5C619.702 46.94 619.052 45.5967 618.099 44.47C617.232 43.2567 616.062 42.3467 614.589 41.74C613.115 41.0467 611.295 40.7 609.129 40.7C606.009 40.7 602.932 41.3067 599.899 42.52C596.952 43.7333 594.049 45.2067 591.189 46.94L585.729 36.93C589.282 34.6767 593.269 32.7267 597.689 31.08C602.109 29.4333 606.875 28.61 611.989 28.61C619.962 28.61 625.899 30.9933 629.799 35.76C633.785 40.44 635.779 47.2433 635.779 56.17V94H623.429L622.389 86.98H621.869C619.009 89.4067 615.932 91.4433 612.639 93.09C609.432 94.7367 605.922 95.56 602.109 95.56ZM606.919 83.86C609.519 83.86 611.859 83.2533 613.939 82.04C616.105 80.8267 618.402 79.0933 620.829 76.84V62.54C616.495 63.06 612.855 63.7533 609.909 64.62C606.962 65.4867 604.579 66.4833 602.759 67.61C600.939 68.65 599.639 69.8633 598.859 71.25C598.079 72.6367 597.689 74.11 597.689 75.67C597.689 78.53 598.555 80.61 600.289 81.91C602.022 83.21 604.232 83.86 606.919 83.86ZM680.32 95.56C675.987 95.56 671.913 94.8233 668.1 93.35C664.373 91.8767 661.123 89.71 658.35 86.85C655.577 83.99 653.41 80.48 651.85 76.32C650.29 72.16 649.51 67.4367 649.51 62.15C649.51 56.8633 650.377 52.14 652.11 47.98C653.843 43.82 656.183 40.31 659.13 37.45C662.077 34.59 665.457 32.4233 669.27 30.95C673.17 29.39 677.243 28.61 681.49 28.61C685.65 28.61 689.203 29.3033 692.15 30.69C695.183 32.0767 697.87 33.7667 700.21 35.76L692.93 45.51C691.197 44.0367 689.463 42.91 687.73 42.13C686.083 41.2633 684.263 40.83 682.27 40.83C677.07 40.83 672.867 42.78 669.66 46.68C666.453 50.4933 664.85 55.65 664.85 62.15C664.85 68.5633 666.41 73.72 669.53 77.62C672.737 81.4333 676.853 83.34 681.88 83.34C684.393 83.34 686.733 82.82 688.9 81.78C691.153 80.6533 693.19 79.3533 695.01 77.88L701.12 87.76C698.087 90.36 694.75 92.31 691.11 93.61C687.557 94.91 683.96 95.56 680.32 95.56ZM737.195 95.56C732.862 95.56 728.788 94.8233 724.975 93.35C721.248 91.8767 717.998 89.71 715.225 86.85C712.452 83.99 710.285 80.48 708.725 76.32C707.165 72.16 706.385 67.4367 706.385 62.15C706.385 56.8633 707.252 52.14 708.985 47.98C710.718 43.82 713.058 40.31 716.005 37.45C718.952 34.59 722.332 32.4233 726.145 30.95C730.045 29.39 734.118 28.61 738.365 28.61C742.525 28.61 746.078 29.3033 749.025 30.69C752.058 32.0767 754.745 33.7667 757.085 35.76L749.805 45.51C748.072 44.0367 746.338 42.91 744.605 42.13C742.958 41.2633 741.138 40.83 739.145 40.83C733.945 40.83 729.742 42.78 726.535 46.68C723.328 50.4933 721.725 55.65 721.725 62.15C721.725 68.5633 723.285 73.72 726.405 77.62C729.612 81.4333 733.728 83.34 738.755 83.34C741.268 83.34 743.608 82.82 745.775 81.78C748.028 80.6533 750.065 79.3533 751.885 77.88L757.995 87.76C754.962 90.36 751.625 92.31 747.985 93.61C744.432 94.91 740.835 95.56 737.195 95.56ZM794.72 95.56C790.3 95.56 786.183 94.8233 782.37 93.35C778.557 91.79 775.22 89.58 772.36 86.72C769.5 83.86 767.247 80.3933 765.6 76.32C764.04 72.16 763.26 67.4367 763.26 62.15C763.26 56.95 764.083 52.27 765.73 48.11C767.377 43.95 769.543 40.44 772.23 37.58C775.003 34.72 778.167 32.51 781.72 30.95C785.273 29.39 788.913 28.61 792.64 28.61C796.973 28.61 800.787 29.3467 804.08 30.82C807.373 32.2933 810.103 34.3733 812.27 37.06C814.523 39.7467 816.213 42.9533 817.34 46.68C818.467 50.4067 819.03 54.48 819.03 58.9C819.03 60.3733 818.943 61.76 818.77 63.06C818.683 64.36 818.553 65.4 818.38 66.18H777.82C778.513 71.9 780.507 76.32 783.8 79.44C787.18 82.4733 791.47 83.99 796.67 83.99C799.443 83.99 802 83.6 804.34 82.82C806.767 81.9533 809.15 80.7833 811.49 79.31L816.56 88.67C813.527 90.6633 810.147 92.31 806.42 93.61C802.693 94.91 798.793 95.56 794.72 95.56ZM777.69 56.04H806.03C806.03 51.1 804.947 47.2433 802.78 44.47C800.7 41.61 797.45 40.18 793.03 40.18C789.217 40.18 785.88 41.5233 783.02 44.21C780.16 46.8967 778.383 50.84 777.69 56.04ZM851.119 95.56C846.699 95.56 842.322 94.7367 837.989 93.09C833.742 91.3567 830.059 89.2333 826.939 86.72L833.959 77.1C836.819 79.3533 839.635 81.13 842.409 82.43C845.269 83.6433 848.345 84.25 851.639 84.25C855.105 84.25 857.662 83.5567 859.309 82.17C860.955 80.6967 861.779 78.8333 861.779 76.58C861.779 75.28 861.389 74.1533 860.609 73.2C859.829 72.16 858.789 71.25 857.489 70.47C856.189 69.69 854.715 68.9967 853.069 68.39C851.422 67.6967 849.775 67.0033 848.129 66.31C846.049 65.53 843.925 64.62 841.759 63.58C839.592 62.54 837.642 61.2833 835.909 59.81C834.262 58.3367 832.875 56.6467 831.749 54.74C830.709 52.7467 830.189 50.4067 830.189 47.72C830.189 42.0867 832.269 37.4933 836.429 33.94C840.589 30.3867 846.265 28.61 853.459 28.61C857.879 28.61 861.865 29.39 865.419 30.95C868.972 32.51 872.049 34.2867 874.649 36.28L867.759 45.38C865.505 43.7333 863.209 42.4333 860.869 41.48C858.615 40.44 856.232 39.92 853.719 39.92C850.512 39.92 848.129 40.6133 846.569 42C845.095 43.3 844.359 44.9467 844.359 46.94C844.359 48.24 844.705 49.3667 845.399 50.32C846.179 51.1867 847.175 51.9667 848.389 52.66C849.602 53.3533 850.989 54.0033 852.549 54.61C854.195 55.2167 855.885 55.8233 857.619 56.43C859.785 57.21 861.952 58.12 864.119 59.16C866.285 60.1133 868.235 61.3267 869.969 62.8C871.789 64.2733 873.219 66.0933 874.259 68.26C875.385 70.34 875.949 72.8533 875.949 75.8C875.949 78.5733 875.385 81.1733 874.259 83.6C873.219 85.94 871.659 88.02 869.579 89.84C867.499 91.5733 864.899 92.96 861.779 94C858.659 95.04 855.105 95.56 851.119 95.56ZM889.295 94V30.17H904.245V94H889.295ZM896.835 18.99C894.148 18.99 891.938 18.21 890.205 16.65C888.472 15.09 887.605 13.0533 887.605 10.54C887.605 8.02667 888.472 5.99 890.205 4.43C891.938 2.78333 894.148 1.96 896.835 1.96C899.522 1.96 901.732 2.78333 903.465 4.43C905.198 5.99 906.065 8.02667 906.065 10.54C906.065 13.0533 905.198 15.09 903.465 16.65C901.732 18.21 899.522 18.99 896.835 18.99ZM954.258 95.56C951.312 95.56 948.322 94.8667 945.288 93.48C942.342 92.0067 939.525 89.9267 936.838 87.24H936.448L935.148 94H923.318V2.22H938.268V25.88L937.878 36.54C940.565 34.2 943.468 32.2933 946.588 30.82C949.795 29.3467 953.045 28.61 956.338 28.61C960.325 28.61 963.878 29.39 966.998 30.95C970.118 32.4233 972.762 34.59 974.928 37.45C977.095 40.2233 978.742 43.6033 979.868 47.59C980.995 51.5767 981.558 56.04 981.558 60.98C981.558 66.44 980.778 71.3367 979.218 75.67C977.745 79.9167 975.752 83.5133 973.238 86.46C970.725 89.4067 967.822 91.66 964.528 93.22C961.235 94.78 957.812 95.56 954.258 95.56ZM951.138 83.21C955.385 83.21 958.938 81.39 961.798 77.75C964.658 74.0233 966.088 68.52 966.088 61.24C966.088 54.8267 965.005 49.8433 962.838 46.29C960.672 42.7367 957.162 40.96 952.308 40.96C947.802 40.96 943.122 43.3433 938.268 48.11V77.88C940.522 79.8733 942.732 81.26 944.898 82.04C947.152 82.82 949.232 83.21 951.138 83.21ZM1011.13 95.56C1005.76 95.56 1001.99 93.9567 999.82 90.75C997.654 87.5433 996.57 83.1667 996.57 77.62V2.22H1011.52V78.4C1011.52 80.22 1011.87 81.52 1012.56 82.3C1013.25 82.9933 1013.99 83.34 1014.77 83.34C1015.12 83.34 1015.42 83.34 1015.68 83.34C1016.03 83.34 1016.5 83.2533 1017.11 83.08L1019.06 94.26C1017.07 95.1267 1014.42 95.56 1011.13 95.56ZM1059.16 95.56C1054.74 95.56 1050.63 94.8233 1046.81 93.35C1043 91.79 1039.66 89.58 1036.8 86.72C1033.94 83.86 1031.69 80.3933 1030.04 76.32C1028.48 72.16 1027.7 67.4367 1027.7 62.15C1027.7 56.95 1028.53 52.27 1030.17 48.11C1031.82 43.95 1033.99 40.44 1036.67 37.58C1039.45 34.72 1042.61 32.51 1046.16 30.95C1049.72 29.39 1053.36 28.61 1057.08 28.61C1061.42 28.61 1065.23 29.3467 1068.52 30.82C1071.82 32.2933 1074.55 34.3733 1076.71 37.06C1078.97 39.7467 1080.66 42.9533 1081.78 46.68C1082.91 50.4067 1083.47 54.48 1083.47 58.9C1083.47 60.3733 1083.39 61.76 1083.21 63.06C1083.13 64.36 1083 65.4 1082.82 66.18H1042.26C1042.96 71.9 1044.95 76.32 1048.24 79.44C1051.62 82.4733 1055.91 83.99 1061.11 83.99C1063.89 83.99 1066.44 83.6 1068.78 82.82C1071.21 81.9533 1073.59 80.7833 1075.93 79.31L1081 88.67C1077.97 90.6633 1074.59 92.31 1070.86 93.61C1067.14 94.91 1063.24 95.56 1059.16 95.56ZM1042.13 56.04H1070.47C1070.47 51.1 1069.39 47.2433 1067.22 44.47C1065.14 41.61 1061.89 40.18 1057.47 40.18C1053.66 40.18 1050.32 41.5233 1047.46 44.21C1044.6 46.8967 1042.83 50.84 1042.13 56.04ZM601.199 212.56C595.825 212.56 592.055 210.957 589.889 207.75C587.722 204.543 586.639 200.167 586.639 194.62V119.22H601.589V195.4C601.589 197.22 601.935 198.52 602.629 199.3C603.322 199.993 604.059 200.34 604.839 200.34C605.185 200.34 605.489 200.34 605.749 200.34C606.095 200.34 606.572 200.253 607.179 200.08L609.129 211.26C607.135 212.127 604.492 212.56 601.199 212.56ZM649.232 212.56C644.812 212.56 640.695 211.823 636.882 210.35C633.068 208.79 629.732 206.58 626.872 203.72C624.012 200.86 621.758 197.393 620.112 193.32C618.552 189.16 617.772 184.437 617.772 179.15C617.772 173.95 618.595 169.27 620.242 165.11C621.888 160.95 624.055 157.44 626.742 154.58C629.515 151.72 632.678 149.51 636.232 147.95C639.785 146.39 643.425 145.61 647.152 145.61C651.485 145.61 655.298 146.347 658.592 147.82C661.885 149.293 664.615 151.373 666.782 154.06C669.035 156.747 670.725 159.953 671.852 163.68C672.978 167.407 673.542 171.48 673.542 175.9C673.542 177.373 673.455 178.76 673.282 180.06C673.195 181.36 673.065 182.4 672.892 183.18H632.332C633.025 188.9 635.018 193.32 638.312 196.44C641.692 199.473 645.982 200.99 651.182 200.99C653.955 200.99 656.512 200.6 658.852 199.82C661.278 198.953 663.662 197.783 666.002 196.31L671.072 205.67C668.038 207.663 664.658 209.31 660.932 210.61C657.205 211.91 653.305 212.56 649.232 212.56ZM632.202 173.04H660.542C660.542 168.1 659.458 164.243 657.292 161.47C655.212 158.61 651.962 157.18 647.542 157.18C643.728 157.18 640.392 158.523 637.532 161.21C634.672 163.897 632.895 167.84 632.202 173.04ZM701.767 212.56C696.134 212.56 691.584 210.87 688.117 207.49C684.65 204.023 682.917 199.473 682.917 193.84C682.917 190.46 683.61 187.47 684.997 184.87C686.47 182.183 688.724 179.887 691.757 177.98C694.877 176.073 698.777 174.47 703.457 173.17C708.224 171.87 713.9 170.873 720.487 170.18C720.4 168.533 720.14 166.973 719.707 165.5C719.36 163.94 718.71 162.597 717.757 161.47C716.89 160.257 715.72 159.347 714.247 158.74C712.774 158.047 710.954 157.7 708.787 157.7C705.667 157.7 702.59 158.307 699.557 159.52C696.61 160.733 693.707 162.207 690.847 163.94L685.387 153.93C688.94 151.677 692.927 149.727 697.347 148.08C701.767 146.433 706.534 145.61 711.647 145.61C719.62 145.61 725.557 147.993 729.457 152.76C733.444 157.44 735.437 164.243 735.437 173.17V211H723.087L722.047 203.98H721.527C718.667 206.407 715.59 208.443 712.297 210.09C709.09 211.737 705.58 212.56 701.767 212.56ZM706.577 200.86C709.177 200.86 711.517 200.253 713.597 199.04C715.764 197.827 718.06 196.093 720.487 193.84V179.54C716.154 180.06 712.514 180.753 709.567 181.62C706.62 182.487 704.237 183.483 702.417 184.61C700.597 185.65 699.297 186.863 698.517 188.25C697.737 189.637 697.347 191.11 697.347 192.67C697.347 195.53 698.214 197.61 699.947 198.91C701.68 200.21 703.89 200.86 706.577 200.86ZM753.328 211V147.17H765.678L766.718 158.48H767.238C769.491 154.32 772.221 151.157 775.428 148.99C778.635 146.737 781.928 145.61 785.308 145.61C788.341 145.61 790.768 146.043 792.588 146.91L789.988 159.91C788.861 159.563 787.821 159.303 786.868 159.13C785.915 158.957 784.745 158.87 783.358 158.87C780.845 158.87 778.201 159.867 775.428 161.86C772.655 163.767 770.271 167.147 768.278 172V211H753.328ZM801.824 211V147.17H814.174L815.214 155.75H815.734C818.594 152.977 821.671 150.593 824.964 148.6C828.344 146.607 832.244 145.61 836.664 145.61C843.511 145.61 848.494 147.82 851.614 152.24C854.734 156.573 856.294 162.813 856.294 170.96V211H841.344V172.91C841.344 167.623 840.564 163.897 839.004 161.73C837.444 159.563 834.888 158.48 831.334 158.48C828.561 158.48 826.091 159.173 823.924 160.56C821.844 161.86 819.461 163.81 816.774 166.41V211H801.824ZM874.568 211V147.17H889.518V211H874.568ZM882.108 135.99C879.422 135.99 877.212 135.21 875.478 133.65C873.745 132.09 872.878 130.053 872.878 127.54C872.878 125.027 873.745 122.99 875.478 121.43C877.212 119.783 879.422 118.96 882.108 118.96C884.795 118.96 887.005 119.783 888.738 121.43C890.472 122.99 891.338 125.027 891.338 127.54C891.338 130.053 890.472 132.09 888.738 133.65C887.005 135.21 884.795 135.99 882.108 135.99ZM908.592 211V147.17H920.942L921.982 155.75H922.502C925.362 152.977 928.438 150.593 931.732 148.6C935.112 146.607 939.012 145.61 943.432 145.61C950.278 145.61 955.262 147.82 958.382 152.24C961.502 156.573 963.062 162.813 963.062 170.96V211H948.112V172.91C948.112 167.623 947.332 163.897 945.772 161.73C944.212 159.563 941.655 158.48 938.102 158.48C935.328 158.48 932.858 159.173 930.692 160.56C928.612 161.86 926.228 163.81 923.542 166.41V211H908.592ZM1003.57 239.21C999.753 239.21 996.199 238.863 992.906 238.17C989.699 237.477 986.926 236.437 984.586 235.05C982.246 233.663 980.383 231.93 978.996 229.85C977.696 227.77 977.046 225.343 977.046 222.57C977.046 219.883 977.826 217.37 979.386 215.03C980.946 212.777 983.199 210.74 986.146 208.92V208.4C984.499 207.36 983.113 205.973 981.986 204.24C980.946 202.507 980.426 200.34 980.426 197.74C980.426 195.227 981.119 192.973 982.506 190.98C983.979 188.9 985.626 187.21 987.446 185.91V185.39C985.279 183.743 983.329 181.49 981.596 178.63C979.949 175.683 979.126 172.303 979.126 168.49C979.126 164.85 979.819 161.6 981.206 158.74C982.593 155.88 984.413 153.497 986.666 151.59C989.006 149.597 991.693 148.123 994.726 147.17C997.759 146.13 1000.97 145.61 1004.35 145.61C1006.08 145.61 1007.73 145.783 1009.29 146.13C1010.93 146.39 1012.41 146.737 1013.71 147.17H1036.59V158.22H1024.89C1025.93 159.433 1026.79 160.993 1027.49 162.9C1028.18 164.72 1028.53 166.757 1028.53 169.01C1028.53 172.563 1027.88 175.683 1026.58 178.37C1025.36 181.057 1023.67 183.31 1021.51 185.13C1019.34 186.95 1016.78 188.337 1013.84 189.29C1010.89 190.243 1007.73 190.72 1004.35 190.72C1002.96 190.72 1001.53 190.59 1000.06 190.33C998.583 190.07 997.109 189.637 995.636 189.03C994.683 189.897 993.903 190.763 993.296 191.63C992.776 192.497 992.516 193.667 992.516 195.14C992.516 196.96 993.253 198.39 994.726 199.43C996.286 200.47 999.016 200.99 1002.92 200.99H1014.23C1021.94 200.99 1027.75 202.247 1031.65 204.76C1035.63 207.187 1037.63 211.173 1037.63 216.72C1037.63 219.84 1036.8 222.787 1035.16 225.56C1033.6 228.333 1031.34 230.717 1028.4 232.71C1025.45 234.703 1021.85 236.263 1017.61 237.39C1013.45 238.603 1008.77 239.21 1003.57 239.21ZM1004.35 181.36C1007.38 181.36 1009.98 180.277 1012.15 178.11C1014.31 175.857 1015.4 172.65 1015.4 168.49C1015.4 164.503 1014.31 161.427 1012.15 159.26C1010.07 157.007 1007.47 155.88 1004.35 155.88C1001.23 155.88 998.583 156.963 996.416 159.13C994.249 161.297 993.166 164.417 993.166 168.49C993.166 172.65 994.249 175.857 996.416 178.11C998.583 180.277 1001.23 181.36 1004.35 181.36ZM1005.91 229.46C1011.11 229.46 1015.27 228.42 1018.39 226.34C1021.59 224.347 1023.2 221.963 1023.2 219.19C1023.2 216.677 1022.2 214.987 1020.21 214.12C1018.3 213.253 1015.53 212.82 1011.89 212.82H1003.18C999.709 212.82 996.806 212.517 994.466 211.91C991.173 214.423 989.526 217.24 989.526 220.36C989.526 223.22 990.956 225.43 993.816 226.99C996.763 228.637 1000.79 229.46 1005.91 229.46ZM601.199 329.56C595.825 329.56 592.055 327.957 589.889 324.75C587.722 321.543 586.639 317.167 586.639 311.62V236.22H601.589V312.4C601.589 314.22 601.935 315.52 602.629 316.3C603.322 316.993 604.059 317.34 604.839 317.34C605.185 317.34 605.489 317.34 605.749 317.34C606.095 317.34 606.572 317.253 607.179 317.08L609.129 328.26C607.135 329.127 604.492 329.56 601.199 329.56ZM637.402 329.56C631.768 329.56 627.218 327.87 623.752 324.49C620.285 321.023 618.552 316.473 618.552 310.84C618.552 307.46 619.245 304.47 620.632 301.87C622.105 299.183 624.358 296.887 627.392 294.98C630.512 293.073 634.412 291.47 639.092 290.17C643.858 288.87 649.535 287.873 656.122 287.18C656.035 285.533 655.775 283.973 655.342 282.5C654.995 280.94 654.345 279.597 653.392 278.47C652.525 277.257 651.355 276.347 649.882 275.74C648.408 275.047 646.588 274.7 644.422 274.7C641.302 274.7 638.225 275.307 635.192 276.52C632.245 277.733 629.342 279.207 626.482 280.94L621.022 270.93C624.575 268.677 628.562 266.727 632.982 265.08C637.402 263.433 642.168 262.61 647.282 262.61C655.255 262.61 661.192 264.993 665.092 269.76C669.078 274.44 671.072 281.243 671.072 290.17V328H658.722L657.682 320.98H657.162C654.302 323.407 651.225 325.443 647.932 327.09C644.725 328.737 641.215 329.56 637.402 329.56ZM642.212 317.86C644.812 317.86 647.152 317.253 649.232 316.04C651.398 314.827 653.695 313.093 656.122 310.84V296.54C651.788 297.06 648.148 297.753 645.202 298.62C642.255 299.487 639.872 300.483 638.052 301.61C636.232 302.65 634.932 303.863 634.152 305.25C633.372 306.637 632.982 308.11 632.982 309.67C632.982 312.53 633.848 314.61 635.582 315.91C637.315 317.21 639.525 317.86 642.212 317.86ZM719.903 329.56C716.956 329.56 713.966 328.867 710.933 327.48C707.986 326.007 705.17 323.927 702.483 321.24H702.093L700.793 328H688.963V236.22H703.913V259.88L703.523 270.54C706.21 268.2 709.113 266.293 712.233 264.82C715.44 263.347 718.69 262.61 721.983 262.61C725.97 262.61 729.523 263.39 732.643 264.95C735.763 266.423 738.406 268.59 740.573 271.45C742.74 274.223 744.386 277.603 745.513 281.59C746.64 285.577 747.203 290.04 747.203 294.98C747.203 300.44 746.423 305.337 744.863 309.67C743.39 313.917 741.396 317.513 738.883 320.46C736.37 323.407 733.466 325.66 730.173 327.22C726.88 328.78 723.456 329.56 719.903 329.56ZM716.783 317.21C721.03 317.21 724.583 315.39 727.443 311.75C730.303 308.023 731.733 302.52 731.733 295.24C731.733 288.827 730.65 283.843 728.483 280.29C726.316 276.737 722.806 274.96 717.953 274.96C713.446 274.96 708.766 277.343 703.913 282.11V311.88C706.166 313.873 708.376 315.26 710.543 316.04C712.796 316.82 714.876 317.21 716.783 317.21ZM779.517 329.56C775.097 329.56 770.72 328.737 766.387 327.09C762.14 325.357 758.457 323.233 755.337 320.72L762.357 311.1C765.217 313.353 768.034 315.13 770.807 316.43C773.667 317.643 776.744 318.25 780.037 318.25C783.504 318.25 786.06 317.557 787.707 316.17C789.354 314.697 790.177 312.833 790.177 310.58C790.177 309.28 789.787 308.153 789.007 307.2C788.227 306.16 787.187 305.25 785.887 304.47C784.587 303.69 783.114 302.997 781.467 302.39C779.82 301.697 778.174 301.003 776.527 300.31C774.447 299.53 772.324 298.62 770.157 297.58C767.99 296.54 766.04 295.283 764.307 293.81C762.66 292.337 761.274 290.647 760.147 288.74C759.107 286.747 758.587 284.407 758.587 281.72C758.587 276.087 760.667 271.493 764.827 267.94C768.987 264.387 774.664 262.61 781.857 262.61C786.277 262.61 790.264 263.39 793.817 264.95C797.37 266.51 800.447 268.287 803.047 270.28L796.157 279.38C793.904 277.733 791.607 276.433 789.267 275.48C787.014 274.44 784.63 273.92 782.117 273.92C778.91 273.92 776.527 274.613 774.967 276C773.494 277.3 772.757 278.947 772.757 280.94C772.757 282.24 773.104 283.367 773.797 284.32C774.577 285.187 775.574 285.967 776.787 286.66C778 287.353 779.387 288.003 780.947 288.61C782.594 289.217 784.284 289.823 786.017 290.43C788.184 291.21 790.35 292.12 792.517 293.16C794.684 294.113 796.634 295.327 798.367 296.8C800.187 298.273 801.617 300.093 802.657 302.26C803.784 304.34 804.347 306.853 804.347 309.8C804.347 312.573 803.784 315.173 802.657 317.6C801.617 319.94 800.057 322.02 797.977 323.84C795.897 325.573 793.297 326.96 790.177 328C787.057 329.04 783.504 329.56 779.517 329.56ZM809.763 345.29V336.32H871.643V345.29H809.763Z" fill="#FED136"/>
</g>
<defs>
<filter id="filter0_d" x="32.49" y="122.5" width="501.613" height="171.5" filterUnits="userSpaceOnUse" color-interpolation-filters="sRGB">
<feFlood flood-opacity="0" result="BackgroundImageFix"/>
<feColorMatrix in="SourceAlpha" type="matrix" values="0 0 0 0 0 0 0 0 0 0 0 0 0 0 0 0 0 0 127 0"/>
<feOffset dy="4"/>
<feGaussianBlur stdDeviation="2"/>
<feColorMatrix type="matrix" values="0 0 0 0 0 0 0 0 0 0 0 0 0 0 0 0 0 0 0.25 0"/>
<feBlend mode="normal" in2="BackgroundImageFix" result="effect1_dropShadow"/>
<feBlend mode="normal" in="SourceGraphic" in2="effect1_dropShadow" result="shape"/>
</filter>
<clipPath id="clip0">
<rect width="1101" height="350" fill="white"/>
</clipPath>
</defs>
</svg>
