<?xml version="1.0" encoding="UTF-8"?>
<svg viewBox="0 0 173.71 127.714" xmlns="http://www.w3.org/2000/svg">
 <path d="m138.38 70.492c-2.986-0.035-5.398 2.305-5.471 5.293-0.21701 15.371-0.46901 30.744-0.72101 46.115-0.035 2.988 2.34 5.436 5.293 5.473l20.592 0.324c2.988 0.035 5.398-2.34 5.471-5.293 0.21699-15.371 0.46899-30.744 0.72099-46.152 0.035-2.951-2.34-5.398-5.293-5.436l-20.592-0.324z" fill-rule="evenodd" stroke="#000" stroke-miterlimit="10" stroke-width=".036"/>
 <path d="m139.53,73.011c-2.664-.035-4.85899,2.16-4.896,4.896-.215,14.148-.46699,28.332-.68401,42.516-.035,2.736 2.088,4.969 4.752,5.041 6.121.07201 12.27701.18 18.43201.287 2.629.037 4.82399-2.16 4.86099-4.895 .252-14.18601.46701-28.332.68401-42.51801 .035-2.734-2.088-5.004-4.752-5.03899-6.12-.07101-12.276-.178-18.397-.288z" fill="#545454" fill-rule="evenodd" stroke="#000" stroke-miterlimit="10" stroke-width=".036"/>
 <path d="m9.894,68.476c-2.952-.072-5.4,2.305-5.436,5.293-.252,15.371-.504,30.742-.72,46.115-.072,2.988 2.304,5.436 5.256,5.473 6.876.107 13.752.215 20.628.322 2.952.037 5.4-2.34 5.436-5.291 .252-15.371.504-30.744.72-46.152 .072-2.951-2.304-5.4-5.292-5.436l-20.592-.324z" fill-rule="evenodd" stroke="#000" stroke-miterlimit="10" stroke-width=".036"/>
 <path d="m11.046,70.996c-2.664-.035-4.86,2.16-4.896,4.896-.216,14.148-.432,28.332-.648,42.516-.072,2.736 2.052,4.969 4.716,5.041 6.156.07201 12.276.18 18.432.287 2.664.037 4.86-2.16 4.896-4.896 .216-14.184.432-28.33199.648-42.516 .072-2.736-2.052-5.004-4.716-5.03899-6.156-.11-12.276-.18-18.432-.289z" fill="#545454" fill-rule="evenodd" stroke="#000" stroke-miterlimit="10" stroke-width=".036"/>
 <path d="m18.714,33.88c-1.548-.288-3.42-.396-6.012-.324-2.592,0-5.688.18-9.288.54-1.296,0-2.196.504-2.7,1.368-.576.828-1.116,2.772-.504,3.888 .576.936 2.16,1.548 4.068,2.268 1.872.612 4.608,1.476 6.804,2.016 2.052.504 3.816.828 5.436,1.116l.108,5.4c-1.512,1.476-2.736,3.312-3.816,5.652-1.116,2.232-2.232,5.004-2.772,8.172-.684,3.24-1.116,7.236-1.008,10.873 .108,3.563.648,6.803 1.476,10.402 .684,3.564 2.016,7.777 2.88,10.404 .792,2.52 1.512,3.85201 2.16,4.428-1.476,1.584-1.836,2.881-1.08,3.889 .72.863 1.98,1.439 5.436,1.871 3.384.506 8.244.721 14.724.938-.072,1.152.396,2.123 1.008,2.916 .612.646.792,1.26 2.916,1.691 2.052.359 7.092.359 9.288.828 2.052.432 1.404,1.547 3.348,1.69099 1.728,0 2.736-1.115 7.884-1.26 5.184-.107 14.256-.07201 23.04.252 8.785.072 22.931.46899 28.835.756 5.725.217 3.781.973 5.436.9 1.584-.107.50401-1.225 3.854-1.404 3.311-.252 11.98599.469 15.479-.215 3.34999-.89999 4.82399-2.48399 4.57199-4.896 3.24001.18 6.229.252 9.10901.072s6.73-.037 8.09999-1.08c1.22301-1.152.90001-3.02499-.82799-5.617 1.26-1.295 2.30299-4.066 3.56399-8.17201 1.08-4.283 3.383-11.051 3.42-16.703-.10899-5.869-1.477-12.708-3.133-17.172-1.65601-4.428-3.77901-7.38-6.51601-9l-.07201-4.464c2.26801.504 4.787.54 7.955.108 3.13301-.504 8.748-1.332 10.621-2.88 1.69101-1.692 1.584-3.816-.32399-6.768-5.22101-.432-9.145-.684-12.168-.612-2.98801,0-4.85901.288-5.61501.864-.46901,1.44-.86501,2.412-1.332,2.916-.541.432-1.008.54-1.549.036-1.08-4.536-2.59201-9.288-4.824-14.652-2.26801-5.364-5.76-13.5-8.38699-17.316-2.701-3.924-1.40401-4.68-7.23601-5.868-6.012-1.296-15.48-1.152-27.865-1.368-12.563-.324-35.892-.216-46.26-.108-10.296,0-11.232-.828-15.3.576-4.104,1.296-6.48,3.816-9.36,7.704-2.952,3.816-6.336,11.124-8.496,15.408-2.376,4.212-3.888,7.524-5.076,9.936z" fill-rule="evenodd" stroke="#000" stroke-miterlimit="10" stroke-width=".036"/>
 <path d="m63.138.724c-2.628.036-5.616.144-9.108.324-3.564.036-8.64-.432-11.772.54-3.096.756-3.888.468-7.092,4.968-3.456,4.536-10.584,16.956-13.068,22.248-2.52,5.112-1.548,6.516-1.8,8.928-.324,2.376-.252,4.284.072,5.58 1.296,1.008 2.448.864 3.312-.036 .756-.936.72-2.88 1.836-5.832 1.224-3.168 3.132-8.676 5.04-12.636 1.692-4.104 3.6-8.46 5.292-11.124 1.584-2.664 2.988-4.176 4.356-4.68 2.376-.216 5.472-.396 9.288-.54 3.78-.144 8.244-.468 13.536-.576-.072-.72-.036-1.728-.036-2.88 .036-1.188.036-2.664.144-4.284z" fill="#ff0" fill-rule="evenodd" stroke="#000" stroke-miterlimit="10" stroke-width=".036"/>
 <path d="m64.11,1.12c2.124.072 4.644.252 7.56.252 2.88001,0 6.12-.036 9.864-.108 0,.792.07201,1.8.216,2.88 .072,1.152.216,2.196.432,3.672l-17.784.252c-.07201-2.304-.18-4.608-.288-6.948z" fill="#fff" fill-rule="evenodd" stroke="#000" stroke-miterlimit="10" stroke-width=".036"/>
 <path d="m89.274,1.732c1.98-.108 4.32-.144 7.164-.108 2.809-.036 5.869.036 9.46899.072-.109.972-.109,1.872-.145,3.096-.035,1.08.035,2.304.072,3.672l-16.847-.144c.072-2.196.18-4.392.287-6.588z" fill="#fff" fill-rule="evenodd" stroke="#000" stroke-miterlimit="10" stroke-width=".036"/>
 <path d="m82.902,1.444 5.004-.072-.108,6.768-4.24799.036-.648-6.732z" fill="#ff0" fill-rule="evenodd" stroke="#000" stroke-miterlimit="10" stroke-width=".036"/>
 <path d="m107.27 1.66c3.313-0.108 6.443-0.036 9.684 0.072 3.168 0.072 6.445 0.288 9.289 0.648 2.627 0.216 4.68-1.008 6.984 1.044 2.268 2.052 4.68 7.488 6.551 10.764 1.764 2.988 2.557 4.464 4.176 7.884 1.477 3.492 4.033 8.964 5.186 12.672 1.15 3.528 1.764 6.804 1.691 8.712-0.289 1.764-1.764 3.636-2.881 2.16-1.188-1.692-2.016-6.588-4.031-11.376-2.053-4.86-6.191-12.636-8.389-16.92-2.375-4.284-3.131-6.948-5.328-8.424-2.16-1.512-3.996-0.828-7.74-0.864-3.924-0.252-8.928-0.18-15.299-0.18 0.035-2.052 0.072-4.104 0.107-6.192z" fill="#ff0" fill-rule="evenodd" stroke="#000" stroke-miterlimit="10" stroke-width=".036"/>
 <path d="m25.086,46.732c.684-3.564 1.728-7.38 3.132-11.448 1.332-4.212 3.06-9.072 5.04-13.032 1.728-4.032 3.852-8.568 6.228-10.548 2.412-2.088 3.888-1.44 8.316-1.656 4.284-.324 9.828-.072 17.604-.072 7.74001-.036 19.548-.144 28.62-.18 9-.252 19.26-.468 24.949-.36 5.471.144 5.939-.072 8.35201,1.44 2.447,1.44 4.031,3.744 6.299,7.452 2.19699,3.708 4.5,9.072 6.76999,14.436 2.23001,5.184 4.13901,10.764 6.26401,16.74-1.90801-.252-5.50801-.288-10.65601-.252-5.39999.036-15.984.792-20.52.468-4.5-.468-2.197-2.232-6.014-2.808-3.924-.576-9.467-.828-17.063-.9-7.813-.252-22.752-.576-28.836,0-6.084.504-3.708,2.736-7.308,3.384-3.672.612-9.252.468-14.508.396-5.4-.036-11.016-.468-17.244-.9 .179-.72.359-1.44.575-2.16z" fill="#bdbdbd" fill-rule="evenodd" stroke="#000" stroke-miterlimit="10" stroke-width=".036"/>
 <path d="m60.33,48.964c.144.792-.972,1.332-3.06,1.764-2.232.396-4.968.504-9.864.72-5.04.072-14.616.108-19.548.108-4.86,0-8.136-.18-9.684-.252-1.62.936-2.916,2.556-4.176,5.256-1.332,2.556-2.664,6.66-3.168,10.512-.54,3.85201-.432,7.848.18,12.385 7.02.432 14.58.719 23.256,1.008 8.568.287 17.82.43201 28.044.576l-.468-5.184c-1.224-.109-3.78-.109-7.524-.289-3.888-.107-8.748-.396-15.12-.576-2.088,1.188-4.788,1.693-7.704,1.65601-3.168-.035-8.172-.648-10.296-1.98-2.052-1.619-2.736-4.607-2.196-6.73 .432-2.19701 2.016-4.465 4.752-5.689 2.664-1.332 7.992-2.124 10.98-1.692 2.916.396 4.86,2.7 6.264,4.141 1.26,1.367 1.728,2.555 1.404,3.85201 1.224-.18 3.528-.324 6.768-.289 3.276-.07 7.488,0 12.78.21699l-.072-19.908c-.504.106-1.008.25-1.548.394z" fill="#ff0" fill-rule="evenodd" stroke="#000" stroke-miterlimit="10" stroke-width=".036"/>
 <path d="m110.66 49.432c-0.145 0.576 1.08 1.116 3.672 1.476 2.592 0.252 7.055 0.648 11.844 0.612 4.752-0.072 11.736-0.756 16.236-0.792 4.355-0.108 7.703 0.036 10.043 0.432 1.764 0.972 3.096 2.448 4.537 4.572 1.26 2.124 2.52 5.328 3.383 8.1 0.79302 2.556 1.332 4.896 1.477 7.705 0.07201 2.807-0.324 5.904-1.043 9.287-4.537 0.252-10.908 0.361-19.514 0.469-8.676 0.072-19.08 0.145-31.752 0.072l-0.252-5.4c3.564 0.145 7.273 0.215 11.412 0.215 4.033-0.07 8.352-0.143 12.961-0.359 1.043 1.439 2.879 2.268 5.652 2.629 2.664 0.25201 8.244 0.324 10.619-0.756 2.305-1.225 3.385-3.996 3.385-6.229-0.252-2.232-1.766-5.869-3.564-7.309-1.801-1.512-4.428-1.908-6.625-2.016-2.303-0.288-4.535-0.684-6.551 0.468-2.016 1.08-3.744 3.169-5.328 6.265l-22.286-0.073-0.252-19.152 1.946-0.216z" fill="#ff0" fill-rule="evenodd" stroke="#000" stroke-miterlimit="10" stroke-width=".036"/>
 <path d="m63.786,47.956c.9-.18 2.916-.396 6.192-.504 3.16801-.18 7.596-.252 13.14-.36l.288,20.91501c-3.6.145-7.056.252-10.224.324-3.276.072-6.264,0-9.108-.072-.072-6.767-.18-13.535-.288-20.303z" fill="#ff7f00" fill-rule="evenodd" stroke="#000" stroke-miterlimit="10" stroke-width=".036"/>
 <path d="m89.129,47.2c2.736-.036 5.689.108 8.71301.288 3.096.144 6.084.468 9.504.828l.287,19.728-18.215.432c-.072-7.092-.179-14.184-.289-21.276z" fill="#ff7f00" fill-rule="evenodd" stroke="#000" stroke-miterlimit="10" stroke-width=".036"/>
 <path d="m84.056,47.092 3.672-.072 .288,21.276-3.672.252-.288-21.456z" fill="#ff0" fill-rule="evenodd" stroke="#000" stroke-miterlimit="10" stroke-width=".036"/>
 <path d="m38.802,73.048c1.044-.973 1.656-2.125 1.692-3.313 .18-1.295-.216-2.627-1.044-3.852-1.044-1.26-2.556-2.952-4.68-3.42-2.304-.576-5.796-.468-8.1.324-2.376.648-4.5,2.088-5.4,3.745-.972,1.584-.612,4.391.108,5.79501 .576,1.26 1.872,1.584 3.888,2.088 1.98.396 5.796.793 8.136.648 2.376-.25101 3.996-1.151 5.4-2.01501z" fill="#bdbdbd" fill-rule="evenodd" stroke="#000" stroke-miterlimit="10" stroke-width=".036"/>
 <path d="m133.45 73.48c1.117 1.512 3.637 3.492 6.445 3.996 2.699 0.287 7.92-0.324 9.826-1.691 1.693-1.512 1.549-4.285 1.08-6.229-0.504-1.943-1.654-4.104-3.744-4.969-2.23-0.935-6.551-1.187-8.928-0.46699-2.375 0.684-4.211 2.844-4.967 4.535-0.82701 1.585-0.86501 3.241 0.28799 4.825z" fill="#bdbdbd" fill-rule="evenodd" stroke="#000" stroke-miterlimit="10" stroke-width=".036"/>
 <path d="m55.002,69.953c-1.08-.109-2.52-.109-4.464-.145-1.98-.035-4.356,0-7.128.107-.036.721-.108,1.369-.36,1.945-.252.504-.684,1.008-1.152,1.367l12.96.973c.036-1.404.072-2.808.144-4.24699z" fill="#faa13b" fill-rule="evenodd" stroke="#000" stroke-miterlimit="10" stroke-width=".036"/>
 <path d="m130.1 70.636c-1.691 0-3.564 0.072-5.615 0.072-2.125 0-4.393-0.037-6.949-0.107l0.21699 3.49 13.176 0.21699c-0.25302-1.225-0.54202-2.447-0.82901-3.672z" fill="#faa13b" fill-rule="evenodd" stroke="#000" stroke-miterlimit="10" stroke-width=".036"/>
 <path d="m107.922,75.785-17.209.252-.143,4.824 17.604-.252-.25201-4.824z" fill="#fff" fill-rule="evenodd" stroke="#000" stroke-miterlimit="10" stroke-width=".036"/>
 <path d="m82.362,76.144-17.208.217-.108,4.859 17.604-.252-.288-4.824z" fill="#fff" fill-rule="evenodd" stroke="#000" stroke-miterlimit="10" stroke-width=".036"/>
 <path d="m61.986,85.72c-9.144.107-16.236.145-21.672.107-5.508-.143-5.904-.50401-10.62-.648-4.752-.215-10.584-.504-17.64-.719 .972,3.564 1.98,6.516 3.024,9.252 .972,2.664 1.98,4.859 3.024,6.732-.684.504-1.116,1.08-1.152,1.584-.144.467-.864.971.612,1.512 1.44.467 3.096,1.043 7.74,1.439 4.536.324 12.888.469 19.368.721 6.408.143 12.492.359 18.792.50401l-.288-5.617c-3.492.252-6.768.361-10.26.324-3.456-.107-6.984-.215-10.44-.611l-.108-7.561c3.636.18 6.984.217 10.44.252 3.384,0 6.48,0 9.684-.143-.144-2.376-.324-4.753-.504-7.128zm-33.3,11.485c.036,2.34 2.52,4.211 5.58,4.176 3.024-.037 5.472-1.98 5.436-4.32-.036-2.375-2.52-4.24799-5.58-4.176-3.024.034-5.472,1.98-5.436,4.32z" fill="#ff0" fill-rule="evenodd" stroke="#000" stroke-miterlimit="10" stroke-width=".036"/>
 <path d="m110.37,85.433c9.396,0 16.633-.072 22.24799.07 5.436.072 6.121.361 10.65601.434 4.607-.072 9.97299-.28899 16.633-.64799-.21699,2.268-.828,4.68-1.836,7.379-1.15199,2.664-2.521,5.365-4.5,8.389 1.043-.072 1.69099.504 1.94301,1.332 .28699.9.64799,2.988-.72101,3.889-1.547.684-3.996.539-8.314.684-4.5.18-11.916.215-17.82001.252-5.977-.037-11.629-.252-17.389-.504l-.107-6.408c2.303.072 4.932.145 8.31599.072 3.23801-.072 7.092-.18 11.41201-.324l-.10901-7.561c-3.672.217-7.02.396-10.439.541-3.42001.143-6.516.143-9.68401.143-.073-2.556-.18-5.14799-.28899-7.74zm34.236,11.123c0,2.34-2.412,4.283-5.47301,4.32-3.05899.072-5.543-1.836-5.58-4.176-.03499-2.34 2.412-4.285 5.47301-4.32 3.02299-.037 5.545,1.83601 5.58,4.176z" fill="#ff0" fill-rule="evenodd" stroke="#000" stroke-miterlimit="10" stroke-width=".036"/>
 <path d="m83.874,76.216 .072,4.787 5.183-.07-.07-4.789-5.185.07201z" fill="#ff0" fill-rule="evenodd" stroke="#000" stroke-miterlimit="10" stroke-width=".036"/>
 <path d="m64.254,86.007c-.468,0 .864-.035 3.996.037 3.168,0 7.848.107 14.58.18l.432,20.16c-3.24.145-6.156.145-9.288.145-3.096-.072-6.12-.145-9.072-.361l.072-5.58c2.916-.035 5.724,0 8.28-.035 2.592-.035 4.932-.145 7.164-.18l-.18-7.633c-3.816.109-7.02.145-9.612.109-2.628-.109-4.608-.289-6.084-.541-.072-2.088-.18-4.176-.288-6.301z" fill="#ff7f00" fill-rule="evenodd" stroke="#000" stroke-miterlimit="10" stroke-width=".036"/>
 <path d="m108.499,85.937c.359-.037-.936-.037-4.033.143-3.096.072-7.99001.324-14.54301.613l.107,20.16c3.168,0 6.121,0 9.289-.145 3.059-.107 6.084-.359 9.072-.613l-.254-5.578c-2.951.107-5.76.18-8.279.215-2.627.037-4.967.037-7.164,0v-7.631c3.781-.072 6.84-.21699 9.576-.145 2.664-.072 4.75201.072 6.40801.145-.035-2.377-.107-4.752-.179-7.164z" fill="#ff7f00" fill-rule="evenodd" stroke="#000" stroke-miterlimit="10" stroke-width=".036"/>
 <path d="m83.946,86.693 .252,19.764 4.824-.072-.287-19.764-4.789.072z" fill="#ff0" fill-rule="evenodd" stroke="#000" stroke-miterlimit="10" stroke-width=".036"/>
 <path d="m154.217,42.088c.145-.468.86501-1.116 1.584-1.548 .64801-.648.39601-1.548 2.30501-1.872 1.80099-.36 7.416-.432 8.496-.072 .793.36-1.08,1.404-2.55701,2.16-1.47499.504-4.248.936-5.795,1.44-1.621.468-2.84399,1.368-3.52699,1.44-.61301-.108-.828-1.044-.50601-1.548z" fill="#bdbdbd" fill-rule="evenodd" stroke="#000" stroke-miterlimit="10" stroke-width=".036"/>
 <path d="m17.778,39.496c-.288-.54-1.008-1.044-1.62-1.512-.756-.684-.576-1.476-2.376-1.8-1.872-.216-7.524-.288-8.496.18-.972.288 1.152,1.44 2.628,2.052 1.332.504 4.248.792 5.832,1.296 1.584.432 2.772,1.296 3.564,1.332 .576-.108.684-1.044.468-1.548z" fill="#bdbdbd" fill-rule="evenodd" stroke="#000" stroke-miterlimit="10" stroke-width=".036"/>
</svg>
