<?xml version='1.0' encoding='utf-8'?>
<svg xmlns="http://www.w3.org/2000/svg" id="cat" viewBox="0 0 995.49 869.11"><defs><style>.cls-1{fill:#6b7983;}.cls-2{fill:#f9c5c5;}.cls-3{fill:#95a6b0;}.cls-4{fill:#e5acac;}.cls-5{fill:#fff;}.cls-6{fill:#f7b2b5;}.cls-7{fill:#7e939e;}.cls-8{fill:#576770;}.cls-9{fill:#a6b5bc;}</style></defs><g id="color"><path class="cls-1" d="M717.11,758.83A137.11,137.11,0,0,1,709.92,783c-3,7.51-7,17-15.49,19.58-8.91,2.71-13.87-5.54-17.76-12q-6.9-11.52-13.77-23l2-.25Q691.1,763.77,717.11,758.83Z"/><path class="cls-1" d="M867.92,192.32c-5,11.53-14.2,20-24.49,26.87a150.48,150.48,0,0,1-35.58,17.72c-24.82,8.28-52.68,8-75.28-6.25-.58-4.09-1.07-8.19-1.42-12.3a193,193,0,0,1-.54-23c40,13.95,90.85,4.63,115.56-31.85A358.49,358.49,0,0,1,867.92,192.32Z"/><path class="cls-1" d="M657.73,526.49C662.56,578.8,660.68,632,654,684c-3.54,27.62-9.4,55.08-20.42,80.74q-10.47,1-21,1.86c21.81-47,23.13-100.77,23.58-151.74.47-53.49-3-107.48-15.75-159.59a390.51,390.51,0,0,0-28.78-79.88q11.36.72,22.66,2c0,.06.06.13.1.2C642.76,422,653,474.8,657.73,526.49Z"/><path class="cls-1" d="M582.73,527.17c1,27.18.89,54.43.67,81.62-.21,25.77-.95,51.62-4.16,77.21-3.59,28.66-10.33,57-22.46,83.29q-10.32.18-20.63.12c19.12-49,24.77-101.82,26.33-154.06,1.57-52.67,2.14-106.46-5.38-158.73-4-27.9-10.72-55.35-21.61-81.38q8-.47,16-.64c12.3,21.83,18.47,46.27,22.63,70.83A635.14,635.14,0,0,1,582.73,527.17Z"/><path class="cls-1" d="M367,683.5c10.21,20.29,8.29,44.38,5.44,66.18-.44,3.39-.91,6.78-1.38,10.16-36.62-2-72.77-8.33-109.08-13.17-.44-21.51-2.11-43.38,8.41-62.86,10-18.55,33-28.28,53.35-29.24C343.12,653.65,358.68,666.92,367,683.5Z"/><path class="cls-2" d="M290.84,500.15c3.53,5.57-7.61,10.71-11,12.75-4.8,2.92-9.67,6.61-15,8.46-6.44,2.24-11.87-.5-17.67-3.19-2.77-1.28-14.35-5-11.74-8.6,1-1.42,3.32-2.56,4.8-3.62a127.12,127.12,0,0,1,34.06-7.57C278.07,498.09,288.32,496.18,290.84,500.15Z"/><path class="cls-3" d="M556.57,526.27c-1.46-51.25-7.2-103.06-27.38-150.63q-16.7,1.19-33.3,3.57c-.17,2.6-4.7,3.45-6,.41a164.38,164.38,0,0,0-41.41-57.69c-1.79-1.6-4.61-5.06-6.9-5.83-1.87-.63-1.9,0-3.13,1.56q-1.4,1.72-2.76,3.48c-4.19,5.41-8.13,11-11.85,16.75A254.1,254.1,0,0,0,406,370.59c-1.3,2.86-5,1.44-5.48-1.06-58.37-22.15-121.94-20.94-181-1.66a2.88,2.88,0,0,1-1.76,0,2.6,2.6,0,0,1-1.86-1.44A297.35,297.35,0,0,0,200.1,340a271.86,271.86,0,0,0-19.31-25.38c-1.48-1.71-1.55-2.3-4-2.18s-2.58.82-4.09,2.49-2.79,3.16-4.16,4.77q-4.08,4.8-7.87,9.85a234.38,234.38,0,0,0-27.13,46.87c-14.65,33.48-22,70.07-23.11,106.52-2.62,84.55,28,166,69.64,238.27,6.94,12,13.29,24.56,20.57,36.44,2.16,3.53,4.4,7,6.76,10.4,5.1,7.3,11,14.27,18.22,19.53,5.3,3.86,13.52,8.75,20.12,5.19,8.54-4.61,9.43-19.14,10-27.52.71-10.52.11-21-.17-31.56-.39-15.17.72-31.18,6.23-45.45.51-1.31,1.06-2.59,1.64-3.84h0c6.58-14,18-23.7,32.62-29.43,16.52-6.48,35.39-9.79,51.63-.92,13.86,7.57,23.76,21.52,28.62,36.33,4.46,13.61,4.92,28,3.91,42.27-.42,5.9-1.09,11.77-1.83,17.55-1.39,10.74-3,21.46-4.49,32.18-1.18,8.4-6.29,25,6.3,26.75a22.14,22.14,0,0,0,13.52-2.74,41.32,41.32,0,0,0,7-4.73l.05,0c1.72-1.42,3.33-2.94,4.82-4.44,6.93-7,13-15,18.78-22.92a247.4,247.4,0,0,0,18-28.37,202,202,0,0,0,11.21-24.39c1.36-3.57,7.19-2.12,5.82,1.49q-3,7.9-6.59,15.53-2.9,6.16-6.2,12.14-3.75,6.79-7.95,13.5c20.19,2.07,40.43,3.58,60.71,4.42q15.21.63,30.42.78,3-7.65,5.65-15.45a380.12,380.12,0,0,0,15.91-70.13C558.34,631.88,558.07,578.56,556.57,526.27ZM164.85,377.72c3.39-6.76,3.88-14.26,5.26-21.58.72-3.84,1.31-11.54,6.71-11.36,4.74.15,7.87,4.74,9.64,8.57,3,6.41,5.15,13.29,7.66,19.89,1.38,3.63-4.39,5.29-5.75,1.71l-5.21-13.71c-1-2.62-2.51-8.83-5.78-10.1-1.91,4.39-2,10.23-2.8,14.7a51.39,51.39,0,0,1-4.49,14.81C168.36,384.11,163.13,381.17,164.85,377.72Zm17.33,141.74c-4.4-1.58-9-1.07-13.68-.57-2.33.23-4.66.47-7,.75s-4.61.56-6.88,1c-4.56.74-8.87,2.21-13.18,3.27a97.51,97.51,0,0,0-13,4.41l-.31-.38a21.49,21.49,0,0,1,5.21-5.21l.75-.56.78-.49c.53-.33,1.06-.64,1.6-1a35.24,35.24,0,0,1,3.36-1.56,30,30,0,0,1,7.1-1.87c2.41-.28,4.82-.49,7.21-.64s4.76-.25,7.13-.29,4.73,0,7.08.07a64,64,0,0,1,7.14.47,18.85,18.85,0,0,1,6.85,2.15Zm24.25-15.27a43.39,43.39,0,0,0-10.82-13.52,74.13,74.13,0,0,0-6.87-5.33c-2.37-1.68-4.82-3.26-7.31-4.79s-5-2.94-7.62-4.29-5.11-2.77-7.61-4.25l-7.51-4.52c-2.5-1.53-5-3.07-7.51-4.8l.18-.47a50.18,50.18,0,0,1,8.79,2.07,72.89,72.89,0,0,1,8.38,3.3,57.36,57.36,0,0,1,7.82,4.43c2.48,1.68,4.9,3.45,7.31,5.2s4.8,3.57,7.11,5.48a78.23,78.23,0,0,1,6.58,6.17A42.77,42.77,0,0,1,206.89,504Zm61.36-45.52,1.3-1.75a8.22,8.22,0,0,1,9.25-1.93,6.33,6.33,0,0,1,2.77,1.71l.78.75a8.51,8.51,0,0,1,2.25,3.71c.12.75.23,1.5.35,2.25a8.52,8.52,0,0,1-1.08,4.31l-1.3,1.75a8.22,8.22,0,0,1-9.25,1.93,6.33,6.33,0,0,1-2.77-1.71l-.78-.75a8.51,8.51,0,0,1-2.25-3.71c-.12-.75-.23-1.5-.35-2.25A8.52,8.52,0,0,1,267.79,458.67Zm-26.38-.07a2.12,2.12,0,0,1,.11-.21,17.9,17.9,0,0,1,1.38-1.86,8.44,8.44,0,0,1,3.71-2.26l2.26-.34a8.52,8.52,0,0,1,6,2.37,6.33,6.33,0,0,1,1.81,2.71,6.61,6.61,0,0,1,.5,1.2,8.76,8.76,0,0,1,.9,2c.11.75.23,1.5.34,2.25a6.29,6.29,0,0,1-.67,3.29,6.4,6.4,0,0,1-1.7,2.77,6.52,6.52,0,0,1-2.71,1.81,6.43,6.43,0,0,1-3.26.79,15.58,15.58,0,0,1-2.46-.29l-.18-.06a10.29,10.29,0,0,1-4-2.26,8.61,8.61,0,0,1-2.28-3.31,6.67,6.67,0,0,1-.73-2.51,8.07,8.07,0,0,1-.18-1.52A10.26,10.26,0,0,1,241.41,458.6Zm55.68,45.76c-1.65,7.48-9.77,11-15.68,14.63-5.52,3.36-11.41,7.69-17.94,9a2.82,2.82,0,0,1,.33.94,64.9,64.9,0,0,0,10.54,26.53c2.18,3.2-3,6.3-5.13,3.12A69,69,0,0,1,258,530.61a3.12,3.12,0,0,1,.5-2.29c-7.5-.47-15-5.23-21.59-8.3-4.76-2.23-11.08-5.92-8.45-12.18,1.35-3.21,6.06-5.07,8.82-7.14a2.69,2.69,0,0,1,1.41-.56,132.55,132.55,0,0,1,26.44-6.74c7.5-1.1,16.51-2.65,24-.84C294.66,493.89,298.35,498.62,297.09,504.36Zm129.16-125.3a304,304,0,0,0,12.44-32.51,3,3,0,0,1,5.47-.82,158,158,0,0,1,16,34.55c1.2,3.69-4.57,5.37-5.75,1.7a152.69,152.69,0,0,0-12-27.47q-4.8,14-10.88,27.49C429.9,385.52,424.67,382.57,426.25,379.06Zm-90,111-.3-.4a191.6,191.6,0,0,1,17.61-12.81l4.65-2.88,4.72-2.76,4.81-2.6,4.88-2.48,4.93-2.39,5-2.31c1.68-.71,3.38-1.4,5.09-2.05s3.47-1.16,5.22-1.71l5.31-1.38c1.8-.37,3.58-.78,5.39-1.09s3.62-.55,5.43-.79,3.66-.32,5.51-.36l.1.49c-1.67.78-3.37,1.43-5.06,2.09s-3.36,1.35-5.05,2-3.36,1.28-5,1.92l-5,1.91c-1.67.64-3.34,1.27-5,1.85s-3.36,1.21-5.05,1.77l-5.07,1.78-5,2-4.93,2.13-4.88,2.26-4.85,2.35L354.81,479C348.44,482.3,342.27,486.05,336.23,490Zm79.12-2.4c-1.63.41-3.26.78-4.89,1.15s-3.26.77-4.89,1.1-3.27.72-4.91,1L395.74,492l-4.87,1.24L386,494.63l-4.79,1.58-4.75,1.69-4.71,1.83a179.34,179.34,0,0,0-18.37,8.62l-.26-.43a157,157,0,0,1,17.59-10.46l4.62-2.25,4.69-2.11,4.77-1.93,4.83-1.79,4.87-1.69,4.92-1.59c1.65-.47,3.32-.92,5-1.32s3.39-.65,5.09-.94,3.42-.42,5.13-.59,3.44-.25,5.16-.29,3.45,0,5.17,0,3.45.24,5.17.48l0,.49c-1.67.52-3.33.91-5,1.3s-3.29.83-4.94,1.18S417,487.22,415.35,487.61ZM498,764.1c-.05,0,0-.08,0-.08S498,764.1,498,764.1Z"/><path class="cls-3" d="M627.42,681.31c-2.08,22.81-6,45.61-13.8,67.16a183.33,183.33,0,0,1-7.7,18.34c0,.1-.07.2-.11.3q-21.18,1.49-42.4,2,3.71-8.34,6.72-16.88c15.07-42.39,18.44-88,19.15-132.89.88-55.92.46-111.65-8-167-4.13-26.86-10.09-53.73-23-77.82q13.28-.11,26.55.54l0,.14C608.62,422.12,621,473.85,626.41,526A805.33,805.33,0,0,1,627.42,681.31Z"/><path class="cls-3" d="M815.21,129.52c9.29,9.46,18.33,19.15,26.94,29.19-23.1,36.18-73.06,44.21-111.25,30.39.53-8.76,1.54-17.49,2.85-26.28,2.6-17.36,5.63-34.68,9.62-51.79a363.4,363.4,0,0,1,13.78-46.14q2.18-5.73,4.6-11.38c1.44-3.34,4.39-7.48,5.06-11a13,13,0,0,1,1,1.31,44.11,44.11,0,0,1,3.37,6.69c5.24,12.34,8.09,25.57,13.43,37.9C791.65,104.57,803,117.06,815.21,129.52Z"/><path class="cls-3" d="M892.8,415.85c-11.72,33.27-27.89,65-47,94.65-3.76,5.85-8.42,15.94-16,17.35q-.69-5.77-1.76-11.48a2.6,2.6,0,0,0,1.24-1.82,181.78,181.78,0,0,0-8.91-104.19c-5.2-13-12-25-19.45-36.69-11.45-17.94-24.44-35-35.55-53.14a239,239,0,0,1-31.58-82.19c23.11,12.66,51,12.58,75.75,4.32a155.32,155.32,0,0,0,37.66-18.79c9.94-6.73,19-15,24.55-25.7q4.95,7.72,9.42,15.78a247.57,247.57,0,0,1,21,49.88,203.9,203.9,0,0,1,8.33,49.51C911.89,348.24,904.34,383.08,892.8,415.85Z"/><path class="cls-3" d="M823.13,597.47c-1.34,14.25-2.52,28.56-4,42.83-1.1,10.85-2.36,21.68-4,32.43a529.66,529.66,0,0,1-17.52,78.73c-4.45,14.3-9.15,29.26-16,42.61-3.25,6.3-8.54,11.41-15.86,7.57-6.06-3.18-10.23-9.45-14-14.93a144.33,144.33,0,0,1-16.86-32.58,147.58,147.58,0,0,1-9-46.85c-.11-3.86-6.11-3.76-6,.11,0,1.75.12,3.51.24,5.26.26,4.37.71,8.73,1.35,13.05a156.59,156.59,0,0,0,3.61,17.48s0,0,0,.05c.68,2.53,1.42,5,2.23,7.54l-.25,0q-43.08,8.67-86.78,13.29,4.36-10.62,7.72-21.6c12.51-40.54,15.73-84.17,17.57-126.18,2.38-54.17-1-109-13.33-161.95-6.23-26.71-16.07-52.55-30.37-76q17,2.24,33.8,5.72c26.34,5.5,51.74,13.31,76,25,22.85,11,44.88,25.34,61.16,45,16.51,20,26.7,44.36,30.42,69.93C826.92,548.34,825.43,573.1,823.13,597.47Z"/><path class="cls-4" d="M292.51,501.94a6.59,6.59,0,0,0-2.65-4.49c-.42-1.62-2.18-2.17-3.65-2l-2.24-.23c-.71-.11-1.42-.19-2.1-.24a2.52,2.52,0,0,0-2.51,1.32,6,6,0,0,0-.14-.61c-1.08-3.7-6.87-2.13-5.78,1.59,1.55,5.3-4.49,11.33-8.13,14.46a31.49,31.49,0,0,1-8.46,5.16,18.46,18.46,0,0,1-3.93.57,2.82,2.82,0,0,0-2.52,1.55l-.07,0c-3.68.06-3.78,5.59-.31,6a2.78,2.78,0,0,0,1.37.28,57.11,57.11,0,0,0,6.7-.6,2.61,2.61,0,0,0,2.88.8,79.42,79.42,0,0,0,8.73-3.89l.13,0,1.25-.49a53.2,53.2,0,0,0,13-7.46C287.47,511,293.23,506.94,292.51,501.94Zm-12.19,5.82c1.23-1.43,2.37-2.89,3.4-4.36A11.86,11.86,0,0,1,280.32,507.76Z"/><path class="cls-5" d="M251.39,505.31l-5.09.65a3.1,3.1,0,0,0-3,3c0,1.46,1.38,3.2,3,3l5.09-.65a3.09,3.09,0,0,0,3-3C254.39,506.85,253,505.11,251.39,505.31Z"/><path class="cls-6" d="M440.07,378.9a35.76,35.76,0,0,1,15.76,1.92,3.62,3.62,0,0,0-.2-2q-4.77-10.68-9.52-21.36a2.52,2.52,0,0,0-.77-1c0-.19.09-.38.12-.58.69-3.78-5.1-5.39-5.78-1.59a72.54,72.54,0,0,1-10.19,26.16,2.73,2.73,0,0,0-.44,1.48A36.49,36.49,0,0,1,440.07,378.9Z"/><path class="cls-6" d="M168.32,382.85a41.12,41.12,0,0,1,9.29-4.9c4-1.46,10.83-3.15,16.27-2.21a2.67,2.67,0,0,0-1.94-3.74c-.85-.18-1.71-.31-2.56-.42-.35-.53-.7-1.07-1-1.61a3,3,0,0,0-2-3.55,59.06,59.06,0,0,1-5.53-15.29,3,3,0,0,0-4.4-1.79c-4,2.21-3.47,7.05-4.1,11a72.44,72.44,0,0,1-5.54,18.26A3.22,3.22,0,0,0,168.32,382.85Z"/><path class="cls-7" d="M892.8,415.85c-11.72,33.27-27.89,65-47,94.65-3.76,5.85-8.42,15.94-16,17.35q-.69-5.77-1.76-11.48a2.6,2.6,0,0,0,1.24-1.82,181.78,181.78,0,0,0-8.91-104.19c-5.2-13-12-25-19.45-36.69a86.82,86.82,0,0,0,18-3.05c30.72-8.55,55-31.21,68.79-59.5a165.55,165.55,0,0,0,14.45-47.29,203.9,203.9,0,0,1,8.33,49.51C911.89,348.24,904.34,383.08,892.8,415.85Z"/><path class="cls-7" d="M860.57,450c3.87,0,3.87-6,0-6s-3.86,6,0,6Z"/><path class="cls-7" d="M819.15,640.3c-1.1,10.85-2.36,21.68-4,32.43a529.66,529.66,0,0,1-17.52,78.73c-4.45,14.3-9.15,29.26-16,42.61-3.25,6.3-8.54,11.41-15.86,7.57-6.06-3.18-10.23-9.45-14-14.93a144.33,144.33,0,0,1-16.86-32.58c12,11.25,30.06,5.8,40.88-4.62,11.14-10.71,17.71-25.52,22.43-40C805.65,686.66,809.18,662.19,819.15,640.3Z"/><path class="cls-7" d="M261.79,688.27c-5.51,14.27-6.62,30.28-6.23,45.45.28,10.53.88,21,.17,31.56-.57,8.38-1.46,22.91-10,27.52-6.6,3.56-14.82-1.33-20.12-5.19-7.25-5.26-13.12-12.23-18.22-19.53-2.36-3.39-4.6-6.87-6.76-10.4,1.32,0,2.64,0,3.94-.08a58.43,58.43,0,0,0,17.54-3c12.91-4.51,20.14-15.08,24.7-27.45,4.92-13.34,8.69-27.18,12.92-40.75a2.94,2.94,0,0,1,3.7-2C262.85,685.68,262.3,687,261.79,688.27Z"/><path class="cls-7" d="M725.16,743.23s0,0,0-.05c-2.24-5.93-4.09-11.83-3.61-17.48a18.35,18.35,0,0,1,3.51-9.44c1.75-2.43-1.69-5.76-4.11-4.11l-.75.5c-21.91,14.79-46.56,24-72.1,29.84q-3.37,11-7.72,21.6,43.65-4.64,86.78-13.29l.25,0C726.58,748.28,725.84,745.76,725.16,743.23Z"/><path class="cls-7" d="M563.41,769.12q21.23-.54,42.4-2c0-.1.06-.2.11-.3a183.33,183.33,0,0,0,7.7-18.34c-14.44,1.83-29,2.94-43.49,3.77Q567.1,760.77,563.41,769.12Z"/><path class="cls-7" d="M424.87,778.76c.79-1.28,1.59-2.56,2.4-3.82,2.2-4.94,4.83-9.71,7.46-14.37a213.32,213.32,0,0,1,14.71-23.05,3,3,0,0,0-4.83.36c-1.94,3.28-3.9,6.53-5.89,9.78-3,4-6,8-9,12a2.83,2.83,0,0,0-1.32,1.14c-.94,1.52-1.91,3-2.9,4.5q-4.8,6.39-9.83,12.59a89.37,89.37,0,0,1-14.18,10.85,15.45,15.45,0,0,1-7,1.09c-5.94-.51-10.54-4.93-13.13-10.11a44.14,44.14,0,0,1-2-10.93l.93-11.85a3.23,3.23,0,0,0,.06-.81l1.62-20.7a2.49,2.49,0,0,0-1.75-2.73,3.21,3.21,0,0,0-4.25,2.73q-.48,6.21-1,12.41a3.38,3.38,0,0,0-.21.7c-1.39,7.82-2.84,16.11-1.73,24.05q-.68,8.68-1.36,17.39c-.51,6.51-1.53,13.91,4.26,18.46,4.4,3.45,10.48,3.58,15.82,3.36,3-.12,3.68-3.85,1.94-5.36a2.49,2.49,0,0,0-.84-.48,21.32,21.32,0,0,0,2-.84,38,38,0,0,0,5.77-3.41l.05,0c1.72-1.42,3.33-2.94,4.82-4.44a137.74,137.74,0,0,0,9.79-11.07,104.74,104.74,0,0,0,8-7.44A3.18,3.18,0,0,0,424.87,778.76Z"/><path class="cls-7" d="M508.92,753.94c-19.71-.83-39.42-4.55-56.13-15.39q-2.9,6.16-6.2,12.14-3.75,6.79-7.95,13.5c20.19,2.07,40.43,3.58,60.71,4.42q15.21.63,30.42.78,3-7.65,5.65-15.45C526.58,754.23,517.74,754.31,508.92,753.94ZM498,764.1s0-.08,0-.08S498,764.1,498,764.1Z"/><path class="cls-8" d="M568.11,751.93c-.69.16-1.38.3-2.07.44a3,3,0,0,0-1.89-.23l-3.34.59a3.06,3.06,0,0,0-1.25,0,81.92,81.92,0,0,1-19.16.76c-3-.22-3.66,3.45-1.92,5.16,0,.07.08.16.14.23a10.22,10.22,0,0,0-3,5.38,3,3,0,0,0,0,1.4,28.56,28.56,0,0,0-1.3,4.25c-.72,3.26,3.52,4.9,5.21,2.82a45,45,0,0,0,13-.89l.25-.08h4.52c2.75,0,3.53-3,2.36-4.78a2.94,2.94,0,0,0,.12-.84v-.37a64.69,64.69,0,0,0,5.82-7.79l.18,0a2.56,2.56,0,0,0,2-3.59A3.49,3.49,0,0,0,568.11,751.93Z"/><path class="cls-8" d="M641.23,743.75A171.49,171.49,0,0,1,618,747.24c-3.27.26-3.76,4.67-1.43,5.76a18.26,18.26,0,0,0-6.37,8.67,2.77,2.77,0,0,0,1.53,3.4,3,3,0,0,0,4.42,2.17l.15,0a4.59,4.59,0,0,0,.39,2.41,2.91,2.91,0,0,0,2.59,1.48h.28a3,3,0,0,0,2.88-3c1.18-1.2,2.38-2.36,3.59-3.53a2.4,2.4,0,0,0,.59.46,3.34,3.34,0,0,0,1.56.37h.15a2.39,2.39,0,0,0,2.42-1.5c.08-.13.16-.27.25-.4.7,2.33,4,3.65,5.37.9q4.11-8.15,8.23-16.29A3,3,0,0,0,641.23,743.75Z"/><path class="cls-9" d="M402.12,367c-14.35-7-31.42-9.22-47.06-11.65s-31.48-4.41-47.33-4.61a284.65,284.65,0,0,0-45.26,3.37,221.58,221.58,0,0,0-22.68,4.59,79.42,79.42,0,0,0-10.3,3c-3.83,1.58-7.4,3.78-11.12,5.43-1.38.62.75,3.37,1.92,3.08,7.73-2,16-3,23.88-4.47,7.49-1.42,15-2.45,22.63-3.14,16.08-1.45,32-.77,48.05.46,15.31,1.18,30.56,2.68,45.74,5.08,7.85,1.23,15.65,2.8,23.5,4,6.87,1.07,14.13,2.81,21.1,1.91C408.84,373.62,403.23,367.55,402.12,367Z"/><path class="cls-9" d="M177.76,308c-4.42,2.87-9.17,5.56-13,9.23s-7.31,8.43-10.51,12.86a186.2,186.2,0,0,0-16.55,27.46c-9.85,20.2-16.9,42.66-21.31,64.69-.19.95,1.79,3.63,2.53,2.28,10.06-18.46,17.93-38.17,27.74-56.81A224.45,224.45,0,0,1,163,340.58c3.1-4.3,6.56-8.26,9.89-12.38,3.59-4.45,6.53-9.36,10.24-13.73C185.1,312.18,180.33,306.34,177.76,308Z"/><path class="cls-7" d="M501.8,425.82A86.62,86.62,0,0,0,494.61,412a6.08,6.08,0,0,0-1.25-1.18c1,3,1.5,6.18,2.36,9s.84,5.29,1.27,8.24c.07.49.14,1,.19,1.48,0,.14.06.29.08.43a88.57,88.57,0,0,1,1.27,17,181.25,181.25,0,0,1-4.18,37.79A281,281,0,0,1,483,522.31c-1.93,5.24-3.94,10.46-6.22,15.54-.28.93-.56,1.86-.85,2.78l-.27.63a218.32,218.32,0,0,1-21,37.1c-4.11,5.83-7.86,11.87-12.56,17.26a74.14,74.14,0,0,1-8.4,7.65,20.6,20.6,0,0,1-2.72,3.79,28.79,28.79,0,0,1-3.62,3.46,3.66,3.66,0,0,0,1.14,1.89c1.11-.44,2.21-.93,3.29-1.45,17.27-8.45,32.31-22.81,42.84-38.75a214.38,214.38,0,0,0,32.11-79.67,195.69,195.69,0,0,0,3-36C508.08,446.1,505.71,435.51,501.8,425.82Z"/><path class="cls-9" d="M769.6,85.28c.11-4.61.37-9.21-.51-13.75-.15-.81-1.6-2.77-2.6-2-2.87,2.09-4.32,5.6-6.1,8.6-2.11,3.57-4.54,6.82-5.82,10.77a124.14,124.14,0,0,0-5.15,26.38c-.91,9.44-1.8,18.7-1.95,28.2-.14,8.71-1.44,18.18-.18,26.79.18,1.2,4.35,6,5.11,3.39,1.09-3.74,1-7.76,1.48-11.63a93.17,93.17,0,0,1,2.86-13.4c2.21-7.86,4.07-15.85,6.54-23.64a166.36,166.36,0,0,0,6-25.13C770,95,769.5,90.12,769.6,85.28Z"/><path class="cls-9" d="M792.24,316.29c-2.9-6.28-6.66-12.25-10-18.31a59.25,59.25,0,0,1-4-9.87c-1.45-4.42-3.47-8.57-4.77-13.05-1.19-4.13-2.79-15.46-8.49-16.26-7-1-3.43,14.8-3.17,18.16a55.44,55.44,0,0,0,6.78,22.38c3.39,6.15,8.08,10.46,12.83,15.39a73.9,73.9,0,0,1,11.08,15.34c.32.57,2.88,3.13,3.39,1.45C797.55,326.21,794.4,321,792.24,316.29Z"/></g><g id="ink"><path d="M901.27,242.64a219.68,219.68,0,0,1,13.84,105.1c-4,35.83-15.28,70.59-30.07,103.36a478,478,0,0,1-25.72,49.07c-4.57,7.61-9.24,15.22-14.34,22.49-3.77,5.38-8,9.83-14.55,11.11,2.91,32.29-1.66,65.73-4.76,97.8-2.71,27.87-6,55.38-12,82.78-6.07,27.56-13.9,55.85-26.15,81.38-4.27,8.92-12.18,16.27-22.61,12.08-10.74-4.31-18.11-17.07-23.72-26.52a150.27,150.27,0,0,1-11.81-24.89,2.53,2.53,0,0,1-.51.15c-1.85.38-3.69.74-5.54,1.1a3.4,3.4,0,0,1,0,1,140.48,140.48,0,0,1-10.22,32.15c-3.67,7.93-9.27,15.92-18.34,17.88-8.63,1.88-15.27-3.12-20-9.9-6.55-9.48-12-19.86-17.94-29.75a3.38,3.38,0,0,1-.32-.74c-6.63.82-13.26,1.59-19.91,2.26a2.56,2.56,0,0,1-.62.07,978,978,0,0,1-201-.81,219.82,219.82,0,0,1-24,30.43c-5.89,6.17-13,12.06-21.45,14.2-7,1.79-16.31,1.27-20.81-5.28-5-7.24-2.16-17.4-1-25.37q1.27-9,2.56-18c-36.31-2-72.18-8.25-108.18-13.1,0,4.9-.09,9.76-.49,14.56-.83,9.77-2.33,22.27-10.38,29-11.41,9.57-27.21-1.23-35.89-9.49C201.89,774,193.22,757,184.41,741c-10.4-18.91-21.43-37.38-31-56.75-37.13-75.33-58.95-160.78-44.66-244.78,6.34-37.31,19.73-73.79,41.15-105.12a226.29,226.29,0,0,1,16.88-21.76c2.5-2.85,5.45-7.23,9.63-7.54,3.36-.26,5.9,2.28,7.93,4.6A284.8,284.8,0,0,1,220,361.43c59.5-19,123.8-19.95,182.51,2.47a250.82,250.82,0,0,1,20.5-35.57c3.95-5.7,8-11.83,12.75-16.9,4.23-4.51,8-1.3,11.86,1.9a170.22,170.22,0,0,1,46,60.18,468.39,468.39,0,0,1,59-4.94,2.9,2.9,0,0,1,1.21,0,463.55,463.55,0,0,1,132.43,16.79C737.6,399.63,790,427.81,814.91,476.86a139.14,139.14,0,0,1,10.26,26.81,172.21,172.21,0,0,0,1.9-19.39c1.51-39.14-10.64-75.49-31.6-108.17-10.13-15.79-21.42-30.8-31.54-46.59a257.27,257.27,0,0,1-24.63-48.83c-13.15-35.17-17.92-73-12.69-110.2,5-35.52,11.46-71.18,23.92-104.92q4.13-11.16,9.1-22c1.63-3.51,3.64-9.68,8.75-7.58,3.86,1.59,6,6.9,7.55,10.39a121.55,121.55,0,0,1,4.79,12.8C786.51,77,792,94.45,804.32,109s26.91,27.4,39.27,42.12C867.08,179.07,887.87,208.39,901.27,242.64ZM892.8,415.85c11.54-32.77,19.09-67.61,17.68-102.51S898,244.45,881.18,214q-4.45-8.07-9.42-15.78c-5.52,10.72-14.61,19-24.55,25.7a155.32,155.32,0,0,1-37.66,18.79c-24.73,8.26-52.64,8.34-75.75-4.32a239,239,0,0,0,31.58,82.19c18.34,30,41.8,56.91,55,89.83a181.78,181.78,0,0,1,8.91,104.19,2.6,2.6,0,0,1-1.24,1.82q1.07,5.71,1.76,11.48c7.61-1.41,12.27-11.5,16-17.35C864.91,480.86,881.08,449.12,892.8,415.85ZM843.43,219.19c10.29-6.88,19.47-15.34,24.49-26.87a358.49,358.49,0,0,0-21.75-28.84c-24.71,36.48-75.58,45.8-115.56,31.85a193,193,0,0,0,.54,23c.35,4.11.84,8.21,1.42,12.3,22.6,14.29,50.46,14.53,75.28,6.25A150.48,150.48,0,0,0,843.43,219.19Zm-20.3,378.28c2.3-24.37,3.79-49.13.24-73.46-3.72-25.57-13.91-49.95-30.42-69.93-16.28-19.69-38.31-34.06-61.16-45-24.3-11.65-49.7-19.46-76-25Q639,380.6,622,378.37c14.3,23.44,24.14,49.28,30.37,76,12.34,52.91,15.71,107.78,13.33,161.95-2.17,49.59-6.26,101.42-25.29,147.78q43.65-4.64,86.78-13.29l.25,0a154.16,154.16,0,0,1-7.45-43.38c-.11-3.87,5.89-4,6-.11a146.81,146.81,0,0,0,25.82,79.43c3.79,5.48,8,11.75,14,14.93,7.32,3.84,12.61-1.27,15.86-7.57,6.87-13.35,11.57-28.31,16-42.61a529.66,529.66,0,0,0,17.52-78.73C818.9,647.83,820.77,622.55,823.13,597.47Zm19-438.76c-8.61-10-17.65-19.73-26.94-29.19-12.22-12.46-23.56-25-30.56-41.13-5.34-12.33-8.19-25.56-13.43-37.9a44.11,44.11,0,0,0-3.37-6.69,13,13,0,0,0-1-1.31c-.67,3.54-3.62,7.68-5.06,11q-2.43,5.64-4.6,11.38A363.4,363.4,0,0,0,743.37,111c-4,17.11-7,34.43-9.62,51.79-1.31,8.79-2.32,17.52-2.85,26.28C769.09,202.92,819.05,194.89,842.15,158.71ZM709.92,783a137.11,137.11,0,0,0,7.19-24.15q-26,4.92-52.26,8.42l-2,.25q6.89,11.52,13.77,23c3.89,6.48,8.85,14.73,17.76,12C702.92,800,706.87,790.49,709.92,783ZM654,684c6.67-52.07,8.55-105.24,3.72-157.55-4.77-51.69-15-104.5-43.3-148.85,0-.07-.06-.14-.1-.2q-11.31-1.29-22.66-2a390.51,390.51,0,0,1,28.78,79.88c12.76,52.11,16.22,106.1,15.75,159.59-.45,51-1.77,104.71-23.58,151.74q10.5-.81,21-1.86C644.61,739.12,650.47,711.66,654,684Zm-26.59-2.73a805.33,805.33,0,0,0-1-155.33c-5.43-52.13-17.79-103.86-41.54-150.81l0-.14q-13.27-.64-26.55-.54c12.87,24.09,18.83,51,23,77.82,8.51,55.39,8.93,111.12,8,167-.8,50.88-5,102.77-25.87,149.77q21.23-.54,42.4-2c0-.1.06-.2.11-.3C618.92,740.1,624.74,710.71,627.42,681.31Zm-44-72.52c.22-27.19.37-54.44-.67-81.62a635.14,635.14,0,0,0-8.63-81.74c-4.16-24.56-10.33-49-22.63-70.83q-8,.18-16,.64c10.89,26,17.6,53.48,21.61,81.38,7.52,52.27,6.95,106.06,5.38,158.73-1.56,52.24-7.21,105.06-26.33,154.06q10.32,0,20.63-.12c12.13-26.3,18.87-54.63,22.46-83.29C582.45,660.41,583.19,634.56,583.4,608.79Zm-32.07,75c7-51.93,6.74-105.25,5.24-157.54-1.46-51.25-7.2-103.06-27.38-150.63q-16.7,1.19-33.3,3.57c-.17,2.6-4.7,3.45-6,.41a164.38,164.38,0,0,0-41.41-57.69c-1.79-1.6-4.61-5.06-6.9-5.83-1.87-.63-1.9,0-3.13,1.56q-1.4,1.72-2.76,3.48c-4.19,5.41-8.13,11-11.85,16.75A254.1,254.1,0,0,0,406,370.59c-1.3,2.86-5,1.44-5.48-1.06-58.37-22.15-121.94-20.94-181-1.66a2.88,2.88,0,0,1-1.76,0,2.6,2.6,0,0,1-1.86-1.44A297.35,297.35,0,0,0,200.1,340a271.86,271.86,0,0,0-19.31-25.38c-1.48-1.71-1.55-2.3-4-2.18s-2.58.82-4.09,2.49-2.79,3.16-4.16,4.77q-4.08,4.8-7.87,9.85a234.38,234.38,0,0,0-27.13,46.87c-14.65,33.48-22,70.07-23.11,106.52-2.62,84.55,28,166,69.64,238.27,9,15.62,17,32,27.33,46.84,5.1,7.3,11,14.27,18.22,19.53,5.3,3.86,13.52,8.75,20.12,5.19,8.54-4.61,9.43-19.14,10-27.52.71-10.52.11-21-.17-31.56-.39-15.17.72-31.18,6.23-45.45,6.22-16.08,18.36-27,34.27-33.27,16.52-6.48,35.39-9.79,51.63-.92,13.86,7.57,23.76,21.52,28.62,36.33,6.31,19.25,4.62,40.08,2.08,59.82-1.39,10.74-3,21.46-4.49,32.18-1.18,8.4-6.29,25,6.3,26.75,9.92,1.4,18.8-5.33,25.36-11.95,6.93-7,13-15,18.78-22.92,11.89-16.28,22.06-33.88,29.22-52.76,1.36-3.57,7.19-2.12,5.82,1.49a213.28,213.28,0,0,1-12.79,27.67q-3.75,6.79-7.95,13.5c20.19,2.07,40.43,3.58,60.71,4.42q15.21.63,30.42.78C540.66,741.91,547.38,713.06,551.33,683.81ZM372.45,749.68c2.85-21.8,4.77-45.89-5.44-66.18-8.33-16.58-23.89-29.85-43.26-28.93-20.39,1-43.33,10.69-53.35,29.24-10.52,19.48-8.85,41.35-8.41,62.86,36.31,4.84,72.46,11.18,109.08,13.17C371.54,756.46,372,753.07,372.45,749.68Z"/><path d="M494.52,414.08a2.79,2.79,0,0,0-.59-1.15c6.4,26.45,2.38,54.66-3.63,80.8a252.35,252.35,0,0,1-30.15,74.86,210.89,210.89,0,0,1-34.32,42.31,3,3,0,0,0,3.55-.39c26.53-23.59,43.78-55.35,55.55-88.45C497,488,504.16,449.65,494.52,414.08Z"/><path d="M460.15,380.28c1.2,3.69-4.57,5.37-5.75,1.7a152.69,152.69,0,0,0-12-27.47q-4.8,14-10.88,27.49c-1.58,3.52-6.81.57-5.23-2.94a304,304,0,0,0,12.44-32.51,3,3,0,0,1,5.47-.82A158,158,0,0,1,460.15,380.28Z"/><path d="M376.5,497.9l-4.71,1.83a179.34,179.34,0,0,0-18.37,8.62l-.26-.43a157,157,0,0,1,17.59-10.46l4.62-2.25,4.69-2.11,4.77-1.93,4.83-1.79,4.87-1.69,4.92-1.59c1.65-.47,3.32-.92,5-1.32s3.39-.65,5.09-.94,3.42-.42,5.13-.59,3.44-.25,5.16-.29,3.45,0,5.17,0,3.45.24,5.17.48l0,.49c-1.67.52-3.33.91-5,1.3s-3.29.83-4.94,1.18-3.28.77-4.92,1.16-3.26.78-4.89,1.15-3.26.77-4.89,1.1-3.27.72-4.91,1L395.74,492l-4.87,1.24L386,494.63l-4.79,1.58Z"/><path d="M409,454.36c1.84-.15,3.66-.32,5.51-.36l.1.49c-1.67.78-3.37,1.43-5.06,2.09s-3.36,1.35-5.05,2-3.36,1.28-5,1.92l-5,1.91c-1.67.64-3.34,1.27-5,1.85s-3.36,1.21-5.05,1.77l-5.07,1.78-5,2-4.93,2.13-4.88,2.26-4.85,2.35L354.81,479c-6.37,3.34-12.54,7.09-18.58,11.05l-.3-.4a191.6,191.6,0,0,1,17.61-12.81l4.65-2.88,4.72-2.76,4.81-2.6,4.88-2.48,4.93-2.39,5-2.31c1.68-.71,3.38-1.4,5.09-2.05s3.47-1.16,5.22-1.71l5.31-1.38c1.8-.37,3.58-.78,5.39-1.09S407.14,454.6,409,454.36Z"/><path d="M289.15,492.56c5.51,1.33,9.2,6.06,7.94,11.8-1.65,7.48-9.77,11-15.68,14.63-5.52,3.36-11.41,7.69-17.94,9a2.82,2.82,0,0,1,.33.94,64.9,64.9,0,0,0,10.54,26.53c2.18,3.2-3,6.3-5.13,3.12A69,69,0,0,1,258,530.61a3.12,3.12,0,0,1,.5-2.29c-7.5-.47-15-5.23-21.59-8.3-4.76-2.23-11.08-5.92-8.45-12.18,1.35-3.21,6.06-5.07,8.82-7.14a2.69,2.69,0,0,1,1.41-.56,132.55,132.55,0,0,1,26.44-6.74C272.67,492.3,281.68,490.75,289.15,492.56Zm-9.27,20.34c3.35-2,14.49-7.18,11-12.75-2.52-4-12.77-2.06-16.52-1.77A127.12,127.12,0,0,0,240.26,506c-1.48,1.06-3.78,2.2-4.8,3.62-2.61,3.63,9,7.32,11.74,8.6,5.8,2.69,11.23,5.43,17.67,3.19C270.21,519.51,275.08,515.82,279.88,512.9Z"/><path d="M284.49,463.41a8.52,8.52,0,0,1-1.08,4.31l-1.3,1.75a8.22,8.22,0,0,1-9.25,1.93,6.33,6.33,0,0,1-2.77-1.71l-.78-.75a8.51,8.51,0,0,1-2.25-3.71c-.12-.75-.23-1.5-.35-2.25a8.52,8.52,0,0,1,1.08-4.31l1.3-1.75a8.22,8.22,0,0,1,9.25-1.93,6.33,6.33,0,0,1,2.77,1.71l.78.75a8.51,8.51,0,0,1,2.25,3.71C284.26,461.91,284.37,462.66,284.49,463.41Z"/><path d="M258.47,464.48a6.29,6.29,0,0,1-.67,3.29,6.4,6.4,0,0,1-1.7,2.77,6.52,6.52,0,0,1-2.71,1.81,6.43,6.43,0,0,1-3.26.79,15.58,15.58,0,0,1-2.46-.29l-.18-.06a10.29,10.29,0,0,1-4-2.26,8.61,8.61,0,0,1-2.28-3.31,6.67,6.67,0,0,1-.73-2.51,8.07,8.07,0,0,1-.18-1.52,10.26,10.26,0,0,1,1.15-4.59,2.12,2.12,0,0,1,.11-.21,17.9,17.9,0,0,1,1.38-1.86,8.44,8.44,0,0,1,3.71-2.26l2.26-.34a8.52,8.52,0,0,1,6,2.37,6.33,6.33,0,0,1,1.81,2.71,6.61,6.61,0,0,1,.5,1.2,8.76,8.76,0,0,1,.9,2C258.24,463,258.36,463.73,258.47,464.48Z"/><path d="M197.35,488.87A42.77,42.77,0,0,1,206.89,504l-.46.19a43.39,43.39,0,0,0-10.82-13.52,74.13,74.13,0,0,0-6.87-5.33c-2.37-1.68-4.82-3.26-7.31-4.79s-5-2.94-7.62-4.29-5.11-2.77-7.61-4.25l-7.51-4.52c-2.5-1.53-5-3.07-7.51-4.8l.18-.47a50.18,50.18,0,0,1,8.79,2.07,72.89,72.89,0,0,1,8.38,3.3,57.36,57.36,0,0,1,7.82,4.43c2.48,1.68,4.9,3.45,7.31,5.2s4.8,3.57,7.11,5.48A78.23,78.23,0,0,1,197.35,488.87Z"/><path d="M194.12,373.24c1.38,3.63-4.39,5.29-5.75,1.71l-5.21-13.71c-1-2.62-2.51-8.83-5.78-10.1-1.91,4.39-2,10.23-2.8,14.7a51.39,51.39,0,0,1-4.49,14.81c-1.73,3.46-7,.52-5.24-2.93,3.39-6.76,3.88-14.26,5.26-21.58.72-3.84,1.31-11.54,6.71-11.36,4.74.15,7.87,4.74,9.64,8.57C189.43,359.76,191.61,366.64,194.12,373.24Z"/><path d="M168.4,516.39a64,64,0,0,1,7.14.47,18.85,18.85,0,0,1,6.85,2.15l-.21.45c-4.4-1.58-9-1.07-13.68-.57-2.33.23-4.66.47-7,.75s-4.61.56-6.88,1c-4.56.74-8.87,2.21-13.18,3.27a97.51,97.51,0,0,0-13,4.41l-.31-.38a21.49,21.49,0,0,1,5.21-5.21l.75-.56.78-.49c.53-.33,1.06-.64,1.6-1a35.24,35.24,0,0,1,3.36-1.56,30,30,0,0,1,7.1-1.87c2.41-.28,4.82-.49,7.21-.64s4.76-.25,7.13-.29S166.05,516.35,168.4,516.39Z"/></g></svg>