<?xml version="1.0" encoding="UTF-8"?>
<svg viewBox="0 0 332.75101 223.88211" xmlns="http://www.w3.org/2000/svg" xmlns:xlink="http://www.w3.org/1999/xlink">
 <defs>
  <linearGradient id="a">
   <stop stop-color="#ffbdd8" offset="0"/>
   <stop stop-color="#913f61" offset="1"/>
  </linearGradient>
  <linearGradient id="e" x1="214" x2="239.06" y1="424.43" y2="449.49" gradientUnits="userSpaceOnUse" xlink:href="#a"/>
  <linearGradient id="d" x1="348.08" x2="311.49" y1="461.22" y2="466.31" gradientUnits="userSpaceOnUse" xlink:href="#a"/>
  <linearGradient id="c" x2="0" y1="600.46" y2="577.81" gradientUnits="userSpaceOnUse" xlink:href="#a"/>
  <radialGradient id="b" cx="266.99" cy="532.78" r="69.094" gradientTransform="matrix(1.8926 -.02263 .01231 1.0299 -244.45 -10.147)" gradientUnits="userSpaceOnUse" xlink:href="#a"/>
 </defs>
 <g transform="translate(-184.69 -410.84)" stroke="#000" stroke-linecap="round" stroke-linejoin="round" stroke-width="3">
  <path d="m267.73 450.79c-7.7473 0-13.978 6.3974-13.978 14.312l39.091 135.43 6.9434 16.812h31.107v-13.562c0-7.9151 6.2312-14.281 13.978-14.281h46.096c7.7473 0 10.834-20.218 9.8912-11.06l-2.8611 27.791c-3.7177 11.144 35.878 13.891 38.086 1.6349l37.256-142.76c-2.0301-7.6503-6.2312-14.312-13.978-14.312z" fill="#fff"/>
  <path d="m412.48 522.78c-20.449 0-37.041 16.952-37.041 37.844 0 10.462 4.1709 19.933 10.889 26.781-0.42101 3.614-0.58116 7.0842-0.58116 8.4062 0 3.1918 2.5346 5.7812 5.6587 5.7812s5.6587-2.5895 5.6587-5.7812c0-0.21847-0.0246-0.51692-0.0612-0.84375 0.95746 0.45099 1.937 0.88222 2.9364 1.25-0.18935 1.4429-0.30587 2.6914-0.30587 3.2812 0 3.1918 2.5346 5.7812 5.6587 5.7812s5.6587-2.5895 5.6587-5.7812c0-0.23258-0.0401-0.70799-0.0612-1.0938 0.53042 0.023 1.0546 0.0312 1.5905 0.0312 0.38142 0 0.7531-0.0196 1.1317-0.0312-0.0552 0.66548-0.0917 1.2848-0.0917 1.625 0 3.1918 2.5346 5.75 5.6587 5.75s5.6281-2.5582 5.6281-5.75c0-0.6274-0.0943-2.0155-0.2753-3.625 0.98049-0.34474 1.934-0.76298 2.8752-1.1875-3.1e-4 0.0166 0 0.0466 0 0.0625 0 3.1918 2.504 5.7812 5.6281 5.7812s5.6587-2.5895 5.6587-5.7812c0-1.19 0.22265-4.5536 0.33646-8.3125 6.4791-6.8124 10.461-16.095 10.461-26.344 0-20.891-16.562-37.844-37.011-37.844z" fill="url(#c)"/>
  <path d="m473.34 465.1c-0.0659-7.9148-6.2312-14.312-13.978-14.312h-191.63c-7.7473 0-12.17 6.6069-13.978 14.312l-31.897 135.88c-1.8088 7.7056 6.2312 14.281 13.978 14.281h20.249l30.52-28.601 15.077 40.903c5.633 9.8367 23.153 4.8292 31.107 0l-1.893-23.785c-0.62797-7.8901 6.2312-14.281 13.978-14.281h104.63" fill="#fff"/>
  <path d="m431.18 576.89 29.793 46.585h11.47c7.7473 0 14.694-6.3986 13.978-14.281l-13.079-144.09c-0.71552-7.8827-6.2312-14.312-13.978-14.312h-191.63" fill="#fff"/>
  <path d="m467.69 475.58c24.301 40.455 29.051 53.625 38.191 93.952 1.7478 7.711 5.6999 6.54 5.6999-1.3751-8.1755-23.858-16.128-116.25-52.218-117.37h-191.63" fill="#fff"/>
  <path d="m507.94 566.19c-2.995 0.56005-4.3605 5.4938-3.9659 8.7226 0.58339 4.7735 9.3379 9.9908 8.5157 18.372 0.59439 0.80968 4.7063-14.243 3.0692-19.47-1.1462-3.6598-4.08-8.2856-7.6189-7.6239z"/>
  <path d="m297.88 617.27-22.359-60.755"/>
  <path d="m375.06 450.78c-10.963 11.154 10.575 18.269 12.449 25.25 2.7202 10.131-18.79 22.515-13.306 31.594 4.4163 7.3103 18.207 4.9613 24.592 6.0938 15.08 2.6744 11.664 20.195 34.411 10.781 3.396-1.4054 23.301-31.229 24.286-37.344 1.1891-7.3811-5.519-13.232-4.0681-20.438 1.0289-5.1096 4.8406-10.456 5.3528-15.938h-83.718z"/>
  <path d="m340.38 467.5c-27.202-2.4432-21.86 31.048-4.0764 40.132 6.8093 3.4784 28.48-24.286 21.864-31.046-4.7969-4.9008-10.583-8.4394-17.788-9.0866z"/>
  <path d="m360.02 538.59c-38.792-11.102-0.0702 36.121 5.5587 38.996 8.264 4.2215 20.556-5.8646 27.793-8.3293 5.9666-2.032 8.9696 7.7228 15.194 4.5433 6.2418-3.1885 24.45-17.424 16.305-25.745-8.6602-8.8478-56.448-9.4652-64.851-9.4652z"/>
  <path d="m232.48 556.25-8.162 35.147c2.6254-0.0579 15.14 6.9605 18.57 3.1267 3.8234-4.2741 0.40594-16.477 0.73102-22.324 1.9783-5.6261 11.191-12.138-11.139-15.95z"/>
  <path d="m457 573.44c16.102 5.082 5.52 17.122 12.318 23.544 3.1914 2.9371 14.82-0.85285 15.54-5.0761l-2.3694-25.696c-14.956-15.84-21.147-4.8433-25.489 7.2289z"/>
 </g>
 <g transform="translate(-184.69 -410.84)">
  <path d="m222.81 419.97c-1.1797-0.35897-2.3448-0.70167-3.5112-1.0208-4.6563-1.2741-3.9427 0.88673-8.7578 1.5994-0.87801 7.825 19.529 21.183 27.078 31.652-11.078 25.018-22.764 49.362-45.863 60.901l120.87 36.995c-12.684-22.491-8.7419-49.206-3.9194-76.138 12.116-4.4509 36.503-4.0981 40.156-11.074-3.5914-3.2856-1.7906-4.6768-6.3623-6.2272-9.1619-3.107-19.621-5.6283-27.853-3.7069 0.0601-0.3922-1.9441-2.0965-1.8856-2.4883l-65.351-20.002c-0.1708 0.35745-2.7855 0.64797-2.9553 1.0066-5.0285-5.4251-13.389-8.9798-21.645-11.497z" fill="#fff" stroke="#000" stroke-linecap="round" stroke-linejoin="round" stroke-width="3"/>
  <path transform="matrix(.95621 .29267 -.29267 .95621 156.27 -48.933)" d="m248.91 472.04a1.5905 3.3797 0 1 1 -3.1809 0 1.5905 3.3797 0 1 1 3.1809 0z" fill="none" stroke="#000" stroke-linecap="round" stroke-linejoin="round" stroke-width="3"/>
  <path transform="matrix(.95621 .29267 -.29267 .95621 183.65 -40.554)" d="m248.91 472.04a1.5905 3.3797 0 1 1 -3.1809 0 1.5905 3.3797 0 1 1 3.1809 0z" fill="none" stroke="#000" stroke-linecap="round" stroke-linejoin="round" stroke-width="3"/>
  <path transform="matrix(.95621 .29267 -.29267 .95621 155.1 -61.423)" d="m334 540.83a67.594 33.201 0 1 1 -135.19 0 67.594 33.201 0 1 1 135.19 0z" fill="url(#b)" stroke="#000" stroke-linejoin="round" stroke-width="3"/>
  <g fill="#903f5f" stroke="#000" stroke-linecap="round" stroke-linejoin="round" stroke-width="3">
   <path transform="matrix(.73195 .68135 -.68135 .73195 344.66 -133.48)" d="m415.51 531.29a8.7475 4.175 0 1 1 -17.495 0 8.7475 4.175 0 1 1 17.495 0z"/>
   <path transform="matrix(-.98792 .15495 .15495 .98792 547.83 -71.299)" d="m415.51 531.29a8.7475 4.175 0 1 1 -17.495 0 8.7475 4.175 0 1 1 17.495 0z"/>
  </g>
  <path d="m230.75 540.42c-5.3636 19.981 35.231 23.487 33.838 10.357" fill="none" stroke="#000" stroke-linecap="round" stroke-linejoin="round" stroke-width="3"/>
  <path d="m211.76 422.03c-0.23376 6.4958 15.338 21.223 25.79 30.737l1.5231-4.7628c-1.9982-3.7262-4.4318-8.2501-4.7387-8.5422-0.32213-0.30657 3.4202 1.9299 6.2984 3.6599l1.2122-3.7468c-7.9099-10.924-18.273-16.074-30.084-17.346z" fill="url(#e)" stroke="#000" stroke-linecap="round" stroke-linejoin="round" stroke-width="3"/>
  <path d="m347.37 462.97c-3.4421 5.5139-24.589 9.0029-38.576 11.037l1.4036-4.7994c3.7415-1.9694 8.2902-4.3562 8.708-4.4265 0.43854-0.0738-3.9145-0.31502-7.2679-0.4924l1.0926-3.7834c12.669-4.6251 24.139-3.0932 34.639 2.4645z" fill="url(#d)" stroke="#000" stroke-linecap="round" stroke-linejoin="round" stroke-width="3"/>
  <g transform="matrix(.95621 .29267 -.29267 .95621 157.36 -61.565)">
   <use transform="matrix(-1 0 0 1 528.58 0)" width="744.09448" height="1052.3622" xlink:href="#f"/>
   <g id="f">
    <path d="m245.34 420.93c-5.8175-1.8813-12.044 21.319-8.6871 31.978 6.8382 3.408 13.161 2.8964 19.112-0.43806-12.551-9.7506-4.607-29.659-10.425-31.54z" fill="#d38d5f" stroke="#000" stroke-linecap="round" stroke-linejoin="round" stroke-width="3"/>
    <path d="m238.68 429.8c0.94137 0.69784 2.093 0.8655 3.2623 0.8655" fill="#ffbdd8" stroke="#000" stroke-linecap="round" stroke-linejoin="round" stroke-width="3"/>
    <path d="m236.62 438.45c1.2901 0.6152 2.7464 0.50053 4.1278 0.5992" fill="#ffbdd8" stroke="#000" stroke-linecap="round" stroke-linejoin="round" stroke-width="3"/>
    <path d="m236.55 447.38c1.0828 0.19778 2.2418 0.29586 3.3954 0.19973" fill="#ffbdd8" stroke="#000" stroke-linecap="round" stroke-linejoin="round" stroke-width="3"/>
   </g>
  </g>
 </g>
</svg>
