<?xml version="1.0" encoding="UTF-8"?>
<svg enable-background="new 0 0 199.862 173.088" viewBox="0 0 199.862 173.088" xmlns="http://www.w3.org/2000/svg">
 <path d="m179.756,58.05c1.332-6.192.756-12.168-1.332-18.36-2.123-6.264-4.895-12.816-11.664-18.54-7.02-5.832-19.15-12.06-29.734-15.624-10.656-3.528-21.42-5.22-33.697-5.508-12.492-.54-27.576-.036-39.852,3.312-12.42,3.42-25.092,10.332-33.3,16.992-8.172,6.48-13.104,14.364-15.228,22.14-2.124,7.74-1.512,15.48 2.232,23.796-.324,3.024-1.764,4.68-4.464,5.112-2.844.252-9.756-3.492-11.7-2.88-1.872.72-.936,5.328.432,6.876 1.224,1.476 3.6,2.052 7.128,1.872-2.556,1.368-3.888,2.7-3.996,3.996-.144,1.296.936,2.448 3.24,3.6l-6.948,9.217 .504,4.967c2.232-.252 4.392-.359 6.876-.035 2.376.18 4.896.791 7.56,1.547-2.16,2.881-3.492,5.689-3.852,8.424-.432,2.736.072,5.186 1.512,7.74-.576,6.373.252,11.916 2.196,17.029 1.908,4.932 2.628,7.811 9.648,13.066 7.056,5.221 19.656,13.5 32.256,18.037 12.456,4.463 26.244,8.928 42.336,8.244 16.091-1.008 40.716-5.725 53.316-13.32 12.385-7.705 19.188-17.965 20.699-31.752l3.637-1.98c2.34-3.527 3.527-7.092 3.961-10.691 .359-3.709-.289-7.309-1.801-11.088 .217-2.016.432-4.428.359-7.236-.072-2.951-.287-6.119-.646-9.936 1.943.144 4.211.539 6.406,1.475 2.232.865 4.682,4.537 7.057,3.781 2.412-.973 6.768-4.428 6.947-8.82 0-4.392-3.455-12.888-6.768-17.136-3.382-4.249-7.775-7.021-13.32-8.317z" fill-rule="evenodd" stroke="#000" stroke-miterlimit="10" stroke-width=".036"/>
 <path d="m176.95,60.966c-1.98,8.028-7.164,14.364-16.236,19.404-9.252,4.86-23.508,8.496-37.908,9.937-14.545,1.223-32.868.215-47.628-1.656-14.688-1.944-30.132-4.212-39.96-9.289-10.009-5.184-16.993-13.032-19.153-21.204-2.16-8.316.36-19.152 6.732-27.504 6.444-8.388 19.908-17.316 31.248-22.068 11.304-4.788 24.408-5.472 35.424-6.228 10.764-.828 18.936-.288 28.943,1.476 9.9,1.656 20.988,3.924 30.061,8.748 9.035,4.716 18.469,11.808 23.436,19.908 4.752,8.172 6.804,20.304 5.041,28.476z" fill="#c6902c" fill-rule="evenodd" stroke="#000" stroke-miterlimit="10" stroke-width=".036"/>
 <path d="m180.045,59.994c3.492.9 6.48,2.7 9.252,5.796 2.627,2.952 6.119,8.172 7.02,12.204 .863,3.924-.539,9.649-1.729,11.34-1.332,1.477-3.059-.756-6.012-1.836-3.168-1.188-8.172-3.312-12.383-4.428-4.32-1.116-8.424-1.836-12.854-2.16 3.277-.756 6.266-2.988 9.109-6.408 2.773-3.6 5.258-8.244 7.597-14.508z" fill="#00c200" fill-rule="evenodd" stroke="#000" stroke-miterlimit="10" stroke-width=".036"/>
 <path d="m152.29,103.23c-3.096.971-5.545,3.383-7.633,7.631-2.123,4.248-3.635,9.793-4.68,17.316-.469-1.404-2.916-3.313-7.344-5.725-4.537-2.482-10.908-5.436-19.404-9 .9-1.439 1.908-2.268 3.564-2.482 1.547-.252 4.031,1.439 5.652,1.043 1.584-.611 2.664-1.764 3.635-3.996 1.477,1.621 2.881,2.377 4.5,2.125 1.512-.252 3.24-3.529 4.752-3.564 1.369-.107 2.592.791 3.672,2.844 .793-3.672 2.305-6.012 4.537-7.02 2.196-1.08 5.112-.756 8.749.828z" fill="#f2c802" fill-rule="evenodd" stroke="#000" stroke-miterlimit="10" stroke-width=".036"/>
 <path d="m112.438,114.174c3.238,1.332 6.227,2.629 8.963,3.889 2.664,1.08 4.355,1.727 7.453,3.455 3.131,1.729 6.73,4.033 11.088,7.057l-.576,3.779c-4.248-3.348-8.676-6.156-13.285-8.711-4.68-2.592-9.539-4.645-14.58-6.445 .289-1.009.613-2.016.937-3.024z" fill="#f2c802" fill-rule="evenodd" stroke="#000" stroke-miterlimit="10" stroke-width=".036"/>
 <path d="m2.421,93.727 6.444-6.913c2.592,2.016 4.824,3.096 6.696,3.383 1.692.145 2.952-2.16 4.32-2.051 1.404,0 2.304,2.771 4.068,2.482 1.62-.432 4.752-4.499 5.94-4.283 1.116.18 1.404,2.195.864,5.76 .684,1.439 1.08,2.484 1.332,3.529 .144.936.108,1.691-.108,2.268-3.708-1.369-7.992-2.305-12.852-2.953-4.932-.611-10.332-.936-16.344-.828l-.36-.394z" fill="#f2c802" fill-rule="evenodd" stroke="#000" stroke-miterlimit="10" stroke-width=".036"/>
 <path d="m33.021,99.486c-2.628-1.152-6.516-2.16-11.664-2.881-5.22-.828-11.628-1.367-19.368-1.764l.648,2.34c2.736.289 5.76.648 9.072,1.225 3.276.432 6.804,1.115 10.584,2.051 3.708.828 7.344,1.908 11.304,3.24-.18-1.404-.36-2.806-.576-4.211z" fill="#f2c802" fill-rule="evenodd" stroke="#000" stroke-miterlimit="10" stroke-width=".036"/>
 <path d="m33.165,81.918c-.54,2.808-.432,5.867-.072,9.18 .396,3.24 1.188,7.271 2.52,10.439 1.296,3.133 1.44,6.266 5.292,8.281 3.78,1.836 11.664,6.408 17.388,3.168 5.616-3.385 10.836-10.873 16.056-22.861-5.868-.322-12.06-1.15-18.972-2.482-6.948-1.405-14.22-3.313-22.212-5.725z" fill="#00c200" fill-rule="evenodd" stroke="#000" stroke-miterlimit="10" stroke-width=".036"/>
 <path d="m18.441,101.43c3.024.289 5.868.863 8.676,1.584 2.808.648 5.292,1.584 7.884,2.664 .468,2.268 1.728,4.248 3.924,5.939 2.088,1.549 5.94,3.168 8.928,3.889 2.916.721 5.616,1.512 8.784.432 3.06-1.223 6.408-3.672 9.9-7.488 2.34.18 4.716.217 7.272-.035 2.484-.252 5.004-.756 7.704-1.512-1.008,2.592-.684,4.32 1.26,5.039 1.908.721 5.184.504 9.972-.648l-1.188,8.316c-5.436,2.916-11.628,4.717-18.972,5.545-7.452.828-15.66,2.951-24.768-.865-9.108-4.032-18.756-11.52-29.376-22.86z" fill="#f00" fill-rule="evenodd" stroke="#000" stroke-miterlimit="10" stroke-width=".036"/>
 <path d="m100.84 116.66c2.196 2.736 5.724 5.076 10.728 7.02 4.969 1.943 11.16 3.275 18.865 4.393-4.572-2.16-8.678-4.104-12.313-5.977-3.709-1.908-6.877-3.492-9.648-5.039l-4.283-6.336-3.349 5.939z" fill="#f00" fill-rule="evenodd" stroke="#000" stroke-miterlimit="10" stroke-width=".036"/>
 <path d="m111.645,107.262c-1.367-5.148-2.771-10.295-4.176-15.443-7.632.252-13.86.252-19.116.143-5.256-.18-9.252-.504-12.132-.971-3.492,5.76-5.616,9.971-6.372,12.635s.144,2.701 1.728,3.168c1.476.361 4.248-.287 6.912-.826 2.556-.613 5.148-1.441 8.172-2.629-2.376,2.232-3.564,3.996-3.708,5.148-.108,1.043.972,1.475 2.952,1.691 1.872.18 4.68.072 8.424-.324-.54,3.275-.576,5.508.036,6.84s1.872,2.664 3.384.936c1.332-1.906 2.988-5.76 4.824-11.951 3.313,4.537 5.725,6.947 7.236,7.236 1.512.214 2.125-1.622 1.836-5.653z" fill="#80ff00" fill-rule="evenodd" stroke="#000" stroke-miterlimit="10" stroke-width=".036"/>
 <path d="m143.577,124.541c2.449-.646 5.041-1.654 8.172-3.023 3.061-1.439 6.408-3.131 10.189-5.219-1.404-5.473-2.377-8.568-3.313-9.686-.936-1.08-1.26,3.637-2.088,3.313-.9-.396-1.908-2.232-3.168-5.508-3.025,1.98-5.184,4.717-6.877,8.064-1.656,3.42-2.626,7.307-2.915,12.059z" fill="#f00" fill-rule="evenodd" stroke="#000" stroke-miterlimit="10" stroke-width=".036"/>
 <path d="m177.778,90.018-5.617,5.436c.072,3.098.576,5.617 1.117,7.705 .646,2.088 1.332,3.564 2.447,4.715l2.844-3.311c-.252-4.825-.504-9.686-.791-14.545z" fill="#f00" fill-rule="evenodd" stroke="#000" stroke-miterlimit="10" stroke-width=".036"/>
 <path d="m173.35,109.242c-.506-1.621-1.477-2.377-2.916-2.412-1.549-.107-5.113,1.188-5.832,2.375-.721,1.152-.434,2.701 1.26,4.645 1.943-.936 3.383-1.656 4.715-2.447 1.297-.794 2.088-1.512 2.773-2.161z" fill="#f00" fill-rule="evenodd" stroke="#000" stroke-miterlimit="10" stroke-width=".036"/>
 <path d="m16.353,103.014c-2.124,3.023-2.736,6.191-1.98,9.504s3.6,6.697 6.588,10.152c2.808,3.348 3.528,5.363 10.764,9.936 7.308,4.5 18.324,12.924 32.364,16.92 14.004,3.889 36.072,7.129 50.796,6.373 14.688-.973 26.064-6.084 36.469-11.592 10.223-5.652 18.287-12.529 24.623-21.457 2.771-4.607 4.176-8.1 4.355-10.332 .217-2.447-.359-4.68-3.527-3.348-3.42,1.367-10.584,8.352-16.236,11.664-5.58,3.24-11.303,5.652-17.172,7.523l-2.627,6.732-8.174-4.607c-3.238.756-7.486.143-12.887-1.441-5.473-1.764-11.809-4.5-19.44-8.604-6.696,3.096-13.752,5.148-21.312,6.553-7.74,1.26-16.524,2.844-24.12,1.439-7.74-1.656-14.724-5.904-21.24-10.225-6.48-4.317-12.096-9.286-17.244-15.19z" fill="#804000" fill-rule="evenodd" stroke="#000" stroke-miterlimit="10" stroke-width=".036"/>
 <path d="m63.729,133.865c.576.648 20.952,5.58 32.112,6.193 11.052.395 29.124-2.412 33.372-3.277 3.889-.898-2.916-1.979-9.037-1.979-6.154-.109-17.711,1.799-27.179,1.691-9.576-.179-29.7-3.274-29.268-2.628z" fill-rule="evenodd" stroke="#000" stroke-miterlimit="10" stroke-width=".036"/>
 <path d="m16.749,119.646c3.708,5.652 8.784,10.943 15.228,16.02 6.336,5.039 13.968,10.512 23.328,14.184 9.432,3.564 20.7,6.012 32.436,7.344 11.592,1.26 25.56,2.197 36.613.324 10.836-2.088 20.52-7.309 28.475-11.916 7.957-4.572 13.969-9.719 18.721-15.443 .469,4.535-1.297,9.107-4.896,13.859-3.816,4.789-9.863,10.332-17.172,14.4-7.344,3.816-15.443,7.127-26.389,8.965-11.158,1.727-26.099,3.635-39.383,1.836-13.284-1.98-29.124-7.561-39.456-12.709-10.404-5.221-17.82-11.34-22.392-17.531-4.645-6.264-6.301-12.53-5.113-19.333z" fill="#c6902c" fill-rule="evenodd" stroke="#000" stroke-miterlimit="10" stroke-width=".036"/>
 <path d="m110.061,93.078c1.188,5.148 2.52,8.893 3.996,11.664 1.512,2.592 3.133,3.744 4.717,4.428 1.547.504 3.096.145 4.248-.541 1.043-.646 1.475-1.764 1.691-3.348 1.764,1.26 3.131,1.836 4.5,1.729 1.26-.217 1.619-2.16 3.168-2.484 1.477-.396 3.6-.252 6.084.289 .611-3.348 1.98-5.438 4.535-6.264 2.484-.828 8.029.07 10.225,1.295 2.016,1.115 1.477,4.752 2.412,5.473 .9.467 1.801-3.313 3.133-1.764 1.332,1.584 3.49,10.115 4.391,11.303 .684,1.045-.287-2.807-.143-4.607 .107-1.943-.217-5.076.684-6.049 .9-.898 2.664.361 4.176.576 1.295.109 2.557.18 3.779.217-1.295-2.629-1.98-4.824-1.908-6.984 0-2.123.721-3.672 2.16-5.615 1.369-2.088 3.348-4.176 6.084-6.553l-16.271-3.132c-3.527,1.98-8.279,3.636-14.4,5.399-6.229,1.656-16.127,3.637-22.355,4.572-6.23.863-11.197.9-14.906.396z" fill="#80ff00" fill-rule="evenodd" stroke="#000" stroke-miterlimit="10" stroke-width=".036"/>
 <path d="m19.377,67.878c.216,2.124-.324,3.672-1.764,4.5-1.512.756-4.32.612-6.876.396-2.736-.36-7.704-2.304-8.676-1.944-.9.216 1.512,3.06 3.204,3.96 1.656.864 3.672,1.404 6.444,1.476-2.052,2.268-3.096,4.248-2.988,5.94 .072,1.584 1.656,3.384 3.24,3.996 1.44.504 3.6-.684 5.364-.504 1.476.18 2.232,2.087 4.5,1.404 2.376-.864 5.4-2.952 9.504-6.408-1.512-.576-3.132-1.98-5.148-4.068-2.016-2.232-4.284-5.004-6.804-8.748z" fill="#80ff00" fill-rule="evenodd" stroke="#000" stroke-miterlimit="10" stroke-width=".036"/>
 <path d="m44.829,87.138c-.144-.288-1.728-.54-1.836-.468-.144.108.288.828.72,1.045 .252,0 1.224-.469 1.116-.577z" fill-rule="evenodd" stroke="#000" stroke-miterlimit="10" stroke-width=".036"/>
 <path d="m45.405,90.773c-.144-.287-1.728-.539-1.836-.467-.108.107.216.828.684,1.043 .216.001 1.296-.466 1.152-.576z" fill-rule="evenodd" stroke="#000" stroke-miterlimit="10" stroke-width=".036"/>
 <path d="m45.405,97.902c-.144-.289-1.728-.541-1.836-.469-.108.107.216.828.684,1.045 .216.001 1.296-.468 1.152-.576z" fill-rule="evenodd" stroke="#000" stroke-miterlimit="10" stroke-width=".036"/>
 <path d="m45.009,94.338c-.18-.287-1.656-.576-1.8-.432-.108.107.216.828.684,1.043 .252,0 1.224-.431 1.116-.611z" fill-rule="evenodd" stroke="#000" stroke-miterlimit="10" stroke-width=".036"/>
 <path d="m46.413,102.006c-.144-.287-1.728-.539-1.836-.469s.216.9.684,1.08c.216,0 1.296-.431 1.152-.611z" fill-rule="evenodd" stroke="#000" stroke-miterlimit="10" stroke-width=".036"/>
 <path d="m47.025,106.037c-.144-.287-1.728-.539-1.836-.467-.108.107.216.828.684,1.043 .216,0 1.296-.467 1.152-.576z" fill-rule="evenodd" stroke="#000" stroke-miterlimit="10" stroke-width=".036"/>
 <path d="m51.453,107.082c.108-.289 1.656-.432 1.872-.289 .144.109-.54.865-.792,1.01-.396,0-1.224-.614-1.08-.721z" fill-rule="evenodd" stroke="#000" stroke-miterlimit="10" stroke-width=".036"/>
 <path d="m52.893,102.799c.108-.217 1.656-.396 1.872-.254 .144.145-.54.793-.792.973-.396,0-1.224-.612-1.08-.719z" fill-rule="evenodd" stroke="#000" stroke-miterlimit="10" stroke-width=".036"/>
 <path d="m54.117,98.873c.108-.215 1.656-.395 1.872-.252 .144.145-.54.793-.792.973-.396,0-1.224-.612-1.08-.721z" fill-rule="evenodd" stroke="#000" stroke-miterlimit="10" stroke-width=".036"/>
 <path d="m55.773,95.453c.036-.287 1.62-.432 1.836-.287 .108.145-.468.791-.756.973-.396-.037-1.224-.541-1.08-.686z" fill-rule="evenodd" stroke="#000" stroke-miterlimit="10" stroke-width=".036"/>
 <path d="m56.781,91.709c.108-.287 1.656-.432 1.872-.287 .144.145-.54.793-.792.973-.396-.038-1.224-.541-1.08-.686z" fill-rule="evenodd" stroke="#000" stroke-miterlimit="10" stroke-width=".036"/>
 <path d="m176.553,77.706c.18-.108.576-1.62.648-1.764-.109-.252-1.08.216-1.117.576-.179.216.252,1.26.469,1.188z" fill-rule="evenodd" stroke="#000" stroke-miterlimit="10" stroke-width=".036"/>
 <path d="m181.088,79.722c.182-.108.576-1.62.648-1.764-.107-.252-1.08.216-1.115.576-.179.216.253,1.26.467,1.188z" fill-rule="evenodd" stroke="#000" stroke-miterlimit="10" stroke-width=".036"/>
 <path d="m185.518,81.99c.18-.072.574-1.692.646-1.8-.107-.252-1.08.216-1.115.576-.179.288.252,1.296.469,1.224z" fill-rule="evenodd" stroke="#000" stroke-miterlimit="10" stroke-width=".036"/>
 <path d="m190.954,83.502c.18-.108.576-1.62.648-1.764-.109-.252-1.08.216-1.117.576-.18.216.252,1.26.469,1.188z" fill-rule="evenodd" stroke="#000" stroke-miterlimit="10" stroke-width=".036"/>
 <path d="m189.045,76.878c.18-.072.576-1.692.648-1.8-.109-.252-1.08.216-1.117.576-.179.288.253,1.296.469,1.224z" fill-rule="evenodd" stroke="#000" stroke-miterlimit="10" stroke-width=".036"/>
 <path d="m185.661,72.558c.252-.108.613-1.62.684-1.764-.143-.252-1.043.216-1.15.576-.183.216.251,1.26.466,1.188z" fill-rule="evenodd" stroke="#000" stroke-miterlimit="10" stroke-width=".036"/>
 <path d="m180.549,69.138c.252-.108.611-1.62.684-1.764-.145-.252-1.043.216-1.152.576-.18.216.252,1.26.468,1.188z" fill-rule="evenodd" stroke="#000" stroke-miterlimit="10" stroke-width=".036"/>
 <path d="m156.5,87.785c.072-.18 3.42.938 5.186,2.953 1.619,2.088 4.5,8.135 4.895,9.396 .252,1.115-1.619-.938-2.555-2.412-1.008-1.584-1.908-5.004-3.098-6.66-1.332-1.8-4.607-3.167-4.428-3.277z" fill-rule="evenodd" stroke="#000" stroke-miterlimit="10" stroke-width=".036"/>
 <path d="m125.29,94.23c-.396-.217-.072,2.736-.973,4.139-.9,1.369-4.5,3.672-4.428,3.996-.035.18 3.168-2.123 4.32-2.447 1.008-.469.863.145 1.908.469 .9.395 4.068,1.764 4.104,1.727-.072-.18-3.275-1.656-4.068-2.879-.863-1.37-.649-4.932-.863-5.005z" fill-rule="evenodd" stroke="#000" stroke-miterlimit="10" stroke-width=".036"/>
 <path d="m94.725,94.59c-.324,1.477-.648,2.809-.972,4.141s.756,2.627-.432,4.031c-1.26,1.439-6.984,4.248-6.876,4.393 .144.107 5.616-3.348 7.164-2.988 1.512.396 1.548,5.436 1.872,5.363 .324-.143-.936-3.059 1.152-4.859s4.68-2.016 4.68-2.016c-2.16.072-3.708-.504-4.788-1.873-1.116-1.368-1.764-3.384-1.8-6.192z" fill-rule="evenodd" stroke="#000" stroke-miterlimit="10" stroke-width=".036"/>
 <path d="m49.977,47.862c-.576.108-1.476.216-2.124.864-.828.468-2.196,1.62-2.304,2.484-.072.828.792,2.232 1.62,2.412 .648.036 1.656-.828 2.448-1.764 .612-1.044 1.656-3.168 1.764-3.852 .036-.648-.9-.324-1.404-.144z" fill-rule="evenodd" stroke="#000" stroke-miterlimit="10" stroke-width=".036"/>
 <path d="m49.581,48.51c-.432-.036-1.008.18-1.584.648-.612.468-1.872,1.368-1.98,2.16-.216.648.648,1.728 1.224,1.836 .504-.072 1.476-.9 2.088-1.656 .54-.9 1.26-2.304 1.332-2.844 0-.504-.684-.324-1.08-.144z" fill="#ffe42e" fill-rule="evenodd" stroke="#000" stroke-miterlimit="10" stroke-width=".036"/>
 <path d="m80.469,58.59c.144.504.288,1.332 1.008,2.052 .648.684 1.728,1.98 2.7,2.088 .828,0 2.088-1.26 2.268-1.836 .036-.792-1.08-1.692-1.98-2.268-1.188-.756-3.204-1.368-3.96-1.44-.684-.036-.324.756-.036,1.404z" fill-rule="evenodd" stroke="#000" stroke-miterlimit="10" stroke-width=".036"/>
 <path d="m81.153,58.914c0,.432.252.9.756,1.548 .54.54 1.548,1.656 2.34,1.8 .648.036 1.584-.9 1.692-1.404-.072-.612-1.044-1.44-1.8-1.908-.9-.612-2.484-1.116-2.952-1.08-.468-.108-.252.612-.036,1.044z" fill="#ffe42e" fill-rule="evenodd" stroke="#000" stroke-miterlimit="10" stroke-width=".036"/>
 <path d="m107.038,36.45c-.576.036-1.477.216-2.125.828-.828.612-2.195,1.548-2.303,2.52-.072.828.791,2.232 1.619,2.412 .648-.036 1.656-.828 2.447-1.8 .613-1.08 1.656-3.096 1.766-3.816 .035-.648-.9-.324-1.404-.144z" fill-rule="evenodd" stroke="#000" stroke-miterlimit="10" stroke-width=".036"/>
 <path d="m106.641,37.098c-.432-.036-1.008.18-1.584.648-.611.468-1.871,1.368-1.98,2.16-.215.684.648,1.656 1.225,1.8 .432-.036 1.439-.9 2.053-1.62 .539-.864 1.26-2.376 1.332-2.88-.038-.54-.614-.252-1.046-.108z" fill="#ffd028" fill-rule="evenodd" stroke="#000" stroke-miterlimit="10" stroke-width=".036"/>
 <path d="m96.633,23.166c-.396.54-.756,1.116-.792,2.124-.144.936-.324,2.664.288,3.384 .576.576 2.232.828 2.88.468 .504-.432.468-1.944.324-3.024-.252-1.26-1.26-3.384-1.62-3.888-.504-.504-.864.324-1.08.936z" fill-rule="evenodd" stroke="#000" stroke-miterlimit="10" stroke-width=".036"/>
 <path d="m96.885,23.886c-.216.288-.648.828-.612,1.62-.144.792-.108,2.232.252,2.916 .432.504 1.62.612 2.16.324 .36-.396.324-1.728.18-2.628-.216-1.044-.936-2.52-1.188-2.916-.396-.504-.612.324-.792.684z" fill="#ffe42e" fill-rule="evenodd" stroke="#000" stroke-miterlimit="10" stroke-width=".036"/>
 <path d="m110.168,15.498c.324.252.686.576 1.369.828 .611.108 1.764.504 2.34.216 .504-.324.719-1.512.648-1.908-.324-.36-1.189-.684-2.018-.576-.898.036-2.447.288-2.844.612-.502.216.218.54.505.828z" fill-rule="evenodd" stroke="#000" stroke-miterlimit="10" stroke-width=".036"/>
 <path d="m110.709,15.426c.107.18.539.432 1.008.612 .504.144 1.549.252 2.016.18 .432-.18.648-1.26.504-1.44-.287-.324-1.152-.468-1.764-.432-.721-.036-1.801.252-2.123.468-.324.144.07.396.359.612z" fill="#ffe42e" fill-rule="evenodd" stroke="#000" stroke-miterlimit="10" stroke-width=".036"/>
 <path d="m104.374,9.702c-.18-.468-.504-.828-.973-1.224-.611-.432-1.547-1.152-2.123-1.044-.721.072-1.333,1.008-1.297,1.548 .072.468.828.936 1.691,1.26 .756.288 2.305.432 2.846.432 .359-.252.035-.576-.144-.972z" fill-rule="evenodd" stroke="#000" stroke-miterlimit="10" stroke-width=".036"/>
 <path d="m103.833,9.594c-.215-.396-.324-.576-.719-.936-.504-.36-1.332-.936-1.801-.9-.504.108-1.152.648-.972,1.188 .108.288.792.828 1.476,1.044 .648.18 1.691.288 2.16.324 .252-.144-.072-.432-.144-.72z" fill="#ffe42e" fill-rule="evenodd" stroke="#000" stroke-miterlimit="10" stroke-width=".036"/>
 <path d="m89.289,11.178c.072-.432.36-.9.324-1.548-.108-.792-.108-1.872-.54-2.268s-1.8-.396-2.016,0c-.324.288-.288,1.26.108,2.088 .252.684 1.08,2.16 1.512,2.484 .288.252.396-.468.612-.756z" fill-rule="evenodd" stroke="#000" stroke-miterlimit="10" stroke-width=".036"/>
 <path d="m89.073,10.71c.072-.324.252-.72.252-1.188-.036-.576-.252-1.692-.504-1.944-.36-.36-1.368-.36-1.512,0-.36.324-.036,1.08.144,1.836 .216.576.792,1.512 1.152,1.836 .18.18.288-.324.468-.54z" fill="#ffe42e" fill-rule="evenodd" stroke="#000" stroke-miterlimit="10" stroke-width=".036"/>
 <path d="m73.269,8.766c-.072.468-.108.864.18,1.584 .18.576.648,1.692 1.26,1.98 .504.144 1.692-.252 1.908-.648 .036-.504-.216-1.332-.756-1.944-.54-.684-1.836-1.764-2.232-1.872-.468-.144-.36.432-.36.9z" fill-rule="evenodd" stroke="#000" stroke-miterlimit="10" stroke-width=".036"/>
 <path d="m73.629,9.162c-.072.252-.072.648.144,1.188 .108.396.648,1.476 1.08,1.692 .36.072 1.26-.144 1.44-.504 0-.468-.288-1.116-.72-1.656-.396-.54-1.404-1.332-1.656-1.404-.288-.18-.432.324-.288.684z" fill="#ffe42e" fill-rule="evenodd" stroke="#000" stroke-miterlimit="10" stroke-width=".036"/>
 <path d="m67.257,15.714c-.216-.36-.612-.936-1.044-1.188-.648-.432-1.656-1.044-2.196-.864-.684.144-1.26,1.008-1.152,1.62 0,.432.9.864 1.728,1.152 .72.216 2.376.252 2.88.252 .396-.252 0-.576-.216-.972z" fill-rule="evenodd" stroke="#000" stroke-miterlimit="10" stroke-width=".036"/>
 <path d="m66.717,15.642c-.18-.36-.396-.612-.792-.9-.54-.432-1.44-.828-1.872-.792-.54.036-.972.828-.864,1.26 .072.36.864.72 1.548.936 .648.144 1.692.252 2.16.18 .252-.144-.036-.468-.18-.684z" fill="#ffd028" fill-rule="evenodd" stroke="#000" stroke-miterlimit="10" stroke-width=".036"/>
 <path d="m125.756,7.866c-.395-.252-.828-.612-1.439-.648-.756-.216-1.908-.288-2.34.072-.539.216-.721,1.62-.396,1.98 .289.288 1.117.396 2.053.324 .791-.18 2.305-.684 2.736-.936 .359-.324-.362-.54-.614-.792z" fill-rule="evenodd" stroke="#000" stroke-miterlimit="10" stroke-width=".036"/>
 <path d="m125.252,8.01c-.287-.252-.646-.468-1.08-.504-.576-.216-1.619-.144-2.016.072-.396.144-.684,1.188-.324,1.476 .252.18 1.08.36 1.801.252 .611-.216 1.764-.504 2.088-.72 .217-.252-.217-.396-.469-.576z" fill="#ffe42e" fill-rule="evenodd" stroke="#000" stroke-miterlimit="10" stroke-width=".036"/>
 <path d="m132.885,13.734c.145-.36.539-.9.611-1.476 .109-.756.109-1.908-.143-2.34-.396-.504-1.656-.612-1.98-.324-.396.216-.541,1.224-.289,2.052 .072.828.756,2.196 1.08,2.7 .217.36.504-.36.721-.612z" fill-rule="evenodd" stroke="#000" stroke-miterlimit="10" stroke-width=".036"/>
 <path d="m132.741,13.23c.145-.216.396-.72.469-1.116 .035-.54.035-1.728-.145-2.016-.359-.468-1.225-.504-1.477-.252-.359.252-.287,1.08-.18,1.8 .072.648.469,1.656.793,2.052 .143.216.325-.216.54-.468z" fill="#ffe42e" fill-rule="evenodd" stroke="#000" stroke-miterlimit="10" stroke-width=".036"/>
 <path d="m141.668,13.806c-.107.468-.035.864.217,1.584 .217.612.756,1.584 1.332,1.944 .539.216 1.619-.396 1.871-.72 .109-.504-.287-1.332-.791-1.908-.576-.612-1.943-1.764-2.305-1.8-.466-.144-.396.432-.324.9z" fill-rule="evenodd" stroke="#000" stroke-miterlimit="10" stroke-width=".036"/>
 <path d="m142.065,14.166c-.072.252-.072.648.145,1.188 .215.504.648,1.44 1.152,1.692 .324.108 1.295-.216 1.404-.54 .035-.396-.361-1.224-.758-1.656-.467-.576-1.402-1.26-1.691-1.368-.324-.18-.359.324-.252.684z" fill="#ffe42e" fill-rule="evenodd" stroke="#000" stroke-miterlimit="10" stroke-width=".036"/>
 <path d="m152.29,23.49c-.324-.288-.828-.684-1.369-.756-.756-.252-1.871-.324-2.375-.072-.541.288-.865,1.476-.541,1.908 .289.432 1.117.468 2.053.504 .863-.072 2.268-.612 2.809-.792 .323-.216-.29-.612-.577-.792z" fill-rule="evenodd" stroke="#000" stroke-miterlimit="10" stroke-width=".036"/>
 <path d="m151.786,23.562c-.324-.252-.541-.432-1.045-.54-.576-.216-1.619-.288-2.016-.072-.469.18-.648,1.116-.396,1.44 .18.216 1.045.432 1.764.36 .613-.108 1.766-.396 2.088-.576 .181-.216-.181-.468-.395-.612z" fill="#ffe42e" fill-rule="evenodd" stroke="#000" stroke-miterlimit="10" stroke-width=".036"/>
 <path d="m130.401,44.19c-.432-.504-1.115-.972-1.908-1.26-.971-.36-2.592-.9-3.348-.504-.756.36-1.439,2.016-1.08,2.736 .217.576 1.621.9 2.844.972 1.225-.036 3.457-.36 4.176-.684 .503-.396-.325-.864-.684-1.26z" fill-rule="evenodd" stroke="#000" stroke-miterlimit="10" stroke-width=".036"/>
 <path d="m129.645,44.262c-.324-.36-.756-.828-1.439-.972-.721-.396-2.377-.684-2.881-.432-.719.288-1.08,1.44-.791,2.052 .215.396 1.512.792 2.484.792 .898-.036 2.592-.252 3.131-.504 .359-.288-.18-.648-.504-.936z" fill="#ffe42e" fill-rule="evenodd" stroke="#000" stroke-miterlimit="10" stroke-width=".036"/>
 <path d="m152.397,37.026c-.684.108-1.439.216-2.123.864-.9.468-2.125,1.62-2.27,2.484-.143.828.9,2.232 1.621,2.412 .611-.036 1.691-.828 2.412-1.8 .684-1.08 1.656-3.096 1.799-3.816 .11-.648-.97-.324-1.439-.144z" fill-rule="evenodd" stroke="#000" stroke-miterlimit="10" stroke-width=".036"/>
 <path d="m152.038,37.674c-.504-.036-1.045.18-1.621.648s-1.979,1.368-1.979,2.16c-.145.648.646,1.728 1.26,1.836 .539-.072 1.404-.9 2.051-1.656 .541-.9 1.26-2.304 1.332-2.844-.036-.504-.612-.324-1.043-.144z" fill="#ffe42e" fill-rule="evenodd" stroke="#000" stroke-miterlimit="10" stroke-width=".036"/>
 <path d="m145.844,53.298c.145.468.576,1.296 1.297,1.908 .611.54 2.088,1.764 2.916,1.728 .721-.18 2.088-1.44 2.016-2.124-.145-.828-1.223-1.44-2.268-1.98-1.115-.54-3.455-1.08-4.104-.936-.683,0-.179.792.143,1.404z" fill-rule="evenodd" stroke="#000" stroke-miterlimit="10" stroke-width=".036"/>
 <path d="m146.565,53.55c.145.36.289.936.973,1.44 .576.54 1.799,1.404 2.555,1.476 .576-.072 1.584-1.116 1.514-1.62-.109-.612-1.297-1.296-2.053-1.656-.9-.468-2.629-.792-3.096-.684-.541,0-.18.576.107,1.044z" fill="#ffe42e" fill-rule="evenodd" stroke="#000" stroke-miterlimit="10" stroke-width=".036"/>
 <path d="m144.477,71.298c.18-.612.324-1.368.289-2.268-.217-.972-.434-2.736-1.08-3.204-.721-.54-2.521-.324-2.916.252-.469.504-.145,1.872.395,2.988 .541,1.008 1.836,3.024 2.521,3.42 .504.324.574-.72.791-1.188z" fill-rule="evenodd" stroke="#000" stroke-miterlimit="10" stroke-width=".036"/>
 <path d="m144.081,70.65c.145-.432.217-1.044.217-1.692-.107-.9-.469-2.34-.936-2.808-.576-.504-1.908-.252-2.197.216-.324.468 0,1.656.432,2.592 .324.828 1.404,2.232 1.873,2.556 .359.288.431-.504.611-.864z" fill="#ffe42e" fill-rule="evenodd" stroke="#000" stroke-miterlimit="10" stroke-width=".036"/>
 <path d="m119.206,62.37c-.504-.468-1.008-1.044-1.908-1.296-.973-.324-2.592-.972-3.348-.54-.828.396-1.477,1.944-1.117,2.7 .217.54 1.621.972 2.844,1.008 1.225-.108 3.457-.216 4.178-.612 .573-.396-.29-.864-.649-1.26z" fill-rule="evenodd" stroke="#000" stroke-miterlimit="10" stroke-width=".036"/>
 <path d="m118.413,62.406c-.395-.36-.684-.828-1.404-.972-.719-.396-2.375-.648-2.879-.468-.684.288-1.152,1.44-.828,2.052 .217.432 1.512.756 2.484.828 .9,0 2.592-.288 3.131-.468 .361-.252-.18-.72-.504-.972z" fill="#ffe42e" fill-rule="evenodd" stroke="#000" stroke-miterlimit="10" stroke-width=".036"/>
 <path d="m73.881,69.318c-.576.036-1.476.216-2.124.828-.828.612-2.196,1.548-2.304,2.52-.072.828.792,2.232 1.62,2.412 .648-.036 1.656-.828 2.448-1.8 .612-1.08 1.656-3.096 1.764-3.816 .036-.648-.9-.324-1.404-.144z" fill-rule="evenodd" stroke="#000" stroke-miterlimit="10" stroke-width=".036"/>
 <path d="m73.485,69.966c-.432-.036-1.008.18-1.584.648-.612.468-1.872,1.368-1.98,2.16-.216.684.648,1.656 1.224,1.8 .504-.036 1.476-.9 2.088-1.62 .54-.864 1.26-2.376 1.332-2.88 0-.54-.684-.252-1.08-.108z" fill="#ffe42e" fill-rule="evenodd" stroke="#000" stroke-miterlimit="10" stroke-width=".036"/>
 <path d="m54.981,76.05c-.396-.612-.9-1.152-1.656-1.62-.936-.612-2.376-1.296-3.204-1.08-.792.144-1.764,1.8-1.548,2.484 .072.648 1.44,1.188 2.592,1.476 1.08.216 3.564.288 4.248.072 .54-.288-.108-.864-.432-1.332z" fill-rule="evenodd" stroke="#000" stroke-miterlimit="10" stroke-width=".036"/>
 <path d="m54.225,75.978c-.324-.432-.648-.936-1.26-1.224-.792-.432-2.088-1.116-2.772-.936-.72.108-1.332,1.332-1.152,1.872 .108.432 1.44.972 2.34,1.224 .9.18 2.592.252 3.132.072 .432-.288-.036-.576-.288-1.008z" fill="#ffe42e" fill-rule="evenodd" stroke="#000" stroke-miterlimit="10" stroke-width=".036"/>
 <path d="m30.105,66.726c.54.288 1.224.504 2.196.648 .936,0 2.7-.108 3.348-.612 .54-.684.648-2.448.18-2.916-.504-.396-1.98-.54-3.024-.036-1.152.36-3.312,1.332-3.708,1.944-.504.468.432.612 1.008.972z" fill-rule="evenodd" stroke="#000" stroke-miterlimit="10" stroke-width=".036"/>
 <path d="m30.825,66.438c.36.144.864.396 1.656.468 .792-.036 2.268-.072 2.88-.504 .432-.54.468-1.872.108-2.196-.468-.396-1.764-.252-2.628.036-1.008.216-2.448,1.08-2.808,1.476-.36.324.36.468.792.72z" fill="#ffe42e" fill-rule="evenodd" stroke="#000" stroke-miterlimit="10" stroke-width=".036"/>
 <path d="m25.497,51.39c-.288-.648-.468-1.368-1.08-2.016-.684-.72-1.98-1.98-2.772-1.98-.864-.036-2.196,1.152-2.196,1.908-.036.648.972,1.512 2.052,2.196 1.044.648 3.168,1.188 3.996,1.332 .504-.108.18-.864 0-1.44z" fill-rule="evenodd" stroke="#000" stroke-miterlimit="10" stroke-width=".036"/>
 <path d="m24.813,51.102c-.18-.468-.36-.972-.828-1.512-.612-.54-1.728-1.764-2.376-1.728-.72-.072-1.728.828-1.656,1.44 0,.54.936,1.296 1.836,1.872 .756.504 2.412.828 3.024.972 .36,0 .18-.72 0-1.044z" fill="#ffe42e" fill-rule="evenodd" stroke="#000" stroke-miterlimit="10" stroke-width=".036"/>
 <path d="m24.597,33.498c-.324.504-.504,1.26-.396,2.268 .144.864.18,2.7.936,3.276 .612.432 2.412.396 2.916-.108 .288-.612.252-1.944-.252-3.024-.468-1.152-1.836-3.168-2.304-3.528-.54-.468-.792.504-.9,1.116z" fill-rule="evenodd" stroke="#000" stroke-miterlimit="10" stroke-width=".036"/>
 <path d="m24.957,34.182c-.18.324-.468.936-.288,1.692 .036.792.252,2.232.792,2.808 .54.324 1.728.432 2.196-.072 .216-.396.072-1.872-.288-2.628-.432-.9-1.332-2.376-1.728-2.628-.504-.396-.54.432-.684.828z" fill="#ffe42e" fill-rule="evenodd" stroke="#000" stroke-miterlimit="10" stroke-width=".036"/>
 <path d="m38.313,28.458c-.18.576-.216,1.332.036,2.268 .288.864.756,2.52 1.548,3.024 .72.36 2.412-.144 2.844-.684 .36-.72-.288-1.872-.828-2.88-.648-1.008-2.484-2.7-2.988-2.988-.648-.252-.576.54-.612,1.26z" fill-rule="evenodd" stroke="#000" stroke-miterlimit="10" stroke-width=".036"/>
 <path d="m38.781,29.034c-.18.396-.216.972.036,1.728 .216.792.72,2.124 1.368,2.628 .576.288 1.836-.072 2.124-.54 .144-.54-.36-1.8-.828-2.52-.576-.864-1.764-1.98-2.196-2.232-.468-.252-.504.432-.504.936z" fill="#ffd028" fill-rule="evenodd" stroke="#000" stroke-miterlimit="10" stroke-width=".036"/>
 <path d="m62.937,25.542c-.504-.036-.936.216-1.44.612-.612.432-1.512,1.008-1.584,1.728-.072.54.576,1.512 1.116,1.656 .54,0 1.044-.648 1.656-1.26 .432-.792 1.116-2.088 1.224-2.628-.072-.432-.576-.324-.972-.108z" fill-rule="evenodd" stroke="#000" stroke-miterlimit="10" stroke-width=".036"/>
 <path d="m62.685,26.01c-.396-.036-.72.108-1.116.432-.468.324-1.296.972-1.368,1.512-.18.432.432,1.116.864,1.224 .468,0 .9-.648 1.44-1.116 .396-.576.792-1.656.9-1.98-.108-.432-.396-.18-.72-.072z" fill="#ffe42e" fill-rule="evenodd" stroke="#000" stroke-miterlimit="10" stroke-width=".036"/>
 <path d="m53.865,31.374c-.504-.036-.936.216-1.44.612-.612.432-1.512,1.008-1.584,1.728-.072.54.576,1.512 1.116,1.656 .54.072 1.044-.612 1.656-1.224 .432-.756 1.116-2.16 1.224-2.664-.072-.432-.576-.324-.972-.108z" fill-rule="evenodd" stroke="#000" stroke-miterlimit="10" stroke-width=".036"/>
 <path d="m53.613,31.842c-.396-.036-.72.108-1.116.432-.468.324-1.296.972-1.368,1.512-.18.396.432,1.188.864,1.26 .468.036.9-.72 1.44-1.152 .396-.576.792-1.656.9-1.98-.108-.432-.396-.18-.72-.072z" fill="#ffe42e" fill-rule="evenodd" stroke="#000" stroke-miterlimit="10" stroke-width=".036"/>
 <path d="m68.445,36.414c-.144.36-.252.936-.036,1.584 .144.684.432,1.656 1.008,2.088 .432.18 1.692,0 1.98-.396 .144-.468-.072-1.368-.504-2.016-.576-.72-1.512-1.98-1.98-2.124-.396-.216-.504.396-.468.864z" fill-rule="evenodd" stroke="#000" stroke-miterlimit="10" stroke-width=".036"/>
 <path d="m68.769,36.81c-.036.252-.324.648-.036,1.188 .072.54.468,1.476.9,1.836 .36.144 1.224.036 1.476-.324-.036-.432-.072-1.188-.504-1.728-.432-.612-1.26-1.476-1.512-1.62-.288-.252-.396.288-.324.648z" fill="#ffe42e" fill-rule="evenodd" stroke="#000" stroke-miterlimit="10" stroke-width=".036"/>
 <path d="m87.885,45.882c-.468-.036-1.008.216-1.476.612-.612.432-1.512,1.008-1.584,1.728-.072.54.576,1.512 1.116,1.656 .54.072 1.044-.612 1.656-1.224 .504-.756 1.152-2.16 1.26-2.664 .036-.432-.612-.324-.972-.108z" fill-rule="evenodd" stroke="#000" stroke-miterlimit="10" stroke-width=".036"/>
 <path d="m87.597,46.35c-.324-.036-.684.108-1.08.432-.432.324-1.404.972-1.404,1.512-.18.432.432,1.116.864,1.224 .468,0 .9-.648 1.44-1.116 .396-.576.792-1.656.9-1.98-.108-.432-.396-.18-.72-.072z" fill="#ffe42e" fill-rule="evenodd" stroke="#000" stroke-miterlimit="10" stroke-width=".036"/>
 <path d="m87.201,30.042c0-.468-.072-.936-.216-1.548-.288-.72-.864-1.692-1.332-1.944-.648-.324-1.692.288-1.872.72-.216.396.252,1.26.828,1.908 .504.54 1.764,1.656 2.268,1.8 .36.036.288-.468.324-.936z" fill-rule="evenodd" stroke="#000" stroke-miterlimit="10" stroke-width=".036"/>
 <path d="m86.841,29.682c-.036-.288.036-.72-.18-1.152-.288-.576-.72-1.512-1.152-1.692-.432-.216-1.404.108-1.404.576-.144.36.252,1.044.756,1.62 .324.468 1.404,1.188 1.728,1.332 .216.072.252-.432.252-.684z" fill="#ffd028" fill-rule="evenodd" stroke="#000" stroke-miterlimit="10" stroke-width=".036"/>
 <path d="m76.905,23.598c.108-.432.432-.9.432-1.548-.072-.792-.036-1.836-.432-2.304-.468-.432-1.728-.468-1.98-.108-.36.288-.324,1.26-.036,2.088 .18.792 1.008,2.16 1.368,2.556 .252.288.468-.36.648-.684z" fill-rule="evenodd" stroke="#000" stroke-miterlimit="10" stroke-width=".036"/>
 <path d="m76.725,23.094c.072-.36.216-.612.288-1.152-.036-.576-.108-1.656-.36-1.98-.432-.432-1.26-.324-1.512-.072-.288.216-.144,1.188.036,1.8 .18.576.72,1.692 1.044,1.944 .144.108.36-.216.504-.54z" fill="#ffd028" fill-rule="evenodd" stroke="#000" stroke-miterlimit="10" stroke-width=".036"/>
 <path d="m51.597,19.242c-.18-.468-.252-1.008-.612-1.476-.504-.648-1.188-1.44-1.764-1.548-.684-.108-1.548.648-1.62,1.152-.072.54.54,1.044 1.26,1.656 .648.468 2.088,1.044 2.664,1.188 .396.036.144-.612.072-.972z" fill-rule="evenodd" stroke="#000" stroke-miterlimit="10" stroke-width=".036"/>
 <path d="m51.129,18.954c-.18-.324-.144-.684-.432-1.08-.432-.504-1.08-1.224-1.512-1.332-.504-.18-1.296.432-1.26.864-.108.324.648.972 1.152,1.404 .54.396 1.584.792 2.016.9 .252-.072.072-.468.036-.756z" fill="#ffd028" fill-rule="evenodd" stroke="#000" stroke-miterlimit="10" stroke-width=".036"/>
 <path d="m124.461,21.798c-.037.36.072.864.467,1.512 .289.54 1.01,1.476 1.621,1.692 .611-.036 1.512-.504 1.729-.972 .035-.54-.469-1.26-1.08-1.764-.721-.648-2.088-1.296-2.557-1.404-.504-.072-.287.432-.18.936z" fill-rule="evenodd" stroke="#000" stroke-miterlimit="10" stroke-width=".036"/>
 <path d="m124.893,22.122c.035.288-.035.612.359,1.116 .324.432.793,1.296 1.404,1.476 .396.108 1.152-.468 1.297-.756 .035-.54-.576-1.044-1.008-1.512-.504-.468-1.656-1.044-1.908-1.044-.396-.108-.216.36-.144.72z" fill="#ffe42e" fill-rule="evenodd" stroke="#000" stroke-miterlimit="10" stroke-width=".036"/>
</svg>
