<?xml version="1.0" encoding="UTF-8"?>
<svg version="1.1" xmlns="http://www.w3.org/2000/svg" width="1800" height="1200">
<path d="M0 0 C44.22 0 88.44 0 134 0 C139.62472735 13.49934565 139.62472735 13.49934565 141.31738281 18.21606445 C141.70327072 19.28660065 142.08915863 20.35713684 142.48674011 21.46011353 C143.08885063 23.14468155 143.08885063 23.14468155 143.703125 24.86328125 C144.36974609 26.71627001 145.03636757 28.56925862 145.70300579 30.42224121 C146.40504612 32.37543591 147.10560205 34.32915689 147.80569458 36.28305054 C149.27615104 40.38683261 150.75087263 44.48907397 152.22631836 48.59106445 C153.72908618 52.76954908 155.23165115 56.94810567 156.73277283 61.12718201 C160.99273365 72.9866438 165.2730716 84.83866427 169.5625 96.6875 C170.23993838 98.55964101 170.91734704 100.43179277 171.59472656 102.30395508 C178.1249138 120.35089288 184.66020288 138.39598523 191.19458008 156.44140625 C196.71577753 171.6891194 202.23462546 186.93767963 207.75 202.1875 C208.26729675 203.61780045 208.26729675 203.61780045 208.79504395 205.07699585 C211.53720228 212.65905563 214.27910664 220.24120724 217.02099609 227.82336426 C219.43054151 234.48645383 221.84019446 241.1495045 224.25 247.8125 C224.59454224 248.7651474 224.93908447 249.7177948 225.29406738 250.6993103 C231.35883394 267.46761122 237.42885761 284.23400662 243.5 301 C249.57143802 317.76680981 255.64173445 334.53402979 261.70675659 351.30316162 C262.7478231 354.18148134 263.78905895 357.05973975 264.83032227 359.93798828 C267.93761079 368.52781819 271.04339589 377.11818221 274.14343262 385.71063232 C275.55538866 389.62383529 276.96824772 393.53671187 278.38128662 397.44952393 C279.08056537 399.38637049 279.77950414 401.32333984 280.47808838 403.26043701 C284.63531259 414.78563043 288.83940473 426.2919604 293.10546875 437.77734375 C293.95196549 440.061338 294.79840171 442.34535468 295.64477539 444.62939453 C297.27218522 449.02031472 298.90963635 453.40731886 300.55249023 457.79248047 C301.28796149 459.77427908 302.02308778 461.75620575 302.7578125 463.73828125 C303.10269211 464.65044907 303.44757172 465.56261688 303.80290222 466.50242615 C304.10916031 467.33347366 304.4154184 468.16452118 304.73095703 469.02075195 C305.00167023 469.74502884 305.27238342 470.46930573 305.55130005 471.2155304 C306 473 306 473 305 475 C264.74 475 224.48 475 183 475 C176.11706587 456.64550898 176.11706587 456.64550898 173.125 447.53515625 C172.79258301 446.5327037 172.46016602 445.53025116 172.11767578 444.49742126 C171.07550167 441.35341411 170.03741612 438.20807998 169 435.0625 C167.62712427 430.90684639 166.2519095 426.75197498 164.875 422.59765625 C164.54580566 421.60230865 164.21661133 420.60696106 163.87744141 419.58145142 C161.59602487 412.71124431 159.22883785 405.87596372 156.72607422 399.08302307 C155.69346155 396.23370058 155 394.059183 155 391 C96.59 391 38.18 391 -22 391 C-22.99 394.63 -23.98 398.26 -25 402 C-25.81708452 404.58640944 -26.65808694 407.16543943 -27.52783203 409.73461914 C-27.87720825 410.77096497 -27.87720825 410.77096497 -28.23364258 411.82824707 C-28.98857985 414.06495232 -29.74807377 416.30007784 -30.5078125 418.53515625 C-31.03945565 420.10639954 -31.57085393 421.6777257 -32.10202026 423.24913025 C-33.20778904 426.51824565 -34.31568335 429.78662967 -35.42529297 433.05444336 C-36.84867194 437.24650549 -38.2678749 441.4399665 -39.68567085 445.63391972 C-40.77909707 448.86757129 -41.87406378 452.10069939 -42.96957016 455.33364677 C-43.49380462 456.88093291 -44.01770408 458.42833259 -44.54126358 459.97584724 C-45.26968517 462.12771298 -46.00002661 464.27891701 -46.73095703 466.42993164 C-47.14604523 467.65361954 -47.56113342 468.87730743 -47.98880005 470.13807678 C-49 473 -49 473 -50 475 C-89.93 475 -129.86 475 -171 475 C-170.31864763 470.91188581 -169.72330433 467.82716706 -168.36791992 464.05102539 C-168.03131851 463.10559875 -167.6947171 462.16017212 -167.34791565 461.18609619 C-166.97915817 460.16691101 -166.6104007 459.14772583 -166.23046875 458.09765625 C-165.84273788 457.01377625 -165.45500702 455.92989624 -165.05552673 454.81317139 C-163.77126976 451.22776715 -162.47951519 447.64511513 -161.1875 444.0625 C-160.50829956 442.17198248 -159.82988316 440.28118491 -159.15155792 438.3903532 C-152.04226337 418.57474611 -144.85445512 398.78751012 -137.64526367 379.00805664 C-131.39297931 361.85203329 -125.18747483 344.67946632 -119 327.5 C-111.94950839 307.92548166 -104.8694078 288.36209065 -97.75 268.8125 C-91.11704471 250.59774182 -84.52055218 232.37038193 -77.96279907 214.12841797 C-71.81043873 197.01485013 -65.63148059 179.91104777 -59.4375 162.8125 C-58.99403229 161.58827332 -58.55056458 160.36404663 -58.09365845 159.10272217 C-56.32727021 154.22661915 -54.56081018 149.35054215 -52.79420471 144.47451782 C-48.95709788 133.88319532 -45.12422182 123.29034582 -41.29315186 112.69683838 C-40.25499779 109.82631899 -39.21663417 106.95587548 -38.17822266 104.08544922 C-35.03407145 95.39362326 -31.89155879 86.70121285 -28.75387573 78.00704956 C-21.55102684 58.04933579 -14.32977562 38.09901195 -7 18.1875 C-6.6980069 17.36619598 -6.39601379 16.54489197 -6.08486938 15.69869995 C-5.24547948 13.41710375 -4.40437075 11.13615056 -3.5625 8.85546875 C-3.31545822 8.1839679 -3.06841644 7.51246704 -2.81388855 6.82061768 C-1.95400611 4.49682231 -1.10906149 2.21812298 0 0 Z M66 130 C54.00166653 163.90016347 42.56758771 197.98248671 31.21355188 232.10220754 C29.27388118 237.93000668 27.32965997 243.7562805 25.38445669 249.58223492 C23.48387742 255.27492157 21.58561735 260.9683776 19.68932909 266.66249508 C18.56737386 270.0314647 17.44462846 273.4001651 16.31974983 276.76815987 C15.08221886 280.47394197 13.84955916 284.1813336 12.61743164 287.88891602 C12.2482663 288.99236359 11.87910095 290.09581116 11.49874878 291.23269653 C11.16703171 292.2334874 10.83531464 293.23427826 10.49354553 294.26539612 C10.20330537 295.13687066 9.9130652 296.0083452 9.61402988 296.90622807 C8.90619562 298.9562036 8.90619562 298.9562036 9 301 C46.95 301 84.9 301 124 301 C122.62064273 294.79289228 121.12815394 288.97799295 119.08935547 283.00341797 C118.80264984 282.15101028 118.51594421 281.2986026 118.22055054 280.42036438 C117.27385778 277.60945614 116.32057642 274.80083092 115.3671875 271.9921875 C114.69054004 269.98785274 114.01428915 267.98338406 113.33840942 265.97879028 C111.55018553 260.67884937 109.756306 255.38083927 107.96130371 250.08319092 C106.1984669 244.87698846 104.44135678 239.66885467 102.68359375 234.4609375 C95.94967948 214.51774265 89.1874728 194.58410251 82.41061783 174.65546036 C81.74022418 172.68391589 81.07007458 170.71228841 80.4002037 168.74056625 C76.00354226 155.802111 71.53533409 142.8905098 67 130 C66.67 130 66.34 130 66 130 Z " fill="#FFFFFF" transform="translate(613,358)"/>
<path d="M0 0 C118.48022215 -0.09584026 236.96043847 -0.17682266 362.32506315 -0.21417447 C364.61647721 -0.21485563 366.90789127 -0.21553725 369.19930533 -0.21621936 C370.33216482 -0.21655634 371.46502431 -0.21689333 372.63221288 -0.21724052 C377.19996513 -0.21860014 381.76771739 -0.21996295 386.33546964 -0.22132568 C389.74970348 -0.22233966 393.16393733 -0.22333944 396.57817117 -0.22433915 C430.6580275 -0.23440692 464.73787332 -0.25262056 498.81772367 -0.27489206 C537.60049268 -0.30023102 576.38324897 -0.31483598 615.16602663 -0.31500878 C619.20951859 -0.31506737 623.25301055 -0.31517023 627.29650251 -0.31530687 C628.28900038 -0.31533543 629.28149826 -0.31536399 630.30407183 -0.31539342 C646.05651972 -0.31610632 661.80894462 -0.32677545 677.561385 -0.34146883 C693.04720226 -0.35569075 708.53299101 -0.35918021 724.01881305 -0.35113104 C733.11307289 -0.34672099 742.20724006 -0.35057668 751.30148764 -0.36643602 C757.33427734 -0.37613964 763.36700128 -0.37505098 769.39979028 -0.36499327 C772.82583399 -0.35958745 776.25169716 -0.3589298 779.67772611 -0.37149786 C783.3547161 -0.38248943 787.03122215 -0.3751785 790.70819799 -0.36310693 C792.30053828 -0.37449974 792.30053828 -0.37449974 793.92504706 -0.3861227 C799.78602654 -0.34426794 803.86739882 0.2830224 809.07370511 3.00882987 C810.21259183 3.47675955 810.21259183 3.47675955 811.37448636 3.95414237 C813.54696301 5.30257614 814.19538784 6.57818433 815.26120511 8.88382987 C815.5847598 9.56187674 815.90831449 10.23992362 816.24167386 10.93851737 C817.6172099 14.36121266 818.19872242 17.43097625 818.19790361 21.11559633 C818.2001509 21.93159939 818.2023982 22.74760244 818.20471359 23.58833287 C818.20208658 24.48107129 818.19945956 25.37380972 818.19675294 26.29360083 C818.19790679 27.24877059 818.19906063 28.20394036 818.20024944 29.18805466 C818.20291243 32.41322204 818.19839651 35.63834028 818.19395963 38.86350516 C818.1943954 41.18922011 818.1952704 43.514935 818.1965488 45.84064964 C818.19855709 51.57766634 818.19589638 57.31466785 818.19130812 63.05168276 C818.18607739 69.92142136 818.186652 76.79115628 818.18745258 83.66089638 C818.18876739 96.33961805 818.18542162 109.01833451 818.17943517 121.69705466 C818.17352156 134.2536396 818.16966992 146.81022237 818.16858236 159.36680869 C818.16851362 160.14704697 818.16844488 160.92728524 818.16837406 161.73116711 C818.16803573 165.69347656 818.16773434 169.65578601 818.16744718 173.61809546 C818.16534583 201.6954446 818.15860584 229.77279091 818.14914457 257.85013846 C818.13996271 285.1297607 818.13287783 312.40938217 818.12863676 339.68900565 C818.12850523 340.52963302 818.1283737 341.37026039 818.12823819 342.23636133 C818.12691969 350.678157 818.12564387 359.11995268 818.12439933 367.56174836 C818.121863 384.75921714 818.11904175 401.95668587 818.11604825 419.15415457 C818.11591096 419.94489568 818.11577367 420.73563678 818.11563222 421.55033974 C818.10642894 474.3698377 818.09035539 527.1893338 818.07370511 580.00882987 C800.91370511 580.00882987 783.75370511 580.00882987 766.07370511 580.00882987 C766.07370511 405.76882987 766.07370511 231.52882987 766.07370511 52.00882987 C250.28370511 52.66882987 -265.50629489 53.32882987 -796.92629489 54.00882987 C-796.92629489 2.00882987 -796.92629489 2.00882987 -795.92629489 1.00882987 C-794.52172583 0.90979547 -793.11220103 0.88014712 -791.70414623 0.87821934 C-790.78498453 0.87453863 -789.86582284 0.87085791 -788.91880776 0.86706566 C-787.89441057 0.86808833 -786.87001338 0.869111 -785.81457385 0.87016467 C-784.19004595 0.86590141 -784.19004595 0.86590141 -782.53269932 0.86155202 C-778.84685348 0.85313155 -775.16103881 0.85193047 -771.47518405 0.85061148 C-768.81679401 0.84604666 -766.15840738 0.84108662 -763.50001927 0.83564577 C-757.6717119 0.8245317 -751.8434089 0.8171915 -746.01509317 0.81224469 C-737.28722775 0.80482629 -728.55937725 0.79173143 -719.83152056 0.77753302 C-704.02578053 0.75201837 -688.22003698 0.73235245 -672.41428623 0.71490523 C-658.23817746 0.69922582 -644.06207329 0.68134761 -629.88596972 0.66151885 C-628.45681374 0.65952414 -628.45681374 0.65952414 -626.99878592 0.65748914 C-623.11807249 0.65207136 -619.23735907 0.64664698 -615.35664566 0.64121184 C-569.31042648 0.57679554 -523.2641967 0.52333233 -477.2179612 0.47213693 C-460.82291997 0.45390738 -444.42787946 0.43512687 -428.03283938 0.41588858 C-425.85279387 0.41333171 -423.67274835 0.41077487 -421.49270284 0.40821805 C-420.41271588 0.40695133 -419.33272891 0.40568461 -418.22001507 0.4043795 C-417.13943599 0.40311216 -416.0588569 0.40184482 -414.945533 0.40053907 C-413.86442542 0.399271 -412.78331784 0.39800292 -411.66944942 0.39669642 C-297.41487297 0.26276901 -183.1602813 0.14961377 -21.83160587 0.01757733 C-14.55440389 0.01174625 -7.27720194 0.00588672 0 0 Z " fill="#FFFFFF" transform="translate(867.9262948855758,250.99117013369687)"/>
<path d="M0 0 C38.28 0 76.56 0 116 0 C116 127.05 116 254.1 116 385 C165.83 385 215.66 385 267 385 C267 414.7 267 444.4 267 475 C178.89 475 90.78 475 0 475 C0 318.25 0 161.5 0 0 Z " fill="#FFFFFF" transform="translate(1292,358)"/>
<path d="M0 0 C38.28 0 76.56 0 116 0 C116 127.05 116 254.1 116 385 C165.83 385 215.66 385 267 385 C267 414.7 267 444.4 267 475 C178.89 475 90.78 475 0 475 C0 318.25 0 161.5 0 0 Z " fill="#FFFFFF" transform="translate(970,358)"/>
<path d="M0 0 C4.41526541 0.88305308 8.12780888 2.17298834 12.21875 3.9296875 C12.93176773 4.23132309 13.64478546 4.53295868 14.37940979 4.84373474 C16.75481317 5.84980159 19.1273512 6.86245597 21.5 7.875 C23.19567855 8.59447421 24.89156549 9.31345744 26.58764648 10.03198242 C30.19851076 11.5622972 33.8083403 13.09501817 37.41748047 14.62939453 C42.92190117 16.9684036 48.43090767 19.29644519 53.94140625 21.62109375 C55.30620621 22.1968515 55.30620621 22.1968515 56.69857788 22.78424072 C58.55107369 23.56568368 60.40358229 24.3470963 62.25610352 25.128479 C67.00595569 27.13244556 71.75490886 29.13854008 76.50390625 31.14453125 C86.90041173 35.53575108 97.29740605 39.92581233 107.69454956 44.31552124 C112.37972115 46.29363005 117.06485884 48.27181912 121.75 50.25 C123.62499984 51.04166705 125.49999984 51.83333372 127.375 52.625 C228.625 95.375 228.625 95.375 231.4369812 96.56228638 C233.31370535 97.3546774 235.19043468 98.14705612 237.06716919 98.93942261 C241.7283322 100.90740635 246.38940749 102.87559733 251.05029297 104.84423828 C259.80155271 108.54029064 268.55369347 112.23421595 277.30877686 115.92120361 C281.42419686 117.6544546 285.53914233 119.38883059 289.65405273 121.12329102 C291.60742957 121.94628083 293.56103633 122.76872517 295.51489258 123.59057617 C298.23187518 124.73346206 300.94804405 125.8782626 303.6640625 127.0234375 C304.44862823 127.35286346 305.23319397 127.68228943 306.04153442 128.021698 C312.08515557 130.57323465 318.02087802 133.28221728 324 136 C324 161.74 324 187.48 324 214 C311.7178125 219.2284375 311.7178125 219.2284375 299.1875 224.5625 C283.61804933 231.19217132 268.04974746 237.82422003 252.5 244.5 C238.11650202 250.67486893 223.71543303 256.80811621 209.3125 262.9375 C190.5298511 270.93090444 171.75947796 278.95237095 153 287 C133.57430417 295.33339429 114.13603031 303.63654642 94.68478394 311.91012573 C81.67853076 317.44260688 68.67890847 322.99006961 55.69140625 328.56640625 C54.40864438 329.1170235 53.12587869 329.66763185 51.84310913 330.2182312 C45.72174185 332.84597544 39.60137805 335.4760194 33.48242188 338.109375 C31.26044318 339.06386381 29.03843924 340.01829386 26.81640625 340.97265625 C25.84047012 341.39358047 24.864534 341.8145047 23.85902405 342.2481842 C15.95367761 345.64025725 7.99548374 348.8018065 0 352 C0 324.61 0 297.22 0 269 C6.51579292 266.03827595 12.99065558 263.11062782 19.6015625 260.390625 C20.3839328 260.06684875 21.1663031 259.74307251 21.97238159 259.40948486 C24.52253402 258.35457098 27.07376696 257.30229746 29.625 256.25 C31.44344321 255.49824963 33.26180089 254.74629234 35.08007812 253.99414062 C38.85025662 252.43474872 42.6207981 250.87623938 46.39160156 249.31835938 C54.253288 246.06957177 62.11046603 242.80992249 69.9677124 239.55041504 C74.22826388 237.78310103 78.48914988 236.01659386 82.75 234.25 C84.45833491 233.54167048 86.16666825 232.83333714 87.875 232.125 C104.95833333 225.04166667 122.04166667 217.95833333 139.125 210.875 C139.9704538 210.5244455 140.81590759 210.17389099 141.6869812 209.81271362 C143.39704246 209.10366483 145.10710512 208.39461942 146.81716919 207.68557739 C151.06157675 205.92571832 155.30596065 204.16580224 159.55029297 202.40576172 C167.55285723 199.08732865 175.55567024 195.76949893 183.55926514 192.45355225 C187.33801937 190.88794848 191.11664643 189.32203789 194.89526367 187.75610352 C196.69581856 187.01001902 198.49643569 186.2640847 200.29711914 185.51831055 C202.7945916 184.48394207 205.29184867 183.44905517 207.7890625 182.4140625 C208.51948761 182.11170685 209.24991272 181.8093512 210.00247192 181.49783325 C210.69211029 181.21189301 211.38174866 180.92595276 212.09228516 180.63134766 C212.74690735 180.36074524 213.40152954 180.09014282 214.07598877 179.81134033 C215.37654171 179.26290743 216.6707603 178.69924371 217.9586792 178.12176514 C220.83176691 176.83658225 222.81180087 176 226 176 C226 175.34 226 174.68 226 174 C225.26442368 173.86898895 224.52884735 173.73797791 223.77098083 173.60299683 C221.23697634 173.05156874 219.0568987 172.33404454 216.66430664 171.35205078 C215.4133168 170.84239777 215.4133168 170.84239777 214.13705444 170.32244873 C213.23717804 169.95049377 212.33730164 169.57853882 211.41015625 169.1953125 C209.97768051 168.60934296 209.97768051 168.60934296 208.51626587 168.01153564 C205.36320817 166.7203718 202.21285269 165.4227484 199.0625 164.125 C196.8482011 163.21662328 194.63376223 162.30858772 192.41918945 161.40087891 C175.92767633 154.63619364 159.45345036 147.82928231 142.98242188 141.01489258 C129.85446411 135.58455129 116.71336901 130.18710854 103.5625 124.8125 C102.6510321 124.43995087 101.73956421 124.06740173 100.80047607 123.68356323 C97.17182502 122.20045577 93.54311914 120.71748254 89.91433716 119.23469543 C66.65089841 109.7283967 43.40398087 100.18296607 20.1875 90.5625 C19.28053375 90.18688934 18.3735675 89.81127869 17.43911743 89.42428589 C14.8900479 88.36834226 12.34142268 87.31133459 9.79296875 86.25390625 C8.64911209 85.78013046 8.64911209 85.78013046 7.48214722 85.29678345 C2.23078256 83.11539128 2.23078256 83.11539128 0 82 C0 54.94 0 27.88 0 0 Z " fill="#FFFFFF" transform="translate(71,416)"/>
<path d="M0 0 C1.01771484 0.06123047 2.03542969 0.12246094 3.08398438 0.18554688 C5.57818964 0.33777537 8.07032346 0.50545666 10.5625 0.6875 C11.6875 5.4375 11.6875 5.4375 10.5625 7.6875 C8.5 8.3125 8.5 8.3125 6.5625 8.6875 C6.76875 9.533125 6.975 10.37875 7.1875 11.25 C7.63279948 15.3319119 7.04657529 17.8713064 5.5625 21.6875 C3.2195799 24.57710145 1.00896743 26.3289096 -2.4375 27.6875 C-5.671875 27.8828125 -5.671875 27.8828125 -9.1875 27.8125 C-10.94320313 27.78542969 -10.94320313 27.78542969 -12.734375 27.7578125 C-13.62640625 27.73460937 -14.5184375 27.71140625 -15.4375 27.6875 C-15.4375 28.3475 -15.4375 29.0075 -15.4375 29.6875 C-11.54241191 31.63504404 -6.51010226 31.36610207 -2.17773438 31.67382812 C2.88565073 32.1424297 5.87606598 32.88518594 9.5625 36.6875 C11.30830224 40.17910447 11.13233131 43.87795358 10.5625 47.6875 C8.91056734 50.94338387 6.664558 53.10240739 3.4140625 54.828125 C-0.39846605 55.97710621 -3.91479824 56.01720331 -7.875 56 C-8.61298828 56.01611328 -9.35097656 56.03222656 -10.11132812 56.04882812 C-15.78870321 56.05387468 -20.0316356 54.93297344 -24.3125 50.9375 C-25.94668244 47.66913512 -25.81121743 45.30010181 -25.4375 41.6875 C-23.9375 38.25 -23.9375 38.25 -22.4375 35.6875 C-22.7675 35.3575 -23.0975 35.0275 -23.4375 34.6875 C-23.56244616 33.06610563 -23.61321624 31.43865878 -23.625 29.8125 C-23.63917969 28.92820312 -23.65335938 28.04390625 -23.66796875 27.1328125 C-23.4375 24.6875 -23.4375 24.6875 -21.4375 21.6875 C-21.746875 20.800625 -22.05625 19.91375 -22.375 19 C-23.69817678 14.8748018 -23.60336085 11.83659302 -22.4375 7.6875 C-20.20272567 3.81962135 -17.7522787 1.95644706 -13.63085938 0.26049805 C-9.15019879 -0.91003962 -4.57291062 -0.33619967 0 0 Z M-14.4375 10.6875 C-15.51392709 12.57600355 -15.51392709 12.57600355 -15.4375 14.6875 C-14.28963059 16.93106294 -13.2279233 18.8970767 -11.4375 20.6875 C-8.02149407 21.10442853 -8.02149407 21.10442853 -4.4375 20.6875 C-1.81208587 18.48553976 -1.4929552 17.06776421 -1 13.6875 C-1.21490528 10.61890655 -1.21490528 10.61890655 -3.125 8.3125 C-5.32325314 6.53557743 -5.32325314 6.53557743 -7.9375 6.1875 C-11.24259916 6.84851983 -12.38725941 8.05147638 -14.4375 10.6875 Z M-16.1875 41.1875 C-16.6 42.0125 -17.0125 42.8375 -17.4375 43.6875 C-16.5761077 46.29762067 -16.5761077 46.29762067 -14.4375 48.6875 C-9.26787673 50.30934259 -4.32499788 50.07164531 0.5625 47.6875 C2.80836971 44.99876059 2.80836971 44.99876059 2.375 42.625 C1.6214579 40.32756462 1.6214579 40.32756462 -1.4375 38.6875 C-6.99630844 37.94476188 -11.90485815 37.29418923 -16.1875 41.1875 Z " fill="#FFFFFF" transform="translate(1384.4375,894.3125)"/>
<path d="M0 0 C6.15234375 -0.09765625 6.15234375 -0.09765625 8 0 C9.54950268 1.54950268 9.21655193 3.09990594 9.31640625 5.25390625 C9.37924805 6.53491211 9.37924805 6.53491211 9.44335938 7.84179688 C9.48267578 8.73962891 9.52199219 9.63746094 9.5625 10.5625 C9.60568359 11.46419922 9.64886719 12.36589844 9.69335938 13.29492188 C9.79978142 15.52978485 9.90179988 17.76476308 10 20 C10.9075 19.51273438 11.815 19.02546875 12.75 18.5234375 C16.79648334 16.62664843 19.63136242 16.36217891 24 17 C28.68673359 18.71246035 31.36226233 20.76077874 34 25 C37.09556459 34.13191553 37.09796295 43.17630105 33 52 C30.69084728 55.50097347 28.86776956 57.44195855 25 59 C19.9611373 59.57823015 15.43662419 59.67605844 10.8125 57.5 C10.214375 57.005 9.61625 56.51 9 56 C8.34 56.99 7.68 57.98 7 59 C3.9375 59.25 3.9375 59.25 1 59 C0 58 0 58 -0.12025452 55.67784119 C-0.11803391 54.64969803 -0.11581329 53.62155487 -0.11352539 52.56225586 C-0.11344986 51.40112778 -0.11337433 50.23999969 -0.11329651 49.04368591 C-0.10813522 47.780168 -0.10297394 46.51665009 -0.09765625 45.21484375 C-0.0962413 43.92888809 -0.09482635 42.64293243 -0.09336853 41.31800842 C-0.08954418 37.89356557 -0.07971462 34.46916491 -0.06866455 31.04473877 C-0.05844864 27.55261811 -0.05387053 24.06049066 -0.04882812 20.56835938 C-0.03809227 13.71222222 -0.02101684 6.85611313 0 0 Z M11 28 C7.4859337 33.27109945 8.22922418 39.88741265 9 46 C11.011083 49.5513439 13.85846015 50.5266786 17.5625 52.0625 C21.16563413 51.97011195 22.52849435 50.5383031 25 48 C27.78270601 43.49466645 27.54969901 38.12778929 27 33 C25.66362375 29.598315 24.56521154 27.56521154 22 25 C17.36458666 24.48495407 14.72241768 25.20818674 11 28 Z " fill="#FFFFFF" transform="translate(1497,877)"/>
<path d="M0 0 C3.3 0 6.6 0 10 0 C12.79343639 6.15381349 15.35047093 12.33896537 17.70703125 18.671875 C18.03668381 19.55731995 18.36633636 20.44276489 18.70597839 21.3550415 C19.39426002 23.20981771 20.08070727 25.06527561 20.76538086 26.92138672 C21.46687376 28.81634981 22.17396465 30.70924945 22.88647461 32.60009766 C23.92217754 35.34883091 24.9413942 38.10317436 25.95703125 40.859375 C26.27775101 41.70216003 26.59847076 42.54494507 26.9289093 43.41326904 C29.55710224 50.64870616 29.55710224 50.64870616 28 55 C25.69 55 23.38 55 21 55 C20.34371151 53.79731319 19.70052495 52.58747446 19.0625 51.375 C18.52302734 50.36566406 18.52302734 50.36566406 17.97265625 49.3359375 C17 47 17 47 16 41 C8.74 41 1.48 41 -6 41 C-6.66 43.97 -7.32 46.94 -8 50 C-9.25 53.0625 -9.25 53.0625 -11 55 C-14.125 55.375 -14.125 55.375 -17 55 C-17.33 54.67 -17.66 54.34 -18 54 C-17.60198258 47.22930862 -15.57979288 41.46152804 -13.18359375 35.15625 C-12.61971703 33.64170227 -12.61971703 33.64170227 -12.04444885 32.09655762 C-10.85022965 28.89460825 -9.64407358 25.69731168 -8.4375 22.5 C-7.62225251 20.32060948 -6.80779095 18.1409248 -5.99414062 15.9609375 C-4.00517378 10.63717734 -2.00549421 5.31755505 0 0 Z M4 12 C1.69 18.93 -0.62 25.86 -3 33 C2.28 33 7.56 33 13 33 C10.69 26.07 8.38 19.14 6 12 C5.34 12 4.68 12 4 12 Z " fill="#FFFFFF" transform="translate(752,881)"/>
<path d="M0 0 C2.64 0 5.28 0 8 0 C8.33 6.93 8.66 13.86 9 21 C10.32 20.01 11.64 19.02 13 18 C18.09407863 16.30197379 22.90186248 16.1281741 27.75 18.5 C32.48350586 21.59082803 34.31806262 25.97640999 35.53125 31.35546875 C36.60870867 39.05684944 35.73745217 46.52509565 32.25 53.5 C29.04620697 57.05977004 26.38330978 58.72456131 21.56640625 59.28125 C16.55666906 59.45990333 13.06404498 59.25123598 9 56 C8.34 56.99 7.68 57.98 7 59 C3.9375 59.25 3.9375 59.25 1 59 C0 58 0 58 -0.12025452 55.67784119 C-0.11803391 54.64969803 -0.11581329 53.62155487 -0.11352539 52.56225586 C-0.11344986 51.40112778 -0.11337433 50.23999969 -0.11329651 49.04368591 C-0.10813522 47.780168 -0.10297394 46.51665009 -0.09765625 45.21484375 C-0.0962413 43.92888809 -0.09482635 42.64293243 -0.09336853 41.31800842 C-0.08954418 37.89356557 -0.07971462 34.46916491 -0.06866455 31.04473877 C-0.05844864 27.55261811 -0.05387053 24.06049066 -0.04882812 20.56835938 C-0.03809227 13.71222222 -0.02101684 6.85611313 0 0 Z M9.3359375 28.7578125 C6.37992529 33.71907276 6.96618331 39.50581699 8 45 C10.13614185 49.09125473 12.81972674 50.56643023 17.0625 52.125 C20.09141779 52.21245402 20.09141779 52.21245402 22.75 50.5 C26.08691961 46.79231154 26.96820256 43.50802341 27.03125 38.53515625 C26.70611424 33.12977422 25.97091057 28.97091057 22 25 C16.77220522 23.81634835 13.13581775 25.16426059 9.3359375 28.7578125 Z " fill="#FFFFFF" transform="translate(985,877)"/>
<path d="M0 0 C4.40475222 4.40475222 4.12715906 9.87045547 4.1328125 15.796875 C4.13410156 17.08464844 4.13539062 18.37242187 4.13671875 19.69921875 C4.13462402 20.36356934 4.1325293 21.02791992 4.13037109 21.71240234 C4.12498007 23.75756115 4.13035061 25.80250389 4.13671875 27.84765625 C4.13542969 29.13027344 4.13414063 30.41289063 4.1328125 31.734375 C4.13168457 32.91225586 4.13055664 34.09013672 4.12939453 35.30371094 C4 38 4 38 3 39 C0.0625 39.1875 0.0625 39.1875 -3 39 C-3.66 38.34 -4.32 37.68 -5 37 C-5.71285156 37.32097656 -6.42570312 37.64195312 -7.16015625 37.97265625 C-11.75414722 39.63458146 -16.18466408 39.71207749 -21 39 C-24.17340476 37.34243519 -26.37654303 35.24691395 -28 32 C-28.50320917 27.33912817 -28.64490534 23.31785004 -26.5625 19.0625 C-20.14705043 13.89884547 -12.96209071 13.55119739 -5 14 C-5.33 11.36 -5.66 8.72 -6 6 C-11.5964009 4.90070697 -14.94422776 4.91438593 -20.140625 7.30859375 C-22 8 -22 8 -26 8 C-26 5.69 -26 3.38 -26 1 C-17.21411312 -3.59262269 -8.94052466 -5.00669381 0 0 Z M-18.125 23.5 C-18.74375 24.325 -19.3625 25.15 -20 26 C-18.91215032 29.24983135 -18.91215032 29.24983135 -17 32 C-13.00864724 32.38378392 -10.63380924 32.33713258 -7.0625 30.4375 C-4.63908091 28.05155987 -4.63908091 28.05155987 -4.6875 24.25 C-4.790625 23.1775 -4.89375 22.105 -5 21 C-12.17778934 20.15062519 -12.17778934 20.15062519 -18.125 23.5 Z " fill="#FFFFFF" transform="translate(1483,897)"/>
<path d="M0 0 C4.40475222 4.40475222 4.12715906 9.87045547 4.1328125 15.796875 C4.13410156 17.08464844 4.13539062 18.37242187 4.13671875 19.69921875 C4.13462402 20.36356934 4.1325293 21.02791992 4.13037109 21.71240234 C4.12498007 23.75756115 4.13035061 25.80250389 4.13671875 27.84765625 C4.13542969 29.13027344 4.13414063 30.41289063 4.1328125 31.734375 C4.13168457 32.91225586 4.13055664 34.09013672 4.12939453 35.30371094 C4 38 4 38 3 39 C0.0625 39.1875 0.0625 39.1875 -3 39 C-3.66 38.34 -4.32 37.68 -5 37 C-5.71285156 37.32097656 -6.42570312 37.64195312 -7.16015625 37.97265625 C-11.75414722 39.63458146 -16.18466408 39.71207749 -21 39 C-24.17340476 37.34243519 -26.37654303 35.24691395 -28 32 C-28.50320917 27.33912817 -28.64490534 23.31785004 -26.5625 19.0625 C-20.14705043 13.89884547 -12.96209071 13.55119739 -5 14 C-5.33 11.36 -5.66 8.72 -6 6 C-11.5964009 4.90070697 -14.94422776 4.91438593 -20.140625 7.30859375 C-22 8 -22 8 -26 8 C-26 5.69 -26 3.38 -26 1 C-17.21411312 -3.59262269 -8.94052466 -5.00669381 0 0 Z M-18.125 23.5 C-18.74375 24.325 -19.3625 25.15 -20 26 C-18.91215032 29.24983135 -18.91215032 29.24983135 -17 32 C-13.00864724 32.38378392 -10.63380924 32.33713258 -7.0625 30.4375 C-4.63908091 28.05155987 -4.63908091 28.05155987 -4.6875 24.25 C-4.790625 23.1775 -4.89375 22.105 -5 21 C-12.17778934 20.15062519 -12.17778934 20.15062519 -18.125 23.5 Z " fill="#FFFFFF" transform="translate(1212,897)"/>
<path d="M0 0 C4.16902622 3.83099706 5.53699346 8.47115715 6 14 C5.67 15.98 5.34 17.96 5 20 C-3.58 20 -12.16 20 -21 20 C-20.01 22.97 -19.02 25.94 -18 29 C-10.81849302 32.59075349 -4.48794357 31.00569917 3 29 C4 30 4 30 4.0625 33.0625 C4.041875 34.031875 4.02125 35.00125 4 36 C-3.11876042 40.0678631 -11.6591325 40.45212526 -19.54296875 38.30859375 C-24.16724977 36.23504185 -26.63009678 33.55021419 -29 29 C-31.22069641 22.08283078 -31.07222231 13.63650334 -28.3125 6.9375 C-25.98876552 2.47003865 -23.11782301 0.17656834 -18.75 -2.25 C-12.0269541 -4.08355797 -6.10589497 -3.47197949 0 0 Z M-19 7 C-20.73523928 9.64417414 -21 10.78465943 -21 14 C-15.06 14 -9.12 14 -3 14 C-3.52381368 8.51065477 -3.52381368 8.51065477 -5.125 6.1875 C-10.03732552 3.07636051 -14.60569097 3.35900109 -19 7 Z " fill="#FFFFFF" transform="translate(1172,897)"/>
<path d="M0 0 C3.19120058 2.41321037 4.32913295 4.57169829 5.73046875 8.30859375 C5.73046875 12.26859375 5.73046875 16.22859375 5.73046875 20.30859375 C-2.84953125 20.30859375 -11.42953125 20.30859375 -20.26953125 20.30859375 C-19.14005839 27.81636311 -19.14005839 27.81636311 -16.20703125 30.30859375 C-9.32595442 32.65108799 -3.09098182 31.13576801 3.73046875 29.30859375 C4.06046875 29.63859375 4.39046875 29.96859375 4.73046875 30.30859375 C4.4431682 32.64804111 4.11110096 34.98250805 3.73046875 37.30859375 C-3.74888347 40.15787079 -13.10442253 41.04282051 -20.5625 37.9375 C-25.26034722 35.11065687 -27.59077911 31.43811417 -29.26953125 26.30859375 C-30.04091673 18.29874214 -30.56350596 9.88546417 -25.26953125 3.30859375 C-18.44804874 -3.93239169 -8.5980353 -4.95974491 0 0 Z M-18.26953125 7.30859375 C-20.00477053 9.95276789 -20.26953125 11.09325318 -20.26953125 14.30859375 C-14.32953125 14.30859375 -8.38953125 14.30859375 -2.26953125 14.30859375 C-3.15609652 9.06162382 -3.15609652 9.06162382 -6.26953125 5.30859375 C-11.31144361 3.90806254 -14.18799378 3.92674842 -18.26953125 7.30859375 Z " fill="#FFFFFF" transform="translate(1075.26953125,896.69140625)"/>
<path d="M0 0 C3.19120058 2.41321037 4.32913295 4.57169829 5.73046875 8.30859375 C5.73046875 12.26859375 5.73046875 16.22859375 5.73046875 20.30859375 C-2.84953125 20.30859375 -11.42953125 20.30859375 -20.26953125 20.30859375 C-19.14005839 27.81636311 -19.14005839 27.81636311 -16.20703125 30.30859375 C-9.32595442 32.65108799 -3.09098182 31.13576801 3.73046875 29.30859375 C4.06046875 29.63859375 4.39046875 29.96859375 4.73046875 30.30859375 C4.4431682 32.64804111 4.11110096 34.98250805 3.73046875 37.30859375 C-3.74888347 40.15787079 -13.10442253 41.04282051 -20.5625 37.9375 C-25.26034722 35.11065687 -27.59077911 31.43811417 -29.26953125 26.30859375 C-30.04091673 18.29874214 -30.56350596 9.88546417 -25.26953125 3.30859375 C-18.44804874 -3.93239169 -8.5980353 -4.95974491 0 0 Z M-18.26953125 7.30859375 C-20.00477053 9.95276789 -20.26953125 11.09325318 -20.26953125 14.30859375 C-14.32953125 14.30859375 -8.38953125 14.30859375 -2.26953125 14.30859375 C-3.15609652 9.06162382 -3.15609652 9.06162382 -6.26953125 5.30859375 C-11.31144361 3.90806254 -14.18799378 3.92674842 -18.26953125 7.30859375 Z " fill="#FFFFFF" transform="translate(885.26953125,896.69140625)"/>
<path d="M0 0 C4.12403425 1.78083297 6.55779071 4.24946431 9 8 C9.91729894 12.20004866 10.11808423 16.20231242 10.09765625 20.4921875 C10.09443359 21.69101562 10.09121094 22.88984375 10.08789062 24.125 C10.07532227 25.98125 10.07532227 25.98125 10.0625 27.875 C10.05798828 29.13570312 10.05347656 30.39640625 10.04882812 31.6953125 C10.0370796 34.79692386 10.02065167 37.89843725 10 41 C7.26752652 42.36623674 5.01801098 42.128426 2 42 C0.18678425 40.18678425 0.82661209 37.36024243 0.7890625 34.91796875 C0.76070312 33.67595703 0.73234375 32.43394531 0.703125 31.15429688 C0.65127519 28.52162273 0.60693547 25.88878936 0.5703125 23.25585938 C0.539375 22.00998047 0.5084375 20.76410156 0.4765625 19.48046875 C0.45674316 18.33473389 0.43692383 17.18899902 0.41650391 16.00854492 C-0.0376381 12.72812757 -0.66030153 11.31165533 -3 9 C-6.75139932 8.26603057 -8.41248907 8.62857507 -11.64453125 10.671875 C-15.8595635 15.11429715 -14.78592406 22.10457776 -14.8125 27.8125 C-14.83763672 29.07771484 -14.86277344 30.34292969 -14.88867188 31.64648438 C-14.94750491 34.76463543 -14.98381506 37.88138367 -15 41 C-17.73247348 42.36623674 -19.98198902 42.128426 -23 42 C-24 41 -24 41 -24.11352539 37.21459961 C-24.11336622 35.52717271 -24.10766917 33.83974095 -24.09765625 32.15234375 C-24.0962413 31.2659169 -24.09482635 30.37949005 -24.09336853 29.46620178 C-24.08775215 26.62326746 -24.07519691 23.78041069 -24.0625 20.9375 C-24.05748711 19.01497509 -24.05292384 17.09244896 -24.04882812 15.16992188 C-24.03777741 10.44658451 -24.02050183 5.72330542 -24 1 C-21.36 1 -18.72 1 -16 1 C-15.67 1.99 -15.34 2.98 -15 4 C-14.01 3.34 -13.02 2.68 -12 2 C-7.74484511 -0.42044236 -4.85447632 -0.54808604 0 0 Z " fill="#FFFFFF" transform="translate(1343,894)"/>
<path d="M0 0 C3.82158012 2.43191462 5.32820787 4.48462362 6.75 8.75 C6.84569956 11.09481969 6.88073912 13.44229164 6.8828125 15.7890625 C6.88376923 16.47052338 6.88472595 17.15198425 6.88571167 17.85409546 C6.88639115 19.29140312 6.88455304 20.72871388 6.88037109 22.16601562 C6.875003 24.37376728 6.8803323 26.58131703 6.88671875 28.7890625 C6.88605825 30.18489628 6.88477767 31.58072994 6.8828125 32.9765625 C6.88168457 34.25096191 6.88055664 35.52536133 6.87939453 36.83837891 C6.75 39.75 6.75 39.75 5.75 40.75 C2.75 40.875 2.75 40.875 -0.25 40.75 C-1.99674225 39.00325775 -1.42105469 36.55063784 -1.4609375 34.17578125 C-1.48929688 33.03302734 -1.51765625 31.89027344 -1.546875 30.71289062 C-1.59853719 28.29897499 -1.64292987 25.88489171 -1.6796875 23.47070312 C-1.84815571 15.14124071 -1.84815571 15.14124071 -5.25 7.75 C-9.0403908 7.298763 -11.00226431 7.61985455 -14.41015625 9.41015625 C-16.72885937 11.44353047 -17.22219193 12.60456576 -17.80957031 15.67651367 C-18.03089077 19.29510322 -18.0832048 22.87477762 -18.0625 26.5 C-18.08660556 28.973992 -18.11377443 31.44795674 -18.14453125 33.921875 C-18.14300049 35.0159668 -18.14146973 36.11005859 -18.13989258 37.23730469 C-18.25 39.75 -18.25 39.75 -19.25 40.75 C-22.25 40.875 -22.25 40.875 -25.25 40.75 C-26.25 39.75 -26.25 39.75 -26.36352539 35.96459961 C-26.36336622 34.27717271 -26.35766917 32.58974095 -26.34765625 30.90234375 C-26.3462413 30.0159169 -26.34482635 29.12949005 -26.34336853 28.21620178 C-26.33775215 25.37326746 -26.32519691 22.53041069 -26.3125 19.6875 C-26.30748711 17.76497509 -26.30292384 15.84244896 -26.29882812 13.91992188 C-26.28777741 9.19658451 -26.27050183 4.47330542 -26.25 -0.25 C-23.94 -0.25 -21.63 -0.25 -19.25 -0.25 C-18.92 0.74 -18.59 1.73 -18.25 2.75 C-17.75371094 2.46125 -17.25742188 2.1725 -16.74609375 1.875 C-10.86218661 -1.34049384 -6.51989097 -2.50765037 0 0 Z " fill="#FFFFFF" transform="translate(1282.25,895.25)"/>
<path d="M0 0 C0 1.98 0 3.96 0 6 C-3 7 -3 7 -5.3125 6.0625 C-8.42480291 4.83205466 -10.68016366 4.70490344 -14 5 C-16.21840296 6.75284163 -16.21840296 6.75284163 -16.0234375 8.90234375 C-14.42300773 12.18261393 -11.84063926 12.975976 -8.625 14.5625 C-0.89527514 18.41022335 -0.89527514 18.41022335 1 21 C2.21161428 25.09494954 2.44963268 28.80979585 0.9375 32.8125 C-2.4117917 36.59395837 -4.88315461 38.75761312 -10.0703125 39.3515625 C-16.11956615 39.50313833 -20.93486288 39.47323688 -26 36 C-26 33.69 -26 31.38 -26 29 C-22.87709365 29.48578543 -20.00419641 29.9986012 -17 31 C-12.345203 31.3053818 -12.345203 31.3053818 -8 30 C-8 28.35 -8 26.7 -8 25 C-8.89203125 24.55269531 -9.7840625 24.10539063 -10.703125 23.64453125 C-11.87359375 23.03996094 -13.0440625 22.43539062 -14.25 21.8125 C-15.41015625 21.22082031 -16.5703125 20.62914062 -17.765625 20.01953125 C-21.52678398 17.67107812 -24.4249463 15.39077445 -25.49609375 10.9375 C-25.36299953 6.53651772 -25.03634173 3.42812776 -22 0 C-14.10660953 -4.4883985 -7.83759898 -3.91879949 0 0 Z " fill="#FFFFFF" transform="translate(1564,897)"/>
<path d="M0 0 C0 1.98 0 3.96 0 6 C-3 7 -3 7 -5.3125 6.0625 C-8.42480291 4.83205466 -10.68016366 4.70490344 -14 5 C-16.21840296 6.75284163 -16.21840296 6.75284163 -16.0234375 8.90234375 C-14.42300773 12.18261393 -11.84063926 12.975976 -8.625 14.5625 C-0.89527514 18.41022335 -0.89527514 18.41022335 1 21 C2.21161428 25.09494954 2.44963268 28.80979585 0.9375 32.8125 C-2.4117917 36.59395837 -4.88315461 38.75761312 -10.0703125 39.3515625 C-16.11956615 39.50313833 -20.93486288 39.47323688 -26 36 C-26 33.69 -26 31.38 -26 29 C-22.87709365 29.48578543 -20.00419641 29.9986012 -17 31 C-12.345203 31.3053818 -12.345203 31.3053818 -8 30 C-8 28.35 -8 26.7 -8 25 C-8.89203125 24.55269531 -9.7840625 24.10539063 -10.703125 23.64453125 C-11.87359375 23.03996094 -13.0440625 22.43539062 -14.25 21.8125 C-15.41015625 21.22082031 -16.5703125 20.62914062 -17.765625 20.01953125 C-21.52678398 17.67107812 -24.4249463 15.39077445 -25.49609375 10.9375 C-25.36299953 6.53651772 -25.03634173 3.42812776 -22 0 C-14.10660953 -4.4883985 -7.83759898 -3.91879949 0 0 Z " fill="#FFFFFF" transform="translate(923,897)"/>
<path d="M0 0 C0.66 0.66 1.32 1.32 2 2 C1.625 5.125 1.625 5.125 1 8 C-3.75 7.125 -3.75 7.125 -6 6 C-7.37342831 5.9310528 -8.75002102 5.91532292 -10.125 5.9375 C-11.40375 5.958125 -12.6825 5.97875 -14 6 C-14.50241322 8.3295947 -14.50241322 8.3295947 -14 11 C-10.30311102 14.04993341 -6.20062771 15.94489032 -1.83203125 17.875 C0.48979087 19.3007671 1.61522595 20.65427668 3 23 C3.86120395 27.77153538 3.70334178 31.79427124 1.25 36 C-3.82572505 40.5117556 -8.23207695 40.35138881 -14.84765625 40.26953125 C-18.68702056 39.94125846 -20.85770965 39.15471338 -24 37 C-24 34.69 -24 32.38 -24 30 C-18.25 30.875 -18.25 30.875 -16 32 C-14.08596924 32.19668734 -14.08596924 32.19668734 -12 32.1875 C-11.29875 32.20167969 -10.5975 32.21585938 -9.875 32.23046875 C-7.75475062 32.16512323 -7.75475062 32.16512323 -6 30 C-6 28.68 -6 27.36 -6 26 C-7.05960938 25.45730469 -8.11921875 24.91460938 -9.2109375 24.35546875 C-10.59916732 23.63321405 -11.98717676 22.91053565 -13.375 22.1875 C-14.07367187 21.83107422 -14.77234375 21.47464844 -15.4921875 21.10742188 C-16.1625 20.75615234 -16.8328125 20.40488281 -17.5234375 20.04296875 C-18.14138184 19.72352295 -18.75932617 19.40407715 -19.39599609 19.07495117 C-21 18 -21 18 -23 15 C-23.69097369 10.25959913 -23.67352182 6.2434249 -21.375 2 C-15.41022875 -3.02296527 -6.89411549 -3.64982585 0 0 Z " fill="#FFFFFF" transform="translate(954,896)"/>
<path d="M0 0 C0 2.64 0 5.28 0 8 C-3.37462715 7.45276317 -5.08235 6.9451 -8 5 C-11.56839247 4.44603585 -14.8958388 4.25201983 -17.9375 6.3125 C-20.22240595 9.94146828 -20.16380402 13.26226751 -20.1875 17.4375 C-20.20876953 19.13712891 -20.20876953 19.13712891 -20.23046875 20.87109375 C-20.00868068 23.88214868 -19.63281683 25.50412284 -18 28 C-15.32587435 30.07987551 -13.93620718 29.99658253 -10.5 29.8125 C-7.07470171 29.01734147 -5.64313197 28.17114412 -3 26 C-2.01 26 -1.02 26 0 26 C0.8125 28.6875 0.8125 28.6875 1 32 C-1.51401601 35.14252002 -3.1696911 36.72323037 -7 38 C-12.64704736 38.49707055 -17.44297816 38.79216901 -22.5625 36.1875 C-23.366875 35.465625 -24.17125 34.74375 -25 34 C-25.5775 33.566875 -26.155 33.13375 -26.75 32.6875 C-31.24974654 26.61284217 -30.54869302 18.15070903 -30 11 C-28.95453541 5.14539831 -26.36008437 1.85939813 -21.81640625 -1.87109375 C-14.48187679 -6.42954324 -6.81916593 -4.06248183 0 0 Z " fill="#FFFFFF" transform="translate(850,898)"/>
<path d="M0 0 C2.5625 1.625 2.5625 1.625 4.5625 3.625 C4.6875 6.75 4.6875 6.75 4.5625 9.625 C3.5725 9.955 2.5825 10.285 1.5625 10.625 C0.840625 10.150625 0.11875 9.67625 -0.625 9.1875 C-4.61389589 6.97144673 -6.89505452 7.12028384 -11.4375 7.625 C-14.68840431 9.95898258 -15.68689958 11.79483339 -16.4375 15.625 C-16.97507017 21.31083829 -16.75794699 25.7629169 -13.4375 30.625 C-10.91741863 32.62368522 -9.72693485 32.64347457 -6.5 32.4375 C-3.3525746 31.60246877 -1.18387647 30.33220699 1.5625 28.625 C2.5525 28.625 3.5425 28.625 4.5625 28.625 C4.5625 31.265 4.5625 33.905 4.5625 36.625 C-1.87871153 40.51403338 -6.93855428 41.53361459 -14.4375 40.625 C-19.49353588 39.12691529 -21.92407193 36.46034428 -24.4609375 31.9921875 C-27.54126248 24.52547976 -26.86954533 16.18693328 -24.4375 8.625 C-22.11864845 3.80892371 -19.4372712 1.44601083 -14.65234375 -0.68359375 C-9.44350418 -2.30963361 -5.0298182 -2.01192728 0 0 Z " fill="#FFFFFF" transform="translate(810.4375,895.375)"/>
<path d="M0 0 C2.64 0 5.28 0 8 0 C8 15.51 8 31.02 8 47 C14.6 47 21.2 47 28 47 C29 48 29 48 29 54 C19.43 54 9.86 54 0 54 C0 36.18 0 18.36 0 0 Z " fill="#FFFFFF" transform="translate(1110,881)"/>
<path d="M0 0 C2.64 0 5.28 0 8 0 C8 15.51 8 31.02 8 47 C14.6 47 21.2 47 28 47 C29 48 29 48 29.125 50.5 C29 53 29 53 28 54 C25.92737924 54.08767112 23.85179706 54.10695873 21.77734375 54.09765625 C20.64288818 54.09515869 19.50843262 54.09266113 18.33959961 54.09008789 C16.1605603 54.07643188 16.1605603 54.07643188 13.9375 54.0625 C7.0384375 54.0315625 7.0384375 54.0315625 0 54 C0 36.18 0 18.36 0 0 Z " fill="#FFFFFF" transform="translate(1423,881)"/>
<path d="M0 0 C0.99 0.66 1.98 1.32 3 2 C3.1875 5.125 3.1875 5.125 3 8 C-2 9 -2 9 -4.5625 9.25 C-8.01135706 10.31118679 -9.02381931 12.02356194 -11 15 C-11.61790752 17.96614036 -11.61790752 17.96614036 -11.57421875 21.140625 C-11.60193359 22.29304687 -11.62964844 23.44546875 -11.65820312 24.6328125 C-11.66787109 25.82648437 -11.67753906 27.02015625 -11.6875 28.25 C-11.72937053 30.63027634 -11.77474413 33.01049457 -11.82421875 35.390625 C-11.83541748 36.44282227 -11.84661621 37.49501953 -11.8581543 38.57910156 C-12 41 -12 41 -13 42 C-15.9375 42.1875 -15.9375 42.1875 -19 42 C-21.61152506 39.38847494 -21.23779913 37.56118146 -21.25224304 34.00535583 C-21.24505753 33.18761185 -21.23787201 32.36986786 -21.23046875 31.52734375 C-21.23001053 30.68909561 -21.22955231 29.85084747 -21.2290802 28.98719788 C-21.22605724 27.21435125 -21.21816963 25.44150729 -21.20581055 23.66870117 C-21.18755065 20.94505478 -21.18530085 18.22174808 -21.18554688 15.49804688 C-21.18063192 13.77864287 -21.1748037 12.05924119 -21.16796875 10.33984375 C-21.16685593 9.52007553 -21.1657431 8.70030731 -21.16459656 7.85569763 C-21.11604801 2.11604801 -21.11604801 2.11604801 -20 1 C-17.66702567 0.95907063 -15.33294775 0.95758277 -13 1 C-12.67 1.99 -12.34 2.98 -12 4 C-11.319375 3.34 -10.63875 2.68 -9.9375 2 C-6.30586782 -0.47260063 -4.3132535 -0.47925039 0 0 Z " fill="#FFFFFF" transform="translate(1247,894)"/>
<path d="M0 0 C2.64 0 5.28 0 8 0 C8.02312851 7.54498233 8.04091769 15.08996101 8.05181217 22.63497066 C8.05703989 26.13808885 8.0641355 29.64118285 8.07543945 33.14428711 C8.08834206 37.16780841 8.09322912 41.19130414 8.09765625 45.21484375 C8.10281754 46.47836166 8.10797882 47.74187958 8.11329651 49.04368591 C8.11337204 50.204814 8.11344757 51.36594208 8.11352539 52.56225586 C8.115746 53.59039902 8.11796661 54.61854218 8.12025452 55.67784119 C8 58 8 58 7 59 C4 59.125 4 59.125 1 59 C0 58 0 58 -0.12025452 55.67784119 C-0.11803391 54.64969803 -0.11581329 53.62155487 -0.11352539 52.56225586 C-0.11344986 51.40112778 -0.11337433 50.23999969 -0.11329651 49.04368591 C-0.10813522 47.780168 -0.10297394 46.51665009 -0.09765625 45.21484375 C-0.0962413 43.92888809 -0.09482635 42.64293243 -0.09336853 41.31800842 C-0.08954418 37.89356557 -0.07971462 34.46916491 -0.06866455 31.04473877 C-0.05844864 27.55261811 -0.05387053 24.06049066 -0.04882812 20.56835938 C-0.03809227 13.71222222 -0.02101684 6.85611313 0 0 Z " fill="#FFFFFF" transform="translate(1029,877)"/>
<path d="M0 0 C2.64 0 5.28 0 8 0 C8.02464705 5.67830078 8.04283462 11.35657069 8.05493164 17.03491211 C8.05997256 18.96818585 8.06680519 20.90145576 8.07543945 22.8347168 C8.08751565 25.60726872 8.09323057 28.37977041 8.09765625 31.15234375 C8.10281754 32.02213364 8.10797882 32.89192352 8.11329651 33.78807068 C8.11349185 35.85905814 8.06208168 37.92994324 8 40 C7 41 7 41 4 41.125 C1 41 1 41 0 40 C-0.08868299 37.04294679 -0.11520296 34.10934944 -0.09765625 31.15234375 C-0.0962413 30.2659169 -0.09482635 29.37949005 -0.09336853 28.46620178 C-0.08775215 25.62326746 -0.07519691 22.78041069 -0.0625 19.9375 C-0.05748711 18.01497509 -0.05292384 16.09244896 -0.04882812 14.16992188 C-0.03777741 9.44658451 -0.02050183 4.72330542 0 0 Z " fill="#FFFFFF" transform="translate(1300,895)"/>
<path d="M0 0 C2.64 0 5.28 0 8 0 C8.02464705 5.67830078 8.04283462 11.35657069 8.05493164 17.03491211 C8.05997256 18.96818585 8.06680519 20.90145576 8.07543945 22.8347168 C8.08751565 25.60726872 8.09323057 28.37977041 8.09765625 31.15234375 C8.10281754 32.02213364 8.10797882 32.89192352 8.11329651 33.78807068 C8.11349185 35.85905814 8.06208168 37.92994324 8 40 C7 41 7 41 4 41.125 C1 41 1 41 0 40 C-0.08868299 37.04294679 -0.11520296 34.10934944 -0.09765625 31.15234375 C-0.0962413 30.2659169 -0.09482635 29.37949005 -0.09336853 28.46620178 C-0.08775215 25.62326746 -0.07519691 22.78041069 -0.0625 19.9375 C-0.05748711 18.01497509 -0.05292384 16.09244896 -0.04882812 14.16992188 C-0.03777741 9.44658451 -0.02050183 4.72330542 0 0 Z " fill="#FFFFFF" transform="translate(966,895)"/>
<path d="M0 0 C0.04241723 2.33294775 0.04092937 4.66702567 0 7 C-1 8 -1 8 -2.84765625 8.09765625 C-4.8984375 8.06510417 -6.94921875 8.03255208 -9 8 C-10.35439668 5.29120665 -10.06501451 2.99066732 -10 0 C-6.22996568 -2.61002376 -4.07631429 -1.66758312 0 0 Z " fill="#FFFFFF" transform="translate(1309,881)"/>
<path d="M0 0 C0.125 5.75 0.125 5.75 -1 8 C-7.15234375 8.09765625 -7.15234375 8.09765625 -9 8 C-10 7 -10 7 -10.0625 3.4375 C-10.041875 2.303125 -10.02125 1.16875 -10 0 C-6.22996568 -2.61002376 -4.07631429 -1.66758312 0 0 Z " fill="#FFFFFF" transform="translate(975,881)"/>
</svg>
